<svg version="1.1" xmlns="http://www.w3.org/2000/svg" viewBox="0 0 1024 1024" width="1024" height="1024"><path d="M176.46,0.96 C180.06,0.99 181.00,0.79 181.00,-0.00 L842.25,0.05 C843.20,0.85 845.57,1.15 847.56,1.00 C851.59,0.50 856.25,1.57 858.75,2.09 C859.44,2.78 861.07,3.20 863.00,3.00 L864.75,3.09 L867.97,4.10 C875.61,4.12 882.19,7.62 888.38,9.00 C943.50,26.86 987.49,69.65 1009.05,121.25 C1015.55,136.49 1021.51,155.46 1023.10,176.49 C1023.02,179.21 1023.23,180.00 1024.00,180.00 L1024.00,845.00 C1022.19,844.60 1023.30,845.93 1023.00,847.00 C1022.88,853.20 1022.66,855.00 1022.42,855.00 C1022.19,855.00 1022.00,855.77 1022.00,858.44 C1021.23,858.92 1021.00,859.62 1021.00,861.56 C1010.30,920.46 978.41,962.87 936.81,991.25 C916.15,1005.53 889.23,1017.71 857.52,1022.10 L854.75,1022.51 L848.54,1023.04 C846.18,1023.01 845.50,1023.23 845.50,1024.00 L179.00,1024.00 C179.00,1023.22 178.33,1023.00 176.00,1023.00 C171.58,1023.45 167.49,1022.23 164.75,1021.94 C164.08,1021.33 162.79,1020.78 161.00,1021.00 C106.92,1011.62 69.63,982.96 41.75,948.62 C31.53,935.71 22.31,920.43 15.36,904.25 C9.85,890.48 3.63,873.93 2.00,855.00 C2.00,853.11 1.78,852.42 1.00,851.94 L1.00,845.50 C1.00,842.01 0.78,841.00 -0.00,841.00 L-0.00,183.00 C0.79,183.00 0.99,182.06 0.96,178.50 C0.57,173.18 1.85,170.12 1.99,166.75 C3.06,166.01 3.35,163.50 2.47,162.28 L3.05,160.04 C3.79,159.58 3.98,158.88 3.93,156.97 C9.51,128.21 21.17,103.85 35.47,84.09 C61.25,47.35 97.38,18.76 146.94,6.00 C148.88,6.00 149.58,5.78 150.05,5.03 C158.11,3.39 166.71,0.96 176.46,0.96 Z" fill="#1A77FC" fill-rule="nonzero"/><g><path d="M528.30,159.50 C734.71,170.54 894.35,376.89 824.52,606.75 C921.28,698.16 873.85,857.07 749.75,880.45 C684.39,891.26 635.56,863.66 605.43,830.89 C575.63,839.38 540.17,845.87 501.25,844.49 C312.90,837.83 153.01,665.57 180.05,453.25 C200.50,292.67 338.59,151.12 528.30,159.50 Z" fill="#FEFDFD" fill-rule="nonzero"/><path d="M522.29,215.50 C687.85,224.54 821.38,384.34 772.30,574.11 L771.00,574.61 C754.75,569.89 734.24,565.94 713.50,567.37 C760.29,406.78 637.28,253.67 475.75,278.52 C390.37,291.66 324.68,356.90 302.96,434.75 C258.43,599.39 397.43,752.60 563.25,713.00 C562.21,734.34 565.10,756.16 570.54,772.66 C448.00,800.37 348.07,739.48 296.67,674.25 C269.21,639.40 246.96,594.47 238.96,540.41 C212.24,359.88 351.76,208.05 522.29,215.50 Z" fill="#1A77FC" fill-rule="nonzero"/><g><path d="M736.25,584.53 C798.39,591.67 847.62,642.07 856.97,702.34 C872.48,802.40 784.33,888.07 684.25,861.96 C636.78,849.58 597.73,809.81 585.60,762.25 C560.36,663.28 639.36,573.41 736.25,584.53 Z" fill="#00AB5B" fill-rule="nonzero"/><path d="M740.49,659.75 C740.35,660.07 737.57,663.60 737.50,663.91 C733.76,680.49 780.28,663.73 784.75,676.25 C785.67,680.64 784.26,718.17 785.25,720.40 C785.97,722.02 788.75,723.24 790.81,722.50 C802.73,710.04 821.06,722.80 824.89,733.25 C833.34,756.35 810.66,775.07 794.45,767.04 C774.26,748.84 794.00,819.89 779.35,820.00 L738.40,820.00 C728.99,813.13 743.24,811.61 741.50,799.04 C735.32,774.50 691.01,777.14 693.31,805.25 C695.17,811.17 704.55,814.07 696.10,820.00 C695.65,820.13 654.85,820.05 654.65,820.00 C652.88,819.56 649.79,816.22 649.47,814.60 C650.50,804.72 646.82,771.02 651.25,766.86 C659.22,759.39 666.18,778.35 683.06,767.02 C705.93,751.68 691.31,708.73 663.75,720.20 C661.97,720.94 659.02,724.32 654.45,723.50 C652.60,723.17 649.81,720.11 649.50,718.63 C649.33,717.85 649.50,676.65 649.50,676.65 C649.92,674.98 653.26,671.72 655.10,671.35 L694.24,670.86 C701.20,666.35 695.30,662.75 693.61,658.43 C688.17,644.55 698.72,631.29 706.86,627.56 C727.53,618.08 749.31,639.16 740.49,659.75 Z" fill="#FEFDFD" fill-rule="nonzero"/></g><path d="M641.87,372.40 C643.25,373.32 676.82,408.25 676.82,408.25 C678.99,412.29 679.01,418.70 676.84,422.75 C607.89,493.02 537.13,564.96 467.25,635.60 C461.99,639.37 455.11,638.42 450.56,634.75 C415.41,598.17 379.62,561.77 344.25,525.49 C341.49,521.55 340.92,514.83 343.97,509.96 C343.97,509.96 377.18,475.80 377.73,475.40 C382.87,471.70 389.55,472.16 394.40,475.75 L458.21,541.75 L459.80,542.04 L627.25,371.65 C632.76,369.06 637.89,369.72 641.87,372.40 Z" fill="#00AB5B" fill-rule="nonzero"/></g><path d="M863.00,3.00 C861.07,3.20 859.44,2.78 858.75,2.09 C862.04,2.02 863.00,2.23 863.00,3.00 Z" fill="#FEFDFD" fill-rule="nonzero"/><path d="M2.47,162.28 C3.35,163.50 3.06,166.01 1.99,166.75 L2.47,162.28 Z" fill="#FEFDFD" fill-rule="nonzero"/><path d="M164.75,1021.94 C161.84,1021.99 161.00,1021.77 161.00,1021.00 C162.79,1020.78 164.08,1021.33 164.75,1021.94 Z" fill="#FEFDFD" fill-rule="nonzero"/><path d="M2.00,855.00 C1.23,855.00 1.00,854.31 1.00,851.94 C1.78,852.42 2.00,853.11 2.00,855.00 Z" fill="#FEFDFD" fill-rule="nonzero"/><path d="M867.97,4.10 L864.75,3.09 C867.27,3.02 867.99,3.25 867.97,4.10 Z" fill="#FEFDFD" fill-rule="nonzero"/><path d="M150.05,5.03 C149.58,5.78 148.88,6.00 146.94,6.00 C147.42,5.22 148.12,5.01 150.05,5.03 Z" fill="#FEFDFD" fill-rule="nonzero"/><path d="M3.93,156.97 C3.98,158.88 3.79,159.58 3.05,160.04 C3.01,158.12 3.21,157.43 3.93,156.97 Z" fill="#FEFDFD" fill-rule="nonzero"/><path d="M1022.00,858.44 C1022.00,860.38 1021.77,861.08 1021.00,861.56 C1021.00,859.62 1021.23,858.92 1022.00,858.44 Z" fill="#FEFDFD" fill-rule="nonzero"/><path d="M857.52,1022.10 C857.41,1023.31 855.66,1022.98 854.75,1022.51 L857.52,1022.10 Z" fill="#FEFDFD" fill-rule="nonzero"/><path d="M0.96,178.50 C0.99,182.06 0.79,183.00 -0.00,183.00 L-0.00,178.50 L0.96,178.50 Z" fill="#FEFDFD" fill-rule="nonzero"/><path d="M-0.00,845.50 L-0.00,841.00 C0.78,841.00 1.00,842.01 1.00,845.50 L-0.00,845.50 Z" fill="#FEFDFD" fill-rule="nonzero"/><path d="M176.46,0.96 L177.06,0.00 L181.00,-0.00 C181.00,0.79 180.06,0.99 176.46,0.96 Z" fill="#FEFDFD" fill-rule="nonzero"/><path d="M842.25,0.05 L846.94,0.00 L847.56,1.00 C845.57,1.15 843.20,0.85 842.25,0.05 Z" fill="#FEFDFD" fill-rule="nonzero"/><path d="M1024.00,177.06 L1024.00,180.00 C1023.23,180.00 1023.02,179.21 1023.10,176.49 L1024.00,177.06 Z" fill="#FEFDFD" fill-rule="nonzero"/><path d="M179.00,1024.00 L176.00,1024.00 L176.00,1023.00 C178.33,1023.00 179.00,1023.22 179.00,1024.00 Z" fill="#FEFDFD" fill-rule="nonzero"/><path d="M848.54,1023.04 L847.94,1024.00 L845.50,1024.00 C845.50,1023.23 846.18,1023.01 848.54,1023.04 Z" fill="#FEFDFD" fill-rule="nonzero"/><path d="M1023.00,847.00 C1023.30,845.93 1022.19,844.60 1024.00,845.00 L1024.00,847.00 L1023.00,847.00 Z" fill="#FEFDFD" fill-rule="nonzero"/></svg>
