<svg version="1.1" xmlns="http://www.w3.org/2000/svg" viewBox="0 0 1024 1024" width="1024" height="1024"><path d="M167.44,1.00 C169.82,1.00 170.50,0.78 170.50,-0.00 L854.00,-0.00 C854.00,0.78 854.67,1.00 857.00,1.00 C861.27,0.65 865.52,1.28 867.75,2.17 L872.00,3.00 L877.75,4.09 L881.07,5.10 C947.34,20.25 997.03,69.66 1016.05,131.75 C1017.87,138.38 1020.64,145.48 1021.00,153.44 C1021.00,155.38 1021.21,156.08 1021.95,156.54 L1023.12,167.49 C1023.03,169.82 1023.23,170.50 1024.00,170.50 L1024.00,853.50 C1023.22,853.50 1023.00,854.18 1023.00,856.56 C1020.63,887.74 1010.37,912.30 997.85,933.75 C983.07,958.64 963.91,978.86 939.75,994.33 C922.63,1004.87 903.86,1014.68 880.96,1018.90 L878.75,1019.89 C877.02,1019.75 874.86,1021.65 872.04,1021.03 C870.12,1021.01 869.42,1021.23 868.94,1022.00 C865.00,1022.56 862.46,1023.28 857.00,1023.02 C855.06,1023.00 854.50,1023.23 854.50,1024.00 L171.06,1024.00 C170.58,1023.23 169.89,1023.00 168.00,1023.00 C135.23,1020.44 110.64,1009.30 88.25,996.46 C53.94,975.71 26.90,943.89 11.44,903.25 C6.97,889.87 1.44,874.53 1.00,856.00 C1.00,853.67 0.78,853.00 -0.00,853.00 L-0.00,172.00 C0.78,172.00 0.99,171.13 0.96,168.00 C0.48,163.18 1.74,159.44 2.05,155.54 C2.79,155.07 3.00,154.27 3.00,151.94 C3.20,145.27 5.64,139.46 6.97,133.75 C13.41,112.20 23.90,91.09 36.03,75.25 C50.02,56.36 68.60,39.31 88.25,27.14 C110.34,14.24 135.21,3.36 167.44,1.00 Z" fill="#1C76FB" fill-rule="nonzero"/><g><path d="M871.49,674.25 C855.97,770.52 779.46,848.46 681.25,861.94 C531.95,882.45 402.99,754.32 424.03,604.44 C437.57,508.03 514.92,430.39 607.50,412.51 C764.92,382.12 896.61,518.38 871.49,674.25 Z" fill="#FEFEFD" fill-rule="nonzero"/><g><path d="M758.23,458.14 C759.35,458.85 774.13,468.94 774.48,469.75 C775.90,473.00 766.79,475.33 763.44,471.84 C758.59,452.63 728.57,460.60 726.97,477.45 L720.56,484.44 C715.93,500.19 717.24,502.00 735.15,501.50 C739.40,500.31 739.79,489.31 744.75,488.50 C754.13,486.98 750.56,514.00 733.89,513.50 C720.78,508.72 710.26,518.32 703.29,524.33 C710.67,541.93 681.99,523.18 685.76,546.25 C697.95,576.29 715.06,544.56 721.75,543.00 C729.82,541.13 731.84,554.02 738.47,554.50 C749.13,555.28 734.28,541.57 742.98,540.96 C749.16,540.52 751.62,549.88 757.25,549.08 C770.99,540.72 795.83,554.73 778.34,567.95 C779.47,570.73 781.29,573.50 781.62,577.00 C774.75,574.83 766.61,570.28 758.25,570.42 C728.44,576.32 748.87,555.72 706.25,563.06 C680.73,567.46 685.57,573.95 676.41,594.25 C672.44,603.06 667.27,605.57 670.52,620.45 C672.02,627.30 678.51,641.19 683.00,644.41 C692.07,650.91 710.22,639.64 722.93,645.44 C733.01,650.04 726.09,658.30 731.54,668.17 C732.46,669.84 735.55,673.06 736.50,674.87 C743.71,688.56 731.78,692.93 736.09,708.25 C749.57,728.81 740.37,772.05 776.25,741.85 C786.29,733.40 782.67,727.65 788.63,715.91 C791.40,710.44 804.16,696.05 804.99,691.75 C806.07,686.13 802.87,678.89 803.56,672.75 C805.47,655.63 828.50,643.75 830.00,634.80 C831.56,625.55 822.89,630.53 817.50,628.37 C813.63,623.64 807.17,623.61 803.47,617.99 C799.85,606.07 787.76,602.07 787.00,587.00 L788.30,587.00 C795.93,597.68 807.63,606.08 813.25,618.14 C826.28,629.28 862.86,593.80 830.15,593.16 C815.21,587.17 813.38,571.44 832.25,584.90 C852.60,586.46 852.72,597.64 854.49,616.75 C867.18,754.16 746.98,871.05 604.25,839.95 C514.63,820.42 428.59,730.66 442.57,611.75 C443.08,607.40 446.20,588.98 448.01,585.79 C450.64,581.16 455.59,601.61 456.63,604.25 C464.85,625.23 479.84,616.09 487.10,623.14 C488.67,624.66 489.84,628.48 492.30,629.97 C493.38,630.63 495.59,630.87 496.66,631.51 C498.98,632.90 500.58,637.54 503.25,639.59 C508.69,643.77 519.88,639.88 521.00,647.97 C522.39,658.03 506.94,658.24 513.55,678.75 C520.27,699.62 538.28,705.23 542.45,718.25 C547.66,734.47 540.68,740.44 542.92,754.25 C543.48,757.73 545.52,761.74 546.09,765.25 C548.18,777.94 539.01,779.93 547.84,794.75 C549.94,798.26 558.33,808.25 562.20,809.00 C568.14,810.16 564.39,802.83 564.44,799.83 C564.52,795.34 568.20,791.00 569.13,786.75 C568.73,769.89 572.22,769.55 580.89,761.75 C582.33,752.96 590.02,750.44 593.01,743.54 C595.19,718.58 619.31,738.67 616.50,702.57 C617.44,697.14 626.03,691.16 624.50,681.82 C622.51,669.65 593.61,669.71 588.40,664.25 C584.60,656.41 584.58,653.22 573.54,651.40 C565.70,648.14 565.12,638.59 552.75,635.91 C550.21,635.36 543.17,635.78 540.04,635.05 C536.13,634.14 534.11,631.05 528.17,632.00 C506.35,642.13 507.92,623.27 504.98,620.50 C491.28,615.88 502.12,608.64 496.99,605.52 C493.96,603.67 490.84,607.40 488.40,607.56 C479.99,608.08 477.46,586.54 494.34,582.07 C510.23,577.87 510.66,588.10 513.29,589.25 C519.40,591.93 519.17,582.00 520.58,578.25 C523.84,569.63 541.17,565.00 547.07,557.25 C550.16,550.05 552.56,547.15 562.05,545.41 L572.75,534.73 C591.79,528.84 588.31,518.94 576.49,509.12 C573.21,499.42 564.38,487.13 554.59,499.47 C549.81,528.21 518.46,500.46 547.25,483.64 C560.63,475.82 560.97,485.51 566.27,484.58 C589.43,470.29 566.83,473.19 567.36,453.75 C566.68,451.09 562.47,448.83 563.50,447.15 C628.16,416.01 703.34,423.61 758.23,458.14 Z" fill="#1C76FB" fill-rule="nonzero"/><path d="M608.53,436.00 C614.78,439.26 621.21,443.77 631.08,442.75 C639.60,457.78 633.06,456.88 628.11,468.75 C621.45,473.92 610.48,476.45 607.12,483.75 C598.29,502.86 595.45,481.36 592.37,473.75 C583.17,451.06 565.53,456.50 599.75,438.85 C601.28,438.06 604.30,435.30 608.53,436.00 Z" fill="#FEFEFD" fill-rule="nonzero"/></g><path d="M554.25,451.59 L555.53,451.50 C555.26,460.51 553.27,468.51 544.75,468.49 C525.79,462.95 549.41,455.57 554.25,451.59 Z" fill="#1C76FB" fill-rule="nonzero"/></g><path d="M641.57,193.03 C703.19,228.86 702.05,279.96 639.75,314.61 C534.81,372.99 296.88,372.99 193.72,313.15 C130.46,276.45 136.38,225.38 197.25,191.47 C298.78,134.90 541.06,134.58 641.57,193.03 Z" fill="#FEFEFD" fill-rule="nonzero"/><path d="M148.50,297.00 L149.32,297.00 C159.80,332.25 213.40,355.93 249.23,367.54 C365.04,405.06 546.96,397.37 639.75,345.05 C659.50,333.20 679.04,320.25 686.93,296.75 L687.00,388.63 C563.19,371.08 472.51,441.22 430.97,515.85 C386.21,517.81 340.43,513.53 303.25,506.52 C246.66,495.86 153.29,466.38 148.50,408.25 L148.50,297.00 Z" fill="#FEFEFD" fill-rule="nonzero"/><path d="M148.47,603.50 L149.50,603.50 C155.27,626.86 185.23,646.66 203.75,656.92 C257.89,686.19 327.55,701.07 407.83,703.68 C420.64,751.19 445.36,788.65 475.99,818.75 L476.00,819.94 C397.90,830.07 309.27,820.70 249.25,801.09 C211.62,788.79 154.66,762.32 148.79,720.25 L148.47,603.50 Z" fill="#FEFEFD" fill-rule="nonzero"/><path d="M148.50,448.30 C165.06,495.89 246.02,524.22 300.25,535.44 C335.28,542.62 373.82,546.78 415.50,547.20 C403.89,579.69 394.32,626.63 401.62,670.50 C309.57,671.34 154.74,638.90 148.50,563.25 L148.50,448.30 Z" fill="#FEFEFD" fill-rule="nonzero"/><path d="M872.00,3.00 L867.75,2.17 C871.04,2.04 872.00,2.22 872.00,3.00 Z" fill="#FEFEFD" fill-rule="nonzero"/><path d="M3.00,151.94 C3.00,154.27 2.79,155.07 2.05,155.54 C2.01,153.23 2.22,152.42 3.00,151.94 Z" fill="#FEFEFD" fill-rule="nonzero"/><path d="M1021.95,156.54 C1021.21,156.08 1021.00,155.38 1021.00,153.44 C1021.77,153.92 1021.99,154.62 1021.95,156.54 Z" fill="#FEFEFD" fill-rule="nonzero"/><path d="M872.04,1021.03 C871.58,1021.78 870.88,1022.00 868.94,1022.00 C869.42,1021.23 870.12,1021.01 872.04,1021.03 Z" fill="#FEFEFD" fill-rule="nonzero"/><path d="M881.07,5.10 L877.75,4.09 C879.84,4.02 880.58,4.25 881.07,5.10 Z" fill="#FEFEFD" fill-rule="nonzero"/><path d="M880.96,1018.90 C881.60,1020.71 879.71,1019.88 878.75,1019.89 L880.96,1018.90 Z" fill="#FEFEFD" fill-rule="nonzero"/><path d="M0.96,168.00 C0.99,171.13 0.78,172.00 -0.00,172.00 L-0.00,168.00 L0.96,168.00 Z" fill="#FEFEFD" fill-rule="nonzero"/><path d="M854.00,-0.00 L857.00,-0.00 L857.00,1.00 C854.67,1.00 854.00,0.78 854.00,-0.00 Z" fill="#FEFEFD" fill-rule="nonzero"/><path d="M1024.00,167.50 L1024.00,170.50 C1023.23,170.50 1023.03,169.82 1023.12,167.49 L1024.00,167.50 Z" fill="#FEFEFD" fill-rule="nonzero"/><path d="M-0.00,856.00 L-0.00,853.00 C0.78,853.00 1.00,853.67 1.00,856.00 L-0.00,856.00 Z" fill="#FEFEFD" fill-rule="nonzero"/><path d="M167.44,1.00 L168.06,-0.00 L170.50,-0.00 C170.50,0.78 169.82,1.00 167.44,1.00 Z" fill="#FEFEFD" fill-rule="nonzero"/><path d="M1023.00,856.56 C1023.00,854.18 1023.22,853.50 1024.00,853.50 L1024.00,855.94 L1023.00,856.56 Z" fill="#FEFEFD" fill-rule="nonzero"/><path d="M171.06,1024.00 L168.00,1024.00 L168.00,1023.00 C169.89,1023.00 170.58,1023.23 171.06,1024.00 Z" fill="#FEFEFD" fill-rule="nonzero"/><path d="M857.00,1023.02 L857.00,1024.00 L854.50,1024.00 C854.50,1023.23 855.06,1023.00 857.00,1023.02 Z" fill="#FEFEFD" fill-rule="nonzero"/></svg>
