<svg version="1.1" xmlns="http://www.w3.org/2000/svg" viewBox="0 0 1024 1024" width="1024" height="1024"><path d="M169.44,1.00 C172.15,1.00 173.08,0.77 173.56,-0.00 L849.94,0.00 C850.42,0.78 851.33,1.00 854.00,1.00 L860.25,1.00 C928.86,12.32 977.08,51.57 1005.00,106.09 C1013.13,124.14 1020.94,144.19 1023.09,168.48 C1023.02,171.21 1023.23,172.00 1024.00,172.00 L1024.00,852.00 C1023.23,852.00 1023.01,852.56 1023.05,854.50 C1023.00,860.16 1021.63,865.63 1020.92,870.75 L1019.90,873.97 C1010.89,918.95 986.94,952.93 958.75,977.80 C941.20,993.27 920.50,1005.71 895.99,1014.01 L893.75,1014.92 L893.25,1014.92 C889.72,1015.93 886.07,1017.93 881.96,1017.90 L879.75,1018.90 C878.34,1018.80 876.67,1020.63 874.00,1020.03 C872.50,1020.01 871.92,1020.23 871.44,1021.00 L869.00,1021.00 C867.11,1021.00 866.42,1021.23 865.94,1022.00 C862.43,1022.79 857.91,1022.91 854.09,1023.32 C854.43,1023.19 850.77,1022.15 851.50,1024.00 L172.50,1024.00 C172.50,1023.22 171.83,1023.00 169.50,1023.00 C135.57,1020.03 110.01,1008.51 87.25,994.35 C55.22,973.78 28.98,943.58 13.35,905.25 C9.94,896.89 5.63,885.03 4.10,873.97 L3.15,870.75 C2.04,866.51 0.79,860.38 1.00,854.00 C1.00,851.67 0.78,851.00 -0.00,851.00 L-0.00,174.50 C0.78,174.50 1.00,173.63 0.98,170.50 C0.41,165.90 1.85,162.68 2.02,159.05 C3.51,158.87 2.96,156.64 2.49,155.75 L3.05,153.04 C3.79,152.58 3.99,152.00 3.95,150.46 C14.83,97.95 44.28,60.51 80.34,34.25 C104.42,17.68 132.55,4.34 169.44,1.00 Z" fill="#1977FC" fill-rule="nonzero"/><g><path d="M648.75,451.51 C650.11,451.25 684.44,451.25 686.25,451.51 C697.18,453.08 696.91,462.60 699.47,471.25 C700.60,475.10 707.62,500.87 708.25,501.35 C713.10,501.53 735.96,513.13 736.90,513.00 C737.47,512.92 772.23,490.84 773.75,490.52 C773.80,490.51 778.15,490.34 779.04,490.50 C782.63,491.16 810.42,518.40 811.52,521.98 C811.77,522.80 812.13,525.90 812.10,526.26 C811.71,532.69 790.53,564.99 791.00,568.39 C794.76,575.50 798.35,584.01 800.90,592.10 C802.71,594.66 839.86,601.65 844.75,605.41 C846.39,606.67 848.61,609.74 849.00,611.97 C849.03,612.15 849.00,652.54 849.00,652.54 C845.68,661.04 839.46,660.94 830.75,663.59 C828.80,664.18 801.18,671.90 801.02,672.06 C798.48,680.91 794.63,689.79 790.52,697.20 L811.75,735.75 C812.38,739.14 811.77,742.71 809.89,745.75 C809.89,745.75 783.26,772.47 782.52,772.96 C781.10,774.00 777.06,775.23 775.24,775.08 C770.30,774.66 737.68,751.76 735.25,751.96 C727.17,756.61 717.20,760.45 707.80,763.33 L695.96,805.54 C694.94,807.46 690.88,810.95 688.25,811.48 L647.99,811.50 C639.97,809.39 639.17,801.46 637.10,794.75 C635.89,790.86 628.68,763.59 628.11,763.19 C618.27,760.71 609.51,756.69 601.52,752.50 C597.02,751.99 566.15,775.73 559.59,775.60 C559.31,775.59 554.14,774.01 554.14,774.01 C549.56,768.73 525.76,748.22 524.51,742.75 C524.49,742.67 524.33,737.79 524.50,736.89 C524.78,735.42 545.03,699.33 545.08,697.85 C541.52,690.50 537.23,681.95 534.90,673.02 C527.23,669.90 494.25,663.00 489.98,658.94 C489.98,658.94 487.32,655.06 487.25,654.82 L486.97,612.52 C487.31,601.08 532.16,597.26 534.84,592.75 C537.39,584.17 540.77,576.14 544.50,569.03 C543.49,558.51 519.03,531.56 525.01,521.11 C525.06,521.02 552.27,493.53 553.25,492.85 C554.35,492.07 558.37,490.33 562.04,491.00 C566.26,491.77 597.39,512.93 601.13,512.50 C608.49,507.88 619.05,504.13 628.22,501.13 L640.10,457.89 C641.05,455.97 645.82,452.08 648.75,451.51 Z" fill="#FEFEFE" fill-rule="nonzero"/><path d="M735.37,616.25 C748.84,677.05 684.90,720.95 633.25,691.89 C589.60,667.33 586.64,603.09 629.25,575.15 C673.14,546.38 726.15,574.63 735.37,616.25 Z" fill="#1977FC" fill-rule="nonzero"/></g><path d="M634.75,238.63 C708.45,268.20 706.82,314.87 634.75,346.08 C538.40,387.82 348.41,387.16 253.25,343.90 C188.56,314.48 184.68,270.89 253.11,240.96 C343.90,201.26 540.76,200.91 634.75,238.63 Z" fill="#FEFEFE" fill-rule="nonzero"/><path d="M689.50,333.06 C689.20,364.29 690.18,398.13 688.84,428.50 L647.16,428.50 C617.20,433.54 617.12,457.92 608.11,482.59 L600.36,485.96 C581.58,476.43 562.80,456.75 538.25,474.85 C527.03,487.28 512.57,498.26 503.75,511.95 C425.99,519.16 343.37,511.01 285.25,491.56 C256.54,481.96 206.85,459.91 203.50,427.55 L203.50,333.50 L204.50,333.50 C283.09,419.41 599.66,418.67 682.28,340.09 C683.25,339.17 688.76,331.15 689.50,333.06 Z" fill="#FEFEFE" fill-rule="nonzero"/><path d="M203.54,599.25 C239.31,650.38 343.35,670.90 429.80,672.64 C434.58,672.73 471.30,672.09 471.55,672.17 C480.10,683.77 499.92,685.96 515.67,691.25 L519.02,698.49 C490.76,747.21 497.79,751.61 533.00,785.81 L533.00,786.95 C430.92,801.75 300.77,790.08 237.75,747.36 C225.12,738.80 206.80,721.87 203.76,702.75 L203.54,599.25 Z" fill="#FEFEFE" fill-rule="nonzero"/><path d="M203.55,464.75 C221.84,488.84 251.95,502.20 283.57,512.98 C342.40,532.47 424.25,540.71 501.60,534.75 C505.51,546.94 512.94,556.95 518.52,567.68 L515.58,574.72 C490.27,581.87 466.58,584.02 463.52,614.75 L463.50,650.50 C403.82,651.89 350.41,646.98 304.75,634.45 C265.51,622.73 212.68,603.34 203.50,561.84 L203.55,464.75 Z" fill="#FEFEFE" fill-rule="nonzero"/><path d="M869.00,1021.00 C869.00,1021.77 868.31,1022.00 865.94,1022.00 C866.42,1021.23 867.11,1021.00 869.00,1021.00 Z" fill="#FEFEFE" fill-rule="nonzero"/><path d="M2.49,155.75 C2.96,156.64 3.51,158.87 2.02,159.05 L2.49,155.75 Z" fill="#FEFEFE" fill-rule="nonzero"/><path d="M4.10,873.97 C3.25,873.99 3.03,873.27 3.15,870.75 L4.10,873.97 Z" fill="#FEFEFE" fill-rule="nonzero"/><path d="M1020.92,870.75 C1020.98,873.27 1020.75,873.99 1019.90,873.97 L1020.92,870.75 Z" fill="#FEFEFE" fill-rule="nonzero"/><path d="M874.00,1020.03 C874.00,1020.78 873.42,1021.00 871.44,1021.00 C871.92,1020.23 872.50,1020.01 874.00,1020.03 Z" fill="#FEFEFE" fill-rule="nonzero"/><path d="M3.95,150.46 C3.99,152.00 3.79,152.58 3.05,153.04 C3.01,151.50 3.21,150.93 3.95,150.46 Z" fill="#FEFEFE" fill-rule="nonzero"/><path d="M895.99,1014.01 C896.00,1014.78 895.49,1014.98 893.75,1014.92 L895.99,1014.01 Z" fill="#FEFEFE" fill-rule="nonzero"/><path d="M881.96,1017.90 C882.60,1019.71 880.72,1018.88 879.75,1018.90 L881.96,1017.90 Z" fill="#FEFEFE" fill-rule="nonzero"/><path d="M0.98,170.50 C1.00,173.63 0.78,174.50 -0.00,174.50 L-0.00,170.50 L0.98,170.50 Z" fill="#FEFEFE" fill-rule="nonzero"/><path d="M849.94,0.00 L854.00,-0.00 L854.00,1.00 C851.33,1.00 850.42,0.78 849.94,0.00 Z" fill="#FEFEFE" fill-rule="nonzero"/><path d="M169.44,1.00 L170.06,-0.00 L173.56,-0.00 C173.08,0.77 172.15,1.00 169.44,1.00 Z" fill="#FEFEFE" fill-rule="nonzero"/><path d="M1024.00,169.06 L1024.00,172.00 C1023.23,172.00 1023.02,171.21 1023.09,168.48 L1024.00,169.06 Z" fill="#FEFEFE" fill-rule="nonzero"/><path d="M-0.00,854.00 L-0.00,851.00 C0.78,851.00 1.00,851.67 1.00,854.00 L-0.00,854.00 Z" fill="#FEFEFE" fill-rule="nonzero"/><path d="M172.50,1024.00 L169.50,1024.00 L169.50,1023.00 C171.83,1023.00 172.50,1023.22 172.50,1024.00 Z" fill="#FEFEFE" fill-rule="nonzero"/><path d="M1023.05,854.50 C1023.01,852.56 1023.23,852.00 1024.00,852.00 L1024.00,854.50 L1023.05,854.50 Z" fill="#FEFEFE" fill-rule="nonzero"/><path d="M854.09,1023.32 L854.00,1024.00 L851.50,1024.00 C850.77,1022.15 854.43,1023.19 854.09,1023.32 Z" fill="#FEFEFE" fill-rule="nonzero"/></svg>
