<svg version="1.1" xmlns="http://www.w3.org/2000/svg" viewBox="0 0 1010 1010" style="width: 100%; height: 100%;"><path d="M131.50,1.00 C133.83,1.00 134.50,0.78 134.50,-0.00 L875.50,-0.00 C875.50,0.78 876.06,1.00 878.00,1.00 C948.14,10.02 1000.07,62.54 1009.04,132.46 C1009.01,135.22 1009.22,136.00 1010.00,136.00 L1010.00,878.00 C1001.65,930.50 974.13,965.66 937.75,988.88 C925.56,996.30 910.44,1002.67 895.75,1006.41 C889.09,1007.49 885.31,1009.28 878.00,1009.00 C875.25,1009.00 874.50,1009.21 874.50,1010.00 L135.00,1010.00 C135.00,1009.23 134.32,1009.01 132.00,1009.06 C104.69,1006.63 82.62,995.76 65.75,984.25 C54.19,976.01 43.60,967.19 34.86,956.25 C18.78,936.50 4.17,911.45 1.00,877.50 C1.00,875.17 0.78,874.50 -0.00,874.50 L-0.00,135.00 C2.33,135.73 0.14,131.55 0.75,132.01 C2.57,112.46 9.18,94.58 16.95,80.25 C31.92,51.80 55.40,28.90 85.25,14.39 C97.61,8.38 113.22,2.31 131.50,1.00 Z" fill="#3382FB" fill-rule="nonzero"/><g><path d="M583.51,154.97 L583.51,295.25 C587.79,330.23 608.74,349.16 643.25,354.34 L774.50,354.57 L774.50,478.50 L717.50,478.50 C719.90,446.15 700.60,424.69 673.33,422.50 L584.75,422.59 C555.58,425.89 539.09,444.99 540.03,478.50 L472.23,478.50 C461.08,480.53 454.62,487.12 451.25,497.25 C448.95,513.65 454.17,527.16 467.25,530.49 L789.75,530.50 C794.67,529.41 798.29,526.50 801.44,523.75 L801.50,552.00 C691.22,552.64 577.90,550.71 469.51,552.97 L491.30,837.04 L308.25,836.94 C270.96,830.17 248.12,807.84 242.51,770.75 C239.90,591.97 242.51,409.31 242.08,229.25 C243.73,187.77 270.83,158.72 311.25,154.97 L583.51,154.97 Z" fill="#FEFEFD" fill-rule="nonzero"/><g><path d="M801.50,552.00 C802.07,566.57 800.89,580.40 799.99,593.25 L782.43,841.25 C777.60,860.73 764.43,872.69 741.25,874.05 L526.25,873.71 C506.36,869.65 494.60,857.32 491.30,837.04 L469.51,552.97 C577.90,550.71 691.22,552.64 801.50,552.00 Z" fill="#FB3F40" fill-rule="nonzero"/><path d="M730.66,628.51 L721.58,790.25 C717.00,808.13 694.40,808.85 689.35,790.75 C690.91,739.22 695.20,683.86 697.54,630.75 C698.32,608.55 727.36,605.88 730.66,628.51 Z" fill="#FEFEFD" fill-rule="nonzero"/><path d="M653.51,627.29 L653.25,790.75 C646.64,811.33 620.49,807.07 620.50,783.93 C620.90,732.15 619.63,675.26 621.29,625.75 C626.93,607.32 650.04,609.31 653.51,627.29 Z" fill="#FEFEFD" fill-rule="nonzero"/><path d="M576.99,632.25 L585.11,784.25 C586.46,807.25 558.67,810.88 552.85,790.82 C550.05,737.55 545.83,678.99 544.25,625.75 C550.66,605.18 577.45,610.67 576.99,632.25 Z" fill="#FEFEFD" fill-rule="nonzero"/></g><g><path d="M774.50,478.50 C804.00,473.88 814.55,503.49 801.44,523.75 C798.29,526.50 794.67,529.41 789.75,530.50 L467.25,530.49 C454.17,527.16 448.95,513.65 451.25,497.25 C454.62,487.12 461.08,480.53 472.23,478.50 L540.03,478.50 C539.09,444.99 555.58,425.89 584.75,422.59 L673.33,422.50 C700.60,424.69 719.90,446.15 717.50,478.50 L774.50,478.50 Z" fill="#FB3F40" fill-rule="nonzero"/><path d="M582.25,454.51 L675.25,454.51 C684.59,457.61 687.96,465.66 686.25,478.25 L571.50,478.50 C570.69,464.40 572.35,458.17 582.25,454.51 Z" fill="#FEFEFD" fill-rule="nonzero"/></g><path d="M774.50,354.57 L643.25,354.34 C608.74,349.16 587.79,330.23 583.51,295.25 L583.51,154.97 L585.74,155.68 L772.54,342.54 C776.13,347.80 773.72,347.79 774.50,354.57 Z" fill="#B9D3FB" fill-rule="nonzero"/></g><path d="M878.00,1009.00 L878.00,1010.00 L874.50,1010.00 C874.50,1009.21 875.25,1009.00 878.00,1009.00 Z" fill="#B9D3FB" fill-rule="nonzero"/><path d="M1010.00,133.06 L1010.00,136.00 C1009.22,136.00 1009.01,135.22 1009.04,132.46 L1010.00,133.06 Z" fill="#B9D3FB" fill-rule="nonzero"/><path d="M131.50,1.00 L131.50,-0.00 L134.50,-0.00 C134.50,0.78 133.83,1.00 131.50,1.00 Z" fill="#B9D3FB" fill-rule="nonzero"/><path d="M-0.00,877.50 L-0.00,874.50 C0.78,874.50 1.00,875.17 1.00,877.50 L-0.00,877.50 Z" fill="#B9D3FB" fill-rule="nonzero"/><path d="M135.00,1010.00 L132.00,1010.00 L132.00,1009.06 C134.32,1009.01 135.00,1009.23 135.00,1010.00 Z" fill="#B9D3FB" fill-rule="nonzero"/><path d="M0.75,132.01 C0.14,131.55 2.33,135.73 -0.00,135.00 L-0.00,132.00 L0.75,132.01 Z" fill="#B9D3FB" fill-rule="nonzero"/><path d="M875.50,-0.00 L878.00,-0.00 L878.00,1.00 C876.06,1.00 875.50,0.78 875.50,-0.00 Z" fill="#B9D3FB" fill-rule="nonzero"/></svg>
