<svg version="1.1" xmlns="http://www.w3.org/2000/svg" viewBox="0 0 1024 1024" width="1024" height="1024"><path d="M198.00,1.00 C200.75,1.00 201.50,0.79 201.50,-0.00 L204.50,-0.00 C203.55,1.89 209.39,0.99 208.56,-0.00 L820.50,-0.00 C820.50,0.79 821.25,1.00 824.00,1.00 C832.43,1.00 834.00,1.17 834.00,1.54 C834.00,1.84 834.39,2.09 835.75,2.09 L840.99,3.07 L841.75,3.08 L846.08,4.07 L847.75,4.09 L851.07,5.10 C864.26,6.85 876.93,11.88 887.89,16.07 C954.32,45.37 1001.36,96.90 1019.13,174.98 C1018.59,176.29 1019.39,178.22 1019.93,178.75 C1020.24,180.40 1021.63,183.85 1020.92,187.01 L1021.90,192.75 L1021.92,195.40 L1022.89,205.25 L1023.00,207.50 L1023.02,816.00 C1023.19,822.36 1022.71,827.16 1021.96,831.25 C1021.43,832.33 1020.31,835.44 1021.64,836.64 C1010.96,899.12 979.83,946.05 939.12,977.75 C917.31,994.19 892.25,1008.42 861.97,1015.90 L858.75,1016.91 L857.97,1016.90 L854.75,1017.91 L854.06,1018.00 C852.49,1017.81 850.86,1018.22 850.25,1018.99 L849.00,1019.00 C847.22,1018.83 845.92,1019.24 845.25,1020.01 C842.49,1021.18 836.14,1021.47 832.03,1022.09 L827.25,1022.55 L820.50,1023.04 C817.01,1023.01 816.00,1023.23 816.00,1024.00 L814.56,1024.00 C815.54,1022.96 808.89,1022.16 810.00,1024.00 L808.56,1024.00 C808.04,1023.17 707.42,1023.00 508.00,1023.00 C308.58,1023.00 207.96,1023.17 207.44,1024.00 L206.50,1024.00 C206.50,1023.23 205.71,1023.00 203.00,1023.00 L199.25,1022.90 L194.75,1022.67 L190.75,1021.97 C190.13,1021.68 186.58,1020.42 186.25,1021.60 C126.45,1012.06 82.84,983.44 50.50,945.75 C26.14,916.21 4.88,877.54 1.00,828.56 C1.00,826.18 0.78,825.50 -0.00,825.50 L0.08,201.25 C0.76,199.67 1.20,196.55 0.96,194.00 L2.10,183.25 L3.09,179.02 C7.19,149.69 19.13,124.62 31.34,104.25 C56.02,64.01 91.65,33.69 137.75,14.92 C154.65,8.54 174.72,2.15 198.00,1.00 Z" fill="#2075FC" fill-rule="nonzero"/><g><path d="M723.75,205.58 C762.32,205.57 806.57,205.18 844.25,205.80 C874.92,212.02 893.05,232.39 896.56,264.75 C896.21,435.15 896.96,609.08 896.19,777.75 C894.84,800.95 884.23,815.18 862.75,818.05 C812.28,820.20 756.74,818.21 704.25,818.46 C681.45,816.85 669.73,804.44 667.32,781.25 C666.53,612.07 667.30,437.65 666.93,266.75 C669.54,232.81 690.93,209.88 723.75,205.58 Z" fill="#F04B30" fill-rule="nonzero"/><path d="M785.31,463.49 C789.13,465.68 800.32,494.93 801.74,495.97 C807.61,497.19 834.35,499.24 837.54,502.05 C838.69,503.05 840.44,507.51 839.54,510.75 L814.39,535.36 C814.39,535.36 819.80,561.51 819.99,564.75 C821.50,590.97 788.30,558.76 780.82,559.50 C779.95,559.59 753.35,575.30 751.27,575.60 C747.08,576.20 742.64,571.89 742.36,568.00 C742.20,565.75 748.86,537.88 748.00,534.75 L723.46,510.75 C721.30,498.05 735.15,499.91 744.25,498.45 C744.70,498.38 761.55,496.00 761.55,496.00 C763.30,492.11 775.14,465.75 776.71,464.36 C778.35,462.89 782.79,462.05 785.31,463.49 Z" fill="#FDFCFB" fill-rule="nonzero"/><path d="M786.42,617.48 C788.90,619.58 799.47,646.52 801.47,648.75 C802.96,650.42 828.16,652.15 833.25,653.53 C855.37,659.56 815.13,683.44 814.58,688.76 C814.54,689.24 820.80,720.51 820.64,722.02 C815.68,740.25 789.03,711.88 780.38,713.00 C779.98,713.05 753.35,728.29 752.16,728.50 C747.36,729.33 743.63,726.67 743.00,723.55 C742.03,718.75 748.84,689.16 748.55,688.25 C745.06,684.41 724.15,666.46 723.50,663.05 C722.92,659.99 724.19,656.61 725.53,655.43 C728.96,652.42 759.65,650.56 761.56,649.25 C764.10,644.64 774.34,620.24 776.75,617.84 C778.60,615.99 783.57,615.07 786.42,617.48 Z" fill="#FDFCFB" fill-rule="nonzero"/><path d="M788.35,314.25 C790.64,318.00 800.67,342.82 802.01,343.36 C808.06,344.26 834.08,346.61 837.06,348.65 C839.31,350.19 840.82,354.77 839.00,358.25 C837.97,360.24 814.61,381.48 814.48,382.25 C815.42,387.29 820.99,413.26 820.00,417.25 C819.47,419.36 815.83,422.44 813.41,422.59 C810.48,422.77 783.49,406.62 782.04,406.50 C775.46,405.96 742.30,436.40 743.00,412.75 C743.09,409.63 748.46,383.75 748.38,382.75 C748.19,380.36 724.41,361.17 723.50,356.77 C722.50,351.93 725.77,348.59 728.96,347.65 L761.60,343.25 C762.50,342.63 774.07,313.57 777.75,310.87 C782.11,307.68 786.39,311.02 788.35,314.25 Z" fill="#FDFCFB" fill-rule="nonzero"/></g><g><path d="M466.00,358.84 L563.00,358.84 C599.30,358.44 624.64,385.06 625.71,420.25 L625.84,484.25 L625.83,485.00 L625.89,753.25 C628.65,792.12 618.00,817.77 581.50,818.65 L572.50,818.65 L564.00,818.67 L446.75,818.71 C414.65,819.82 398.41,803.50 396.55,774.75 L396.52,417.25 C399.23,383.54 426.14,355.76 466.00,358.84 Z" fill="#FEB700" fill-rule="nonzero"/><path d="M516.94,466.25 C519.14,469.31 529.94,495.44 530.64,496.02 L564.07,500.70 C566.37,501.47 569.67,504.48 569.00,509.10 C568.35,513.58 544.39,533.56 543.86,535.25 C544.15,539.80 550.33,566.25 549.50,570.13 C549.13,571.86 545.63,575.25 543.33,575.61 C538.65,576.33 514.09,559.93 511.34,559.50 C508.27,559.02 483.28,576.33 478.14,575.61 C476.12,575.33 472.98,572.61 472.37,570.91 C470.70,566.24 478.20,537.87 477.63,535.26 C474.57,531.24 453.19,513.40 452.50,509.57 C451.72,505.21 454.97,501.37 456.89,500.66 C461.51,499.89 490.01,496.63 490.88,495.75 C491.39,495.23 503.18,467.85 504.90,465.75 C508.92,460.84 514.09,462.29 516.94,466.25 Z" fill="#FDFCFB" fill-rule="nonzero"/><path d="M515.25,617.36 C518.47,619.93 529.53,648.62 531.25,649.42 C535.06,651.20 563.63,652.01 567.14,655.75 C568.09,656.76 569.46,659.85 569.00,662.55 C568.38,666.18 544.10,687.34 543.86,688.45 C544.41,693.96 550.46,719.93 549.49,723.75 C548.77,726.61 544.67,729.41 539.96,728.50 C538.99,728.31 512.60,713.13 511.78,713.00 C505.30,711.94 475.14,739.55 472.00,723.05 C471.24,719.08 478.25,690.22 477.50,688.13 L454.25,665.87 C450.48,661.46 453.14,656.12 457.30,653.96 L490.25,649.47 C492.02,648.70 503.84,619.35 505.91,617.67 C508.59,615.49 513.28,615.79 515.25,617.36 Z" fill="#FDFCFB" fill-rule="nonzero"/></g><g><path d="M311.31,818.75 L170.50,818.67 C144.75,817.87 131.35,804.03 126.75,781.75 L126.44,569.75 C129.45,538.18 147.93,519.57 176.25,512.25 C216.40,511.82 264.59,511.87 304.75,512.25 C333.80,519.06 351.62,537.56 355.50,569.23 L355.45,776.75 C352.63,802.08 338.57,817.52 311.31,818.75 Z" fill="#8ACA4C" fill-rule="nonzero"/><path d="M260.75,649.36 C269.74,652.43 306.63,649.39 297.43,664.98 L273.41,688.25 C273.11,689.15 279.86,720.03 279.05,723.25 C278.33,726.16 274.33,729.24 269.81,728.50 C268.22,728.24 241.90,712.42 239.87,712.50 C239.39,712.52 212.03,728.19 210.03,728.50 C206.35,729.07 202.09,726.04 201.50,723.92 C200.52,720.43 207.34,689.67 207.08,688.33 L182.37,664.25 C180.93,654.60 184.94,654.38 192.67,652.95 C195.47,652.43 219.06,649.78 220.13,649.29 C222.48,645.50 232.79,620.21 235.05,617.95 C247.92,605.09 256.23,647.81 260.75,649.36 Z" fill="#FDFCFB" fill-rule="nonzero"/></g><path d="M625.83,485.00 L625.89,753.25 L625.83,485.00 Z" fill="#FDFCFB" fill-rule="nonzero"/><path d="M311.31,818.75 L170.50,818.67 L311.31,818.75 Z" fill="#FDFCFB" fill-rule="nonzero"/><path d="M564.00,818.67 L446.75,818.71 L564.00,818.67 Z" fill="#FDFCFB" fill-rule="nonzero"/><path d="M466.00,358.84 L563.00,358.84 L466.00,358.84 Z" fill="#65ABF8" fill-rule="nonzero"/><path d="M625.84,484.25 L625.71,420.25 L625.84,484.25 Z" fill="#FDFCFB" fill-rule="nonzero"/><path d="M1022.89,205.25 L1021.92,195.40 C1023.86,195.60 1022.80,203.04 1022.89,205.25 Z" fill="#65ABF8" fill-rule="nonzero"/><path d="M581.50,818.65 L572.50,818.65 L581.50,818.65 Z" fill="#65ABF8" fill-rule="nonzero"/><path d="M1021.90,192.75 L1020.92,187.01 C1021.79,187.00 1021.98,188.12 1021.90,192.75 Z" fill="#65ABF8" fill-rule="nonzero"/><path d="M832.03,1022.09 C832.01,1023.58 828.13,1022.97 827.25,1022.55 L832.03,1022.09 Z" fill="#65ABF8" fill-rule="nonzero"/><path d="M840.99,3.07 L835.75,2.09 C839.93,2.02 841.00,2.22 840.99,3.07 Z" fill="#65ABF8" fill-rule="nonzero"/><path d="M1021.96,831.25 L1021.64,836.64 C1020.31,835.44 1021.43,832.33 1021.96,831.25 Z" fill="#65ABF8" fill-rule="nonzero"/><path d="M3.09,179.02 L2.10,183.25 C2.02,179.89 2.23,179.00 3.09,179.02 Z" fill="#65ABF8" fill-rule="nonzero"/><path d="M849.00,1019.00 C849.00,1019.77 848.16,1020.00 845.25,1020.01 C845.92,1019.24 847.22,1018.83 849.00,1019.00 Z" fill="#65ABF8" fill-rule="nonzero"/><path d="M846.08,4.07 L841.75,3.08 C843.19,3.02 846.06,2.54 846.08,4.07 Z" fill="#65ABF8" fill-rule="nonzero"/><path d="M1019.93,178.75 C1019.39,178.22 1018.59,176.29 1019.13,174.98 C1019.80,175.43 1019.98,176.28 1019.93,178.75 Z" fill="#65ABF8" fill-rule="nonzero"/><path d="M854.06,1018.00 C853.58,1018.77 852.72,1019.00 850.25,1018.99 C850.86,1018.22 852.49,1017.81 854.06,1018.00 Z" fill="#65ABF8" fill-rule="nonzero"/><path d="M190.75,1021.97 L186.25,1021.60 C186.58,1020.42 190.13,1021.68 190.75,1021.97 Z" fill="#65ABF8" fill-rule="nonzero"/><path d="M861.97,1015.90 C862.80,1017.84 859.61,1016.75 858.75,1016.91 L861.97,1015.90 Z" fill="#65ABF8" fill-rule="nonzero"/><path d="M857.97,1016.90 C858.80,1018.84 855.61,1017.75 854.75,1017.91 L857.97,1016.90 Z" fill="#65ABF8" fill-rule="nonzero"/><path d="M851.07,5.10 L847.75,4.09 C849.84,4.02 850.58,4.25 851.07,5.10 Z" fill="#65ABF8" fill-rule="nonzero"/><path d="M199.25,1022.90 L194.75,1022.67 L199.25,1022.90 Z" fill="#65ABF8" fill-rule="nonzero"/><path d="M1024.00,207.50 L1024.00,816.00 L1023.02,816.00 L1023.00,207.50 L1024.00,207.50 Z" fill="#65ABF8" fill-rule="nonzero"/><path d="M808.56,1024.00 L207.44,1024.00 C207.96,1023.17 308.58,1023.00 508.00,1023.00 C707.42,1023.00 808.04,1023.17 808.56,1024.00 Z" fill="#65ABF8" fill-rule="nonzero"/><path d="M0.96,194.00 C1.20,196.55 0.76,199.67 0.08,201.25 L-0.00,194.00 L0.96,194.00 Z" fill="#65ABF8" fill-rule="nonzero"/><path d="M820.50,1023.04 L820.50,1024.00 L816.00,1024.00 C816.00,1023.23 817.01,1023.01 820.50,1023.04 Z" fill="#65ABF8" fill-rule="nonzero"/><path d="M814.56,1024.00 L810.00,1024.00 C808.89,1022.16 815.54,1022.96 814.56,1024.00 Z" fill="#65ABF8" fill-rule="nonzero"/><path d="M204.50,-0.00 L208.56,-0.00 C209.39,0.99 203.55,1.89 204.50,-0.00 Z" fill="#65ABF8" fill-rule="nonzero"/><path d="M198.00,1.00 L198.00,-0.00 L201.50,-0.00 C201.50,0.79 200.75,1.00 198.00,1.00 Z" fill="#65ABF8" fill-rule="nonzero"/><path d="M820.50,-0.00 L824.00,-0.00 L824.00,1.00 C821.25,1.00 820.50,0.79 820.50,-0.00 Z" fill="#65ABF8" fill-rule="nonzero"/><path d="M206.50,1024.00 L203.00,1024.00 L203.00,1023.00 C205.71,1023.00 206.50,1023.23 206.50,1024.00 Z" fill="#65ABF8" fill-rule="nonzero"/><path d="M0.00,827.94 L-0.00,825.50 C0.78,825.50 1.00,826.18 1.00,828.56 L0.00,827.94 Z" fill="#65ABF8" fill-rule="nonzero"/></svg>
