<svg version="1.1" xmlns="http://www.w3.org/2000/svg" viewBox="0 0 1015 1015" style="width: 100%; height: 100%;"><path d="M167.29,1.25 L715.50,1.25 L724.00,1.54 L804.50,1.25 C838.74,1.51 841.06,1.43 841.61,0.00 L845.42,0.00 L845.79,1.12 C857.19,1.74 860.49,1.79 860.46,1.36 L864.75,2.43 L868.24,3.07 L871.50,3.00 C871.50,3.77 872.08,4.00 874.06,4.00 L875.75,4.02 C876.18,4.62 878.46,6.30 879.17,5.13 L879.75,5.00 L883.25,6.00 L883.75,6.09 L887.07,7.10 L887.25,7.06 L889.25,7.42 L890.75,8.00 L890.75,8.07 L894.15,9.15 L895.82,9.36 L896.77,9.92 C897.83,10.97 899.51,11.70 901.75,11.55 C901.31,12.20 905.58,11.50 904.95,13.14 L907.49,14.11 C907.63,14.85 909.65,15.90 911.25,15.40 L925.32,22.32 L926.12,23.12 L927.00,23.50 L927.88,23.88 L928.33,24.33 C940.08,30.75 950.81,39.74 960.05,47.75 C959.50,50.13 961.62,50.62 963.25,51.19 C967.36,54.23 971.72,60.63 975.75,65.11 L976.00,65.50 L976.50,66.00 L977.12,66.63 L977.38,67.37 L978.00,68.00 L978.75,68.72 C982.01,72.69 986.53,79.14 989.75,84.68 L990.04,84.98 C989.34,86.70 991.53,87.36 991.75,87.74 L993.71,91.71 L994.12,92.12 L994.86,93.75 L996.11,96.25 L996.67,97.25 L996.83,97.75 L998.86,101.75 L1000.12,104.75 L1000.88,106.75 L1001.99,109.23 L1002.02,109.25 C1002.09,110.77 1002.30,112.81 1003.72,113.19 L1008.60,127.25 L1008.88,129.25 L1011.13,139.98 C1011.03,141.50 1011.23,142.08 1012.00,142.56 L1011.84,144.82 C1011.12,145.28 1011.32,148.66 1012.56,148.75 L1012.52,148.75 L1012.99,154.25 L1013.60,156.25 L1013.82,854.04 L1013.00,866.89 C1011.32,866.43 1011.07,869.69 1011.84,870.18 C1012.04,872.73 1010.62,878.43 1010.05,880.25 L1009.00,883.75 C1008.96,885.16 1008.01,889.65 1006.93,890.33 L1003.36,901.25 L1003.13,902.87 L1002.52,903.41 C1001.33,903.76 1000.92,906.11 1001.04,907.75 L1000.33,909.17 L999.91,909.59 L998.90,912.25 L998.51,913.25 L997.43,915.25 L997.13,915.75 L996.14,917.75 L992.37,924.72 C983.86,942.09 968.96,957.62 955.75,970.55 C954.48,970.51 953.36,971.45 950.75,974.73 C948.55,976.95 943.85,980.32 940.29,982.71 L939.87,983.13 L939.00,983.50 L938.13,983.88 L937.33,984.75 L934.28,986.72 L933.87,987.13 L933.00,987.50 L932.13,987.87 L931.32,988.75 L930.25,989.50 L927.75,990.60 L927.12,990.88 L926.35,991.75 L921.25,994.52 L919.25,995.47 L911.25,999.61 C908.74,998.81 908.45,1000.64 908.33,1000.68 L907.50,1001.00 L906.75,1001.40 L901.25,1003.59 C898.73,1002.86 898.44,1004.60 898.38,1004.62 L895.61,1005.49 C893.63,1005.50 892.92,1005.74 892.43,1006.57 L892.25,1006.50 L890.75,1007.08 L889.25,1007.46 L884.25,1009.06 C882.12,1009.01 881.51,1009.24 881.53,1010.09 L879.06,1010.00 C877.51,1010.00 876.92,1010.21 876.46,1010.94 L871.75,1011.76 C870.02,1011.12 865.15,1011.55 864.25,1012.93 L863.87,1012.78 C860.53,1011.89 853.97,1013.91 849.75,1013.90 L849.00,1013.75 L167.00,1013.75 L162.25,1013.95 C160.64,1013.65 157.08,1011.61 155.33,1012.85 L155.25,1012.92 L151.75,1012.58 L151.75,1012.51 C150.99,1011.39 148.50,1011.23 147.25,1011.99 L145.07,1012.10 C144.58,1011.25 143.84,1011.02 141.75,1011.09 L140.06,1011.00 C139.58,1010.23 138.88,1010.04 136.97,1010.17 C119.54,1006.28 103.15,1000.13 90.00,991.92 L89.00,991.50 L88.00,991.00 L87.12,990.63 L86.59,990.25 C78.07,985.19 68.63,978.47 62.24,972.75 L61.50,972.00 L61.23,971.75 C60.73,970.22 59.79,968.66 57.75,969.02 L46.10,957.25 C45.69,955.14 44.35,953.32 42.25,952.88 C33.10,942.91 23.65,928.49 17.43,915.25 C17.36,913.13 16.52,910.58 14.75,909.79 C14.28,908.15 11.73,903.87 11.50,901.11 L9.90,897.75 L7.94,891.75 C9.24,891.04 7.60,889.24 6.94,888.75 L5.91,884.75 C5.98,883.05 5.76,882.42 4.91,881.94 L4.93,880.75 C4.98,879.05 4.76,878.42 3.91,877.94 L3.88,876.25 C4.99,874.94 4.01,873.52 2.92,872.75 L3.00,870.75 C4.02,869.17 3.03,867.62 2.06,866.75 C2.12,863.94 0.40,859.14 1.19,855.51 C1.63,855.18 2.17,849.72 0.00,850.39 L-0.00,167.00 C0.78,167.00 1.05,165.13 1.25,158.31 L1.00,155.75 L1.50,154.25 L1.47,152.58 C2.98,152.38 2.56,150.15 1.92,149.25 L1.90,148.25 C3.99,147.14 3.04,142.76 3.95,140.75 C4.17,141.54 5.08,138.12 4.15,138.25 L3.91,135.97 C5.71,136.43 5.44,134.00 5.03,133.25 L4.91,132.06 C5.76,131.58 5.97,130.95 5.87,129.25 L6.95,126.25 C8.58,124.32 9.10,120.89 9.60,117.75 L9.92,116.58 C11.34,115.95 11.76,113.08 12.00,111.25 L11.91,110.58 C11.97,110.42 14.18,111.07 13.45,107.25 L13.75,106.25 C13.93,105.87 16.30,105.34 15.40,102.75 L18.77,95.75 C20.16,94.95 21.08,93.77 21.05,91.75 L22.13,89.75 L22.45,88.75 C28.17,79.35 35.87,67.56 43.25,60.12 L45.75,57.26 L54.75,48.21 L58.08,45.25 C65.46,37.99 75.75,30.68 85.69,24.75 L86.12,24.38 L87.00,24.00 L88.00,23.50 L89.00,23.00 L89.87,22.63 L90.72,21.75 L105.75,14.53 C107.13,14.37 109.37,14.21 109.55,12.92 C114.38,10.73 121.26,8.50 126.95,6.90 C128.88,6.98 129.58,6.77 130.06,6.00 L130.83,6.13 C131.18,7.17 133.92,5.98 133.75,5.02 L135.25,4.96 C136.40,5.74 138.00,5.52 138.75,4.39 L139.93,4.04 C140.92,5.67 144.29,2.66 145.26,3.60 C148.18,3.10 150.85,2.78 153.25,2.02 L153.41,2.07 L161.75,1.10 L167.29,1.25 Z" fill="#1A7CFC" fill-rule="nonzero"/><g><path d="M788.55,143.75 C788.55,143.75 788.48,144.89 788.55,145.03 C791.34,150.43 795.28,153.82 796.19,160.76 C796.70,299.47 796.72,440.78 796.18,578.75 C793.02,574.17 789.44,570.31 783.25,569.00 L611.50,569.00 L611.50,335.61 C608.62,319.07 596.09,313.02 586.26,303.45 L733.75,303.45 C737.25,302.88 740.04,300.99 740.67,297.50 L740.67,194.00 C740.01,190.83 737.54,188.63 734.25,187.80 L467.50,187.83 C463.79,188.16 461.76,190.38 460.76,193.75 L460.84,272.50 C460.98,282.42 461.17,284.02 462.25,284.16 L551.25,284.34 C562.73,285.24 571.22,291.57 578.19,297.42 C575.71,299.59 581.97,309.43 582.25,314.25 C582.76,449.17 582.41,589.49 582.53,726.15 C582.53,726.47 581.54,729.06 581.54,729.75 C579.04,724.36 573.66,720.86 566.75,720.03 L224.25,720.02 C207.49,721.24 197.90,738.83 206.87,754.45 C206.04,755.73 203.57,756.83 201.31,756.96 C200.26,758.56 197.80,760.76 195.91,762.25 C192.03,757.27 188.98,750.45 188.50,741.93 L188.50,317.19 C190.20,299.79 203.47,285.74 220.75,284.02 L402.89,284.00 C404.30,245.32 403.10,203.25 403.50,163.48 C406.88,147.25 417.41,136.90 434.11,134.00 L767.75,134.01 C776.09,135.44 783.52,139.75 788.55,143.75 Z" fill="#079C98" fill-rule="nonzero"/><path d="M525.64,343.75 L525.86,364.25 C526.05,391.17 526.17,422.97 525.80,449.57 L521.54,453.50 L250.38,453.50 L246.62,449.73 C245.45,415.78 246.01,376.27 246.25,343.25 C247.59,341.05 249.13,339.24 251.45,338.50 L521.50,338.50 C522.92,339.93 525.82,341.50 525.64,343.75 Z" fill="#FECA2E" fill-rule="nonzero"/><path d="M250.63,487.50 L378.25,487.50 C379.81,487.89 382.75,490.65 383.02,491.85 C383.61,494.47 382.75,572.48 382.75,572.48 L379.48,575.75 C338.23,575.97 291.51,576.58 249.92,575.39 L246.50,571.97 C246.50,571.97 246.45,492.70 246.50,492.45 C246.77,491.11 249.32,487.87 250.63,487.50 Z" fill="#026366" fill-rule="nonzero"/><path d="M740.19,445.75 L740.25,506.25 C739.58,507.41 737.20,509.59 736.04,510.42 L635.45,510.50 C633.19,510.01 631.49,507.65 631.03,505.25 C630.86,504.41 630.67,447.17 631.00,445.40 C631.36,443.47 633.39,440.94 635.45,440.50 L736.42,440.50 C738.19,441.67 739.68,443.04 740.19,445.75 Z" fill="#FECA2E" fill-rule="nonzero"/><path d="M525.66,597.00 L525.62,656.25 C524.20,657.90 523.71,660.85 521.37,661.50 L420.40,661.50 L417.00,658.10 L417.00,595.07 L420.37,591.50 L521.71,591.50 C521.71,591.50 526.41,595.31 525.66,597.00 Z" fill="#FECA2E" fill-rule="nonzero"/><path d="M251.75,605.54 L379.48,605.50 L382.75,608.42 L383.03,658.07 L379.59,661.51 L250.42,661.25 L247.50,657.98 C247.50,657.98 247.48,610.05 247.50,609.95 C247.85,608.21 249.98,605.98 251.75,605.54 Z" fill="#B6DED5" fill-rule="nonzero"/><path d="M637.73,336.50 L735.55,336.50 C737.34,336.86 740.04,339.41 740.50,341.25 C740.67,341.93 740.67,399.07 740.50,399.75 C740.05,401.55 737.38,404.14 735.52,404.51 L635.92,404.25 L632.50,400.51 L632.50,341.73 C632.99,339.53 635.53,336.99 637.73,336.50 Z" fill="#B6DED5" fill-rule="nonzero"/><path d="M422.08,487.50 L521.25,487.50 C522.76,487.88 525.18,490.06 525.75,491.75 C526.10,492.77 526.21,549.61 525.75,550.93 C525.11,552.76 522.22,555.08 520.25,555.50 C519.68,555.62 426.10,555.80 424.25,555.49 C422.06,555.14 419.00,553.73 418.25,551.92 L417.98,492.76 C418.27,491.02 420.31,488.51 422.08,487.50 Z" fill="#B6DED5" fill-rule="nonzero"/><g><path d="M195.91,762.25 C197.80,760.76 200.26,758.56 201.31,756.96 C203.57,756.83 206.04,755.73 206.87,754.45 C211.20,760.16 217.32,763.93 226.75,764.54 L590.78,764.25 C610.46,754.81 590.85,742.19 582.80,735.78 L581.54,729.75 C581.54,729.06 582.53,726.47 582.53,726.15 C582.41,589.49 582.76,449.17 582.25,314.25 C581.97,309.43 575.71,299.59 578.19,297.42 C580.30,298.92 583.79,302.67 586.26,303.45 C596.09,313.02 608.62,319.07 611.50,335.61 L611.50,569.00 L611.50,613.00 L804.86,613.00 C825.62,603.54 804.55,591.75 797.42,584.49 C796.60,583.96 796.31,579.09 796.18,578.75 C796.72,440.78 796.70,299.47 796.19,160.76 C795.28,153.82 791.34,150.43 788.55,145.03 C788.48,144.89 788.55,143.75 788.55,143.75 C800.59,155.23 823.48,165.48 825.97,185.75 L825.90,604.75 C824.74,615.83 818.08,622.34 808.25,625.25 L611.52,625.51 L611.25,759.25 C607.69,768.24 602.21,775.24 591.25,776.50 L219.23,776.50 C209.16,774.38 200.49,769.16 195.91,762.25 Z" fill="#017E7D" fill-rule="nonzero"/><path d="M467.50,187.83 L734.25,187.80 C737.54,188.63 740.01,190.83 740.67,194.00 L740.67,297.50 C740.04,300.99 737.25,302.88 733.75,303.45 L586.26,303.45 C583.79,302.67 580.30,298.92 578.19,297.42 C571.22,291.57 562.73,285.24 551.25,284.34 L462.25,284.16 C461.17,284.02 460.98,282.42 460.84,272.50 L460.76,193.75 C461.76,190.38 463.79,188.16 467.50,187.83 Z" fill="#FECA2E" fill-rule="nonzero"/><path d="M581.54,729.75 L582.80,735.78 C590.85,742.19 610.46,754.81 590.78,764.25 L226.75,764.54 C217.32,763.93 211.20,760.16 206.87,754.45 C197.90,738.83 207.49,721.24 224.25,720.02 L566.75,720.03 C573.66,720.86 579.04,724.36 581.54,729.75 Z" fill="#F8F7F7" fill-rule="nonzero"/><path d="M796.18,578.75 C796.31,579.09 796.60,583.96 797.42,584.49 C804.55,591.75 825.62,603.54 804.86,613.00 L611.50,613.00 L611.50,569.00 L783.25,569.00 C789.44,570.31 793.02,574.17 796.18,578.75 Z" fill="#F8F7F7" fill-rule="nonzero"/></g></g><path d="M740.25,506.25 L740.19,445.75 L740.25,506.25 Z" fill="#B6DED5" fill-rule="nonzero"/><path d="M525.62,656.25 L525.66,597.00 L525.62,656.25 Z" fill="#B6DED5" fill-rule="nonzero"/><path d="M525.86,364.25 L525.64,343.75 L525.86,364.25 Z" fill="#B6DED5" fill-rule="nonzero"/><g><path d="M674.75,720.59 L779.25,720.51 C788.07,722.05 793.46,726.85 796.25,734.75 C796.67,776.02 796.66,825.48 796.25,866.75 C793.09,874.42 787.45,879.23 778.61,880.50 L676.68,880.50 C666.39,879.44 658.74,872.79 657.50,862.79 L657.51,739.75 C658.43,728.80 665.06,722.60 674.75,720.59 Z" fill="#F8F7F7" fill-rule="nonzero"/><path d="M677.00,740.50 L777.50,740.50 L777.50,860.50 L677.00,860.50 L677.00,740.50 Z" fill="#1A7CFC" fill-rule="nonzero"/></g><path d="M728.25,671.54 L836.75,671.75 C843.75,674.39 848.21,678.65 850.75,685.75 C851.16,726.37 851.16,775.10 850.75,815.77 C848.24,822.59 844.10,826.76 837.25,829.25 L808.00,829.54 L808.00,810.52 L831.25,810.25 L831.50,691.50 L731.50,691.50 L731.50,709.50 L712.44,709.50 L712.75,684.75 C715.75,677.83 720.31,673.14 728.25,671.54 Z" fill="#F8F7F7" fill-rule="nonzero"/><path d="M467.50,187.83 L734.25,187.80 L467.50,187.83 Z" fill="#B6DED5" fill-rule="nonzero"/><path d="M740.67,297.50 L740.67,194.00 L740.67,297.50 Z" fill="#B6DED5" fill-rule="nonzero"/><path d="M551.25,284.34 L462.25,284.16 L551.25,284.34 Z" fill="#B6DED5" fill-rule="nonzero"/><path d="M460.76,193.75 L460.84,272.50 L460.76,193.75 Z" fill="#B6DED5" fill-rule="nonzero"/><path d="M153.25,2.02 C150.85,2.78 148.18,3.10 145.26,3.60 C144.29,2.66 140.92,5.67 139.93,4.04 C143.27,2.58 148.33,1.87 153.25,2.02 Z" fill="#5CA0F6" fill-rule="nonzero"/><path d="M849.75,1013.90 C853.97,1013.91 860.53,1011.89 863.87,1012.78 C860.92,1014.36 854.56,1014.11 849.75,1013.90 Z" fill="#5CA0F6" fill-rule="nonzero"/><path d="M1006.93,890.33 C1006.81,894.41 1005.42,898.78 1003.36,901.25 L1006.93,890.33 Z" fill="#5CA0F6" fill-rule="nonzero"/><path d="M4.15,138.25 C5.08,138.12 4.17,141.54 3.95,140.75 C3.04,142.76 3.99,147.14 1.90,148.25 C2.55,144.85 2.43,140.56 4.15,138.25 Z" fill="#5CA0F6" fill-rule="nonzero"/><path d="M860.46,1.36 C860.49,1.79 857.19,1.74 845.79,1.12 L860.46,1.36 Z" fill="#5CA0F6" fill-rule="nonzero"/><path d="M162.25,1013.95 C160.18,1013.80 155.77,1014.83 155.33,1012.85 C157.08,1011.61 160.64,1013.65 162.25,1013.95 Z" fill="#5CA0F6" fill-rule="nonzero"/><path d="M9.60,117.75 C9.10,120.89 8.58,124.32 6.95,126.25 C7.11,122.88 8.35,120.10 9.60,117.75 Z" fill="#5CA0F6" fill-rule="nonzero"/><path d="M864.25,1012.93 C865.15,1011.55 870.02,1011.12 871.75,1011.76 C868.86,1011.94 867.67,1013.68 864.25,1012.93 Z" fill="#5CA0F6" fill-rule="nonzero"/><path d="M161.75,1.10 L153.41,2.07 C153.87,0.06 159.56,1.30 161.75,1.10 Z" fill="#5CA0F6" fill-rule="nonzero"/><path d="M996.14,917.75 C995.36,920.44 994.33,923.27 992.37,924.72 L996.14,917.75 Z" fill="#5CA0F6" fill-rule="nonzero"/><path d="M955.75,970.55 L950.75,974.73 C953.36,971.45 954.48,970.51 955.75,970.55 Z" fill="#5CA0F6" fill-rule="nonzero"/><path d="M17.43,915.25 L14.75,909.79 C16.52,910.58 17.36,913.13 17.43,915.25 Z" fill="#5CA0F6" fill-rule="nonzero"/><path d="M46.10,957.25 L42.25,952.88 C44.35,953.32 45.69,955.14 46.10,957.25 Z" fill="#5CA0F6" fill-rule="nonzero"/><path d="M1011.84,144.82 C1013.65,145.12 1012.91,147.75 1012.56,148.75 C1011.32,148.66 1011.12,145.28 1011.84,144.82 Z" fill="#5CA0F6" fill-rule="nonzero"/><path d="M151.75,1012.51 C150.50,1013.27 148.01,1013.11 147.25,1011.99 C148.50,1011.23 150.99,1011.39 151.75,1012.51 Z" fill="#5CA0F6" fill-rule="nonzero"/><path d="M12.00,111.25 C11.76,113.08 11.34,115.95 9.92,116.58 C10.06,114.52 10.90,112.29 12.00,111.25 Z" fill="#5CA0F6" fill-rule="nonzero"/><path d="M1013.00,866.89 C1013.00,868.87 1012.74,869.61 1011.84,870.18 C1011.07,869.69 1011.32,866.43 1013.00,866.89 Z" fill="#5CA0F6" fill-rule="nonzero"/><path d="M1012.99,154.25 L1012.52,148.75 C1013.00,149.64 1014.26,153.22 1012.99,154.25 Z" fill="#5CA0F6" fill-rule="nonzero"/><path d="M901.75,11.55 C899.51,11.70 897.83,10.97 896.77,9.92 C899.12,9.73 900.35,10.82 901.75,11.55 Z" fill="#5CA0F6" fill-rule="nonzero"/><path d="M963.25,51.19 C961.62,50.62 959.50,50.13 960.05,47.75 L963.25,51.19 Z" fill="#5CA0F6" fill-rule="nonzero"/><path d="M3.00,870.75 C2.21,870.13 1.74,868.38 2.06,866.75 C3.03,867.62 4.02,869.17 3.00,870.75 Z" fill="#5CA0F6" fill-rule="nonzero"/><path d="M61.23,971.75 L57.75,969.02 C59.79,968.66 60.73,970.22 61.23,971.75 Z" fill="#5CA0F6" fill-rule="nonzero"/><path d="M138.75,4.39 C138.00,5.52 136.40,5.74 135.25,4.96 C135.71,4.46 138.08,3.31 138.75,4.39 Z" fill="#5CA0F6" fill-rule="nonzero"/><path d="M879.17,5.13 C878.46,6.30 876.18,4.62 875.75,4.02 C877.16,3.94 879.01,3.79 879.17,5.13 Z" fill="#5CA0F6" fill-rule="nonzero"/><path d="M133.75,5.02 C133.92,5.98 131.18,7.17 130.83,6.13 C131.03,6.07 131.10,4.47 133.75,5.02 Z" fill="#5CA0F6" fill-rule="nonzero"/><path d="M911.25,15.40 C909.65,15.90 907.63,14.85 907.49,14.11 C909.25,13.33 910.24,15.21 911.25,15.40 Z" fill="#5CA0F6" fill-rule="nonzero"/><path d="M21.05,91.75 C21.08,93.77 20.16,94.95 18.77,95.75 L21.05,91.75 Z" fill="#5CA0F6" fill-rule="nonzero"/><path d="M998.86,101.75 L996.83,97.75 L998.86,101.75 Z" fill="#5CA0F6" fill-rule="nonzero"/><path d="M1002.52,903.41 L1001.04,907.75 C1000.92,906.11 1001.33,903.76 1002.52,903.41 Z" fill="#5CA0F6" fill-rule="nonzero"/><path d="M109.55,12.92 C109.37,14.21 107.13,14.37 105.75,14.53 C106.79,13.88 107.67,12.69 109.55,12.92 Z" fill="#5CA0F6" fill-rule="nonzero"/><path d="M15.40,102.75 C16.30,105.34 13.93,105.87 13.75,106.25 L15.40,102.75 Z" fill="#5CA0F6" fill-rule="nonzero"/><path d="M13.45,107.25 C14.18,111.07 11.97,110.42 11.91,110.58 L13.45,107.25 Z" fill="#5CA0F6" fill-rule="nonzero"/><path d="M3.88,876.25 L2.92,872.75 C4.01,873.52 4.99,874.94 3.88,876.25 Z" fill="#5CA0F6" fill-rule="nonzero"/><path d="M864.75,2.43 C865.38,1.51 868.06,1.94 868.24,3.07 L864.75,2.43 Z" fill="#5CA0F6" fill-rule="nonzero"/><path d="M130.06,6.00 C129.58,6.77 128.88,6.98 126.95,6.90 C127.42,6.20 128.12,6.00 130.06,6.00 Z" fill="#5CA0F6" fill-rule="nonzero"/><path d="M58.08,45.25 L54.75,48.21 L58.08,45.25 Z" fill="#5CA0F6" fill-rule="nonzero"/><path d="M1003.72,113.19 C1002.30,112.81 1002.09,110.77 1002.02,109.25 L1003.72,113.19 Z" fill="#5CA0F6" fill-rule="nonzero"/><path d="M5.03,133.25 C5.44,134.00 5.71,136.43 3.91,135.97 L5.03,133.25 Z" fill="#5CA0F6" fill-rule="nonzero"/><path d="M1.92,149.25 C2.56,150.15 2.98,152.38 1.47,152.58 L1.92,149.25 Z" fill="#5CA0F6" fill-rule="nonzero"/><path d="M11.50,901.11 L9.90,897.75 L11.50,901.11 Z" fill="#5CA0F6" fill-rule="nonzero"/><path d="M140.06,1011.00 C138.87,1011.16 136.73,1010.89 136.97,1010.17 C138.88,1010.04 139.58,1010.23 140.06,1011.00 Z" fill="#5CA0F6" fill-rule="nonzero"/><path d="M874.06,4.00 C872.08,4.00 871.50,3.77 871.50,3.00 C873.00,3.00 873.58,3.23 874.06,4.00 Z" fill="#5CA0F6" fill-rule="nonzero"/><path d="M887.07,7.10 L883.75,6.09 C885.84,6.02 886.58,6.25 887.07,7.10 Z" fill="#5CA0F6" fill-rule="nonzero"/><path d="M7.94,891.75 L6.94,888.75 C7.60,889.24 9.24,891.04 7.94,891.75 Z" fill="#5CA0F6" fill-rule="nonzero"/><path d="M145.07,1012.10 L141.75,1011.09 C143.84,1011.02 144.58,1011.25 145.07,1012.10 Z" fill="#5CA0F6" fill-rule="nonzero"/><path d="M883.25,6.00 L879.75,5.00 L883.25,6.00 Z" fill="#5CA0F6" fill-rule="nonzero"/><path d="M894.15,9.15 L890.75,8.07 C892.12,7.88 894.05,7.81 894.15,9.15 Z" fill="#5CA0F6" fill-rule="nonzero"/><path d="M45.75,57.26 L43.25,60.12 L45.75,57.26 Z" fill="#5CA0F6" fill-rule="nonzero"/><path d="M1012.00,142.56 C1011.23,142.08 1011.03,141.50 1011.13,139.98 C1011.80,140.43 1012.00,141.01 1012.00,142.56 Z" fill="#5CA0F6" fill-rule="nonzero"/><path d="M1010.05,880.25 L1009.00,883.75 L1010.05,880.25 Z" fill="#5CA0F6" fill-rule="nonzero"/><path d="M895.61,1005.49 L892.43,1006.57 C892.92,1005.74 893.63,1005.50 895.61,1005.49 Z" fill="#5CA0F6" fill-rule="nonzero"/><path d="M884.25,1009.06 L881.53,1010.09 C881.51,1009.24 882.12,1009.01 884.25,1009.06 Z" fill="#5CA0F6" fill-rule="nonzero"/><path d="M879.06,1010.00 C878.58,1010.77 877.99,1010.99 876.46,1010.94 C876.92,1010.21 877.51,1010.00 879.06,1010.00 Z" fill="#5CA0F6" fill-rule="nonzero"/><path d="M907.49,14.11 L904.95,13.14 C905.75,12.68 907.81,13.08 907.49,14.11 Z" fill="#5CA0F6" fill-rule="nonzero"/><path d="M991.75,87.74 C991.53,87.36 989.34,86.70 990.04,84.98 L991.75,87.74 Z" fill="#5CA0F6" fill-rule="nonzero"/><path d="M5.87,129.25 C5.97,130.95 5.76,131.58 4.91,132.06 L5.87,129.25 Z" fill="#5CA0F6" fill-rule="nonzero"/><path d="M4.93,880.75 L3.91,877.94 C4.76,878.42 4.98,879.05 4.93,880.75 Z" fill="#5CA0F6" fill-rule="nonzero"/><path d="M5.91,884.75 L4.91,881.94 C5.76,882.42 5.98,883.05 5.91,884.75 Z" fill="#5CA0F6" fill-rule="nonzero"/><path d="M911.25,999.61 L908.33,1000.68 C908.45,1000.64 908.74,998.81 911.25,999.61 Z" fill="#5CA0F6" fill-rule="nonzero"/><path d="M901.25,1003.59 L898.38,1004.62 C898.44,1004.60 898.73,1002.86 901.25,1003.59 Z" fill="#5CA0F6" fill-rule="nonzero"/><path d="M898.38,1004.62 L895.61,1005.49 L898.38,1004.62 Z" fill="#5CA0F6" fill-rule="nonzero"/><path d="M994.86,93.75 L994.12,92.12 L994.86,93.75 Z" fill="#5CA0F6" fill-rule="nonzero"/><path d="M1000.88,106.75 L1000.12,104.75 L1000.88,106.75 Z" fill="#5CA0F6" fill-rule="nonzero"/><path d="M999.91,909.59 L998.90,912.25 L999.91,909.59 Z" fill="#5CA0F6" fill-rule="nonzero"/><path d="M930.25,989.50 L927.75,990.60 L930.25,989.50 Z" fill="#5CA0F6" fill-rule="nonzero"/><path d="M921.25,994.52 L919.25,995.47 L921.25,994.52 Z" fill="#5CA0F6" fill-rule="nonzero"/><path d="M155.25,1012.92 L151.75,1012.58 L155.25,1012.92 Z" fill="#5CA0F6" fill-rule="nonzero"/><path d="M22.13,89.75 L21.05,91.75 L22.13,89.75 Z" fill="#5CA0F6" fill-rule="nonzero"/><path d="M996.11,96.25 L994.86,93.75 L996.11,96.25 Z" fill="#5CA0F6" fill-rule="nonzero"/><path d="M1001.99,109.23 L1000.88,106.75 L1001.99,109.23 Z" fill="#5CA0F6" fill-rule="nonzero"/><path d="M997.13,915.75 L996.14,917.75 L997.13,915.75 Z" fill="#5CA0F6" fill-rule="nonzero"/><path d="M889.25,7.42 L887.25,7.06 L889.25,7.42 Z" fill="#5CA0F6" fill-rule="nonzero"/><path d="M895.82,9.36 L894.15,9.15 L895.82,9.36 Z" fill="#5CA0F6" fill-rule="nonzero"/><path d="M1008.88,129.25 L1008.60,127.25 L1008.88,129.25 Z" fill="#026366" fill-rule="nonzero"/><path d="M890.75,1007.08 L889.25,1007.46 L890.75,1007.08 Z" fill="#5CA0F6" fill-rule="nonzero"/><path d="M9.92,116.58 L9.60,117.75 L9.92,116.58 Z" fill="#5CA0F6" fill-rule="nonzero"/><path d="M890.75,8.00 L889.25,7.42 L890.75,8.00 Z" fill="#5CA0F6" fill-rule="nonzero"/><path d="M89.87,22.63 L89.00,23.00 L89.87,22.63 Z" fill="#5CA0F6" fill-rule="nonzero"/><path d="M89.00,23.00 L88.00,23.50 L89.00,23.00 Z" fill="#5CA0F6" fill-rule="nonzero"/><path d="M927.00,23.50 L926.12,23.12 L927.00,23.50 Z" fill="#5CA0F6" fill-rule="nonzero"/><path d="M88.00,23.50 L87.00,24.00 L88.00,23.50 Z" fill="#5CA0F6" fill-rule="nonzero"/><path d="M927.88,23.88 L927.00,23.50 L927.88,23.88 Z" fill="#5CA0F6" fill-rule="nonzero"/><path d="M87.00,24.00 L86.12,24.38 L87.00,24.00 Z" fill="#5CA0F6" fill-rule="nonzero"/><path d="M977.38,67.37 L977.12,66.63 L977.38,67.37 Z" fill="#5CA0F6" fill-rule="nonzero"/><path d="M22.45,88.75 L22.13,89.75 L22.45,88.75 Z" fill="#5CA0F6" fill-rule="nonzero"/><path d="M996.83,97.75 L996.67,97.25 L996.83,97.75 Z" fill="#5CA0F6" fill-rule="nonzero"/><path d="M1.50,154.25 L1.00,155.75 L1.50,154.25 Z" fill="#5CA0F6" fill-rule="nonzero"/><path d="M998.90,912.25 L998.51,913.25 L998.90,912.25 Z" fill="#5CA0F6" fill-rule="nonzero"/><path d="M997.43,915.25 L997.13,915.75 L997.43,915.25 Z" fill="#5CA0F6" fill-rule="nonzero"/><path d="M939.87,983.13 L939.00,983.50 L939.87,983.13 Z" fill="#5CA0F6" fill-rule="nonzero"/><path d="M939.00,983.50 L938.13,983.88 L939.00,983.50 Z" fill="#5CA0F6" fill-rule="nonzero"/><path d="M933.87,987.13 L933.00,987.50 L933.87,987.13 Z" fill="#5CA0F6" fill-rule="nonzero"/><path d="M933.00,987.50 L932.13,987.87 L933.00,987.50 Z" fill="#5CA0F6" fill-rule="nonzero"/><path d="M88.00,991.00 L87.12,990.63 L88.00,991.00 Z" fill="#5CA0F6" fill-rule="nonzero"/><path d="M927.75,990.60 L927.12,990.88 L927.75,990.60 Z" fill="#5CA0F6" fill-rule="nonzero"/><path d="M89.00,991.50 L88.00,991.00 L89.00,991.50 Z" fill="#5CA0F6" fill-rule="nonzero"/><path d="M90.00,991.92 L89.00,991.50 L90.00,991.92 Z" fill="#5CA0F6" fill-rule="nonzero"/><path d="M908.33,1000.68 L907.50,1001.00 L908.33,1000.68 Z" fill="#5CA0F6" fill-rule="nonzero"/><path d="M907.50,1001.00 L906.75,1001.40 L907.50,1001.00 Z" fill="#5CA0F6" fill-rule="nonzero"/><path d="M892.25,1006.50 L890.75,1007.08 L892.25,1006.50 Z" fill="#5CA0F6" fill-rule="nonzero"/><path d="M90.72,21.75 L89.87,22.63 L90.72,21.75 Z" fill="#5CA0F6" fill-rule="nonzero"/><path d="M926.12,23.12 L925.32,22.32 L926.12,23.12 Z" fill="#5CA0F6" fill-rule="nonzero"/><path d="M928.33,24.33 L927.88,23.88 L928.33,24.33 Z" fill="#5CA0F6" fill-rule="nonzero"/><path d="M86.12,24.38 L85.69,24.75 L86.12,24.38 Z" fill="#5CA0F6" fill-rule="nonzero"/><path d="M976.00,65.50 L975.75,65.11 L976.00,65.50 Z" fill="#5CA0F6" fill-rule="nonzero"/><path d="M976.50,66.00 L976.00,65.50 L976.50,66.00 Z" fill="#5CA0F6" fill-rule="nonzero"/><path d="M977.12,66.63 L976.50,66.00 L977.12,66.63 Z" fill="#5CA0F6" fill-rule="nonzero"/><path d="M978.00,68.00 L977.38,67.37 L978.00,68.00 Z" fill="#5CA0F6" fill-rule="nonzero"/><path d="M978.75,68.72 L978.00,68.00 L978.75,68.72 Z" fill="#5CA0F6" fill-rule="nonzero"/><path d="M990.04,84.98 L989.75,84.68 L990.04,84.98 Z" fill="#5CA0F6" fill-rule="nonzero"/><path d="M994.12,92.12 L993.71,91.71 L994.12,92.12 Z" fill="#5CA0F6" fill-rule="nonzero"/><path d="M1003.13,902.87 L1002.52,903.41 L1003.13,902.87 Z" fill="#5CA0F6" fill-rule="nonzero"/><path d="M1000.33,909.17 L999.91,909.59 L1000.33,909.17 Z" fill="#5CA0F6" fill-rule="nonzero"/><path d="M61.50,972.00 L61.23,971.75 L61.50,972.00 Z" fill="#5CA0F6" fill-rule="nonzero"/><path d="M62.24,972.75 L61.50,972.00 L62.24,972.75 Z" fill="#5CA0F6" fill-rule="nonzero"/><path d="M940.29,982.71 L939.87,983.13 L940.29,982.71 Z" fill="#5CA0F6" fill-rule="nonzero"/><path d="M938.13,983.88 L937.33,984.75 L938.13,983.88 Z" fill="#5CA0F6" fill-rule="nonzero"/><path d="M934.28,986.72 L933.87,987.13 L934.28,986.72 Z" fill="#5CA0F6" fill-rule="nonzero"/><path d="M932.13,987.87 L931.32,988.75 L932.13,987.87 Z" fill="#5CA0F6" fill-rule="nonzero"/><path d="M87.12,990.63 L86.59,990.25 L87.12,990.63 Z" fill="#5CA0F6" fill-rule="nonzero"/><path d="M927.12,990.88 L926.35,991.75 L927.12,990.88 Z" fill="#5CA0F6" fill-rule="nonzero"/><path d="M1015.00,160.00 L1015.00,854.00 L1013.82,854.04 L1013.60,156.25 C1014.64,155.29 1013.18,160.50 1015.00,160.00 Z" fill="#5CA0F6" fill-rule="nonzero"/><path d="M849.00,1013.75 L849.00,1015.00 L167.00,1015.00 L167.00,1013.75 L849.00,1013.75 Z" fill="#5CA0F6" fill-rule="nonzero"/><g><path d="M167.29,1.25 L168.06,-0.00 L205.00,-0.00 C205.00,0.81 208.25,1.00 213.75,1.00 C219.25,1.00 222.50,0.81 222.50,-0.00 L715.50,-0.00 L715.50,1.25 L167.29,1.25 Z" fill="#5CA0F6" fill-rule="nonzero"/><path d="M205.00,-0.00 L222.50,-0.00 C222.50,0.81 219.25,1.00 213.75,1.00 C208.25,1.00 205.00,0.81 205.00,-0.00 Z" fill="#B6DED5" fill-rule="nonzero"/></g><g><path d="M724.00,1.54 L724.00,-0.00 L804.50,-0.00 L804.50,1.25 L724.00,1.54 Z" fill="#5CA0F6" fill-rule="nonzero"/><path d="M804.50,1.25 L804.50,-0.00 L841.61,0.00 C841.06,1.43 838.74,1.51 804.50,1.25 Z" fill="#B6DED5" fill-rule="nonzero"/><path d="M715.50,1.25 L715.50,-0.00 L724.00,-0.00 L724.00,1.54 L715.50,1.25 Z" fill="#B6DED5" fill-rule="nonzero"/></g><path d="M1.25,158.31 C1.05,165.13 0.78,167.00 -0.00,167.00 L-0.00,159.06 L1.25,158.31 Z" fill="#5CA0F6" fill-rule="nonzero"/><path d="M-0.00,855.50 L0.00,850.39 C2.17,849.72 1.63,855.18 1.19,855.51 L-0.00,855.50 Z" fill="#5CA0F6" fill-rule="nonzero"/></svg>
