<svg version="1.1" xmlns="http://www.w3.org/2000/svg" viewBox="0 0 1024 1024" width="1024" height="1024"><path d="M135.50,1.00 C137.82,1.00 138.50,0.78 138.50,-0.00 L888.00,-0.00 C888.00,0.78 889.18,1.00 893.25,0.99 C893.97,1.77 895.67,2.52 896.63,1.35 C943.26,10.27 977.29,35.48 998.95,68.75 C1009.86,85.38 1018.87,104.83 1022.12,128.99 C1021.86,129.98 1021.77,132.67 1023.00,132.56 L1023.00,136.50 C1023.00,138.82 1023.23,139.50 1024.00,139.50 L1024.00,888.00 C1018.77,921.91 1006.57,948.82 988.46,969.75 C966.74,996.00 934.18,1017.30 892.50,1023.00 C891.38,1023.21 888.29,1022.27 889.00,1024.00 L135.00,1024.00 L135.00,1023.00 C63.38,1015.12 8.38,960.13 1.00,888.00 L-0.00,888.00 L-0.00,136.00 L1.00,136.00 C1.37,120.76 5.90,107.62 9.87,97.25 C22.25,65.56 42.64,41.85 69.25,24.36 C82.87,14.66 102.05,6.83 121.96,2.43 L125.25,2.40 L128.75,1.42 C129.69,2.04 131.30,2.41 131.58,0.96 L135.50,1.00 Z" fill="#1D76FC" fill-rule="nonzero"/><g><path d="M593.02,325.38 L593.02,417.25 C595.32,439.92 608.66,452.55 629.75,456.55 L723.75,456.55 C724.66,523.84 723.17,596.73 724.50,664.48 C726.72,668.43 756.10,665.47 761.25,666.75 C767.64,668.65 773.22,671.66 777.35,675.12 C806.88,705.29 837.85,735.33 867.11,766.17 C876.42,779.64 874.66,801.78 864.25,813.73 L776.75,903.64 C770.97,908.85 763.76,914.37 752.75,915.50 L584.25,915.47 C566.94,913.54 560.10,900.77 552.25,899.53 L272.06,899.50 C250.05,895.34 236.63,881.34 233.00,858.80 L233.00,364.69 C235.10,343.15 252.21,325.86 274.72,324.50 L591.71,324.58 L593.02,325.38 Z" fill="#FEFEFE" fill-rule="nonzero"/><path d="M605.75,687.11 C616.31,687.11 697.96,686.48 700.75,687.25 C712.56,691.19 712.88,710.99 700.25,713.99 L605.21,714.00 C601.70,714.97 599.66,717.37 598.50,720.66 L598.52,857.75 C598.96,862.62 601.66,865.22 605.71,866.50 L704.68,866.50 C716.62,870.27 717.25,888.64 704.75,893.25 L606.25,893.56 C587.82,891.88 576.40,881.29 572.28,864.25 L571.96,722.25 C572.44,703.69 586.54,687.12 605.75,687.11 Z" fill="#0C2162" fill-rule="nonzero"/><path d="M777.80,725.88 C778.68,726.57 831.12,779.81 831.25,779.99 C834.56,784.56 834.97,792.02 831.58,796.75 C831.27,797.19 777.38,852.04 777.38,852.04 C768.37,858.49 753.97,851.40 756.50,838.70 C757.76,832.35 789.16,804.15 789.53,802.45 C789.53,802.42 788.94,801.50 788.94,801.50 L676.46,801.50 C664.97,797.93 664.51,779.80 676.25,775.75 L788.24,775.25 L788.55,773.62 L758.34,742.76 C750.71,729.73 766.09,716.71 777.80,725.88 Z" fill="#0C2162" fill-rule="nonzero"/><path d="M355.25,645.04 L584.25,645.25 C596.74,650.00 595.24,667.63 581.25,669.05 L353.67,668.75 C341.83,664.14 342.79,647.81 355.25,645.04 Z" fill="#0C2162" fill-rule="nonzero"/><path d="M283.75,478.12 C344.51,478.01 410.81,477.75 470.82,478.25 C484.46,482.47 482.92,501.08 468.25,502.56 L281.18,502.25 C268.65,499.14 267.56,480.12 283.75,478.12 Z" fill="#0C2162" fill-rule="nonzero"/><path d="M357.25,563.12 C410.95,563.01 470.46,562.75 523.25,563.25 C536.75,568.26 535.20,585.91 520.25,587.52 L354.75,587.25 C341.41,582.88 342.12,565.04 357.25,563.12 Z" fill="#0C2162" fill-rule="nonzero"/><path d="M282.75,398.06 L439.75,398.25 C451.58,402.55 451.38,419.10 438.75,421.96 L281.75,421.96 C268.96,419.70 268.08,400.18 282.75,398.06 Z" fill="#0C2162" fill-rule="nonzero"/><path d="M357.75,810.63 C400.12,810.49 448.29,810.26 489.75,810.75 C503.49,814.70 501.75,834.84 486.64,835.02 L354.25,834.75 C340.97,830.18 342.93,811.27 357.75,810.63 Z" fill="#0C2162" fill-rule="nonzero"/><path d="M283.25,727.53 L417.78,727.75 C429.57,731.08 429.82,748.02 418.25,751.47 L281.70,751.50 C269.11,748.03 269.54,729.69 283.25,727.53 Z" fill="#0C2162" fill-rule="nonzero"/><path d="M551.75,478.10 C554.83,477.71 593.70,477.96 594.75,478.25 C607.76,483.04 606.77,500.92 591.60,502.55 C587.93,502.95 550.08,502.45 549.25,502.25 C536.30,499.07 536.33,480.07 551.75,478.10 Z" fill="#0C2162" fill-rule="nonzero"/><path d="M497.75,728.03 C499.58,727.77 523.17,728.06 523.83,728.25 C535.03,732.55 534.81,748.54 523.25,751.98 L496.75,751.99 C483.76,749.97 483.25,730.13 497.75,728.03 Z" fill="#0C2162" fill-rule="nonzero"/><path d="M279.23,814.50 L314.25,814.50 C321.19,817.13 321.12,827.37 313.77,829.50 L279.23,829.50 C271.66,827.19 271.66,816.81 279.23,814.50 Z" fill="#0C2162" fill-rule="nonzero"/><path d="M279.75,566.50 C280.35,566.38 311.55,566.21 313.18,566.50 C320.70,567.83 321.81,579.71 313.77,581.50 C313.02,581.67 280.01,581.66 279.25,581.50 C271.23,579.78 272.02,568.07 279.75,566.50 Z" fill="#0C2162" fill-rule="nonzero"/><path d="M281.25,648.57 C283.42,648.23 313.09,648.56 313.75,648.75 C320.95,650.86 321.38,661.75 314.35,663.50 C314.18,663.54 278.42,663.61 278.03,663.50 C270.96,659.04 272.20,649.99 281.25,648.57 Z" fill="#0C2162" fill-rule="nonzero"/><path d="M513.00,500.95 C515.21,512.30 500.11,513.49 498.50,504.75 C496.61,494.51 511.48,493.12 513.00,500.95 Z" fill="#0C2162" fill-rule="nonzero"/><path d="M504.25,473.50 C513.76,471.75 516.60,485.80 507.75,488.15 C497.92,490.77 494.78,475.25 504.25,473.50 Z" fill="#0C2162" fill-rule="nonzero"/><path d="M454.25,724.50 C464.78,721.97 466.26,737.10 458.05,738.50 C448.56,740.12 446.63,726.34 454.25,724.50 Z" fill="#0C2162" fill-rule="nonzero"/><path d="M463.50,753.53 C462.60,761.59 447.56,761.20 449.50,750.45 C450.87,742.85 464.57,743.89 463.50,753.53 Z" fill="#0C2162" fill-rule="nonzero"/><path d="M723.75,456.55 L629.75,456.55 C608.66,452.55 595.32,439.92 593.02,417.25 L593.02,325.38 C637.30,368.08 680.60,412.57 723.75,456.55 Z" fill="#0C2162" fill-rule="nonzero"/></g><path d="M529.50,106.50 L579.86,106.50 C592.12,140.55 604.28,175.60 616.98,209.18 C629.62,175.67 641.76,140.56 653.88,106.75 L705.50,106.49 L705.50,271.50 L666.50,271.50 L666.50,169.00 L665.67,169.00 L628.25,271.52 L605.76,271.25 L568.19,169.93 C567.74,168.50 567.55,170.33 567.25,169.75 C567.33,201.36 567.90,238.91 567.25,271.25 L529.50,271.51 L529.50,106.50 Z" fill="#FEFEFE" fill-rule="nonzero"/><g><path d="M404.03,106.50 L449.00,106.50 L508.50,271.51 L467.39,271.25 L456.91,241.00 L395.10,241.00 L384.37,271.50 L344.00,271.50 C362.88,215.42 383.61,160.90 404.03,106.50 Z" fill="#FEFEFE" fill-rule="nonzero"/><path d="M427.17,152.25 L446.00,209.50 L406.50,209.50 C406.48,209.48 406.51,207.76 406.52,207.75 C406.54,207.18 422.79,158.23 424.12,155.25 C424.22,155.01 425.33,150.42 427.17,152.25 Z" fill="#1D76FC" fill-rule="nonzero"/></g><path d="M195.00,106.50 L240.96,106.50 L274.82,168.10 C275.22,169.38 275.44,167.81 275.75,168.21 L309.79,106.75 C309.79,106.75 352.44,105.98 354.19,106.49 C354.22,106.50 355.08,107.18 355.11,107.41 C334.94,141.26 313.95,175.08 294.50,209.46 L294.50,271.50 L255.50,271.50 L255.50,208.95 C236.05,174.50 214.56,141.18 195.00,106.50 Z" fill="#FEFEFE" fill-rule="nonzero"/><path d="M737.17,106.50 L776.50,106.50 L776.50,242.50 L845.50,242.50 L845.50,271.50 L736.50,271.50 L736.50,107.17 L737.17,106.50 Z" fill="#FEFEFE" fill-rule="nonzero"/><path d="M1023.00,132.56 C1021.77,132.67 1021.86,129.98 1022.12,128.99 C1022.80,129.43 1023.00,130.23 1023.00,132.56 Z" fill="#FEFEFE" fill-rule="nonzero"/><path d="M896.63,1.35 C895.67,2.52 893.97,1.77 893.25,0.99 L896.63,1.35 Z" fill="#FEFEFE" fill-rule="nonzero"/><path d="M131.58,0.96 C131.30,2.41 129.69,2.04 128.75,1.42 L131.58,0.96 Z" fill="#FEFEFE" fill-rule="nonzero"/><path d="M121.96,2.43 L125.25,2.40 L121.96,2.43 Z" fill="#FEFEFE" fill-rule="nonzero"/><path d="M135.50,1.00 L135.50,-0.00 L138.50,-0.00 C138.50,0.78 137.82,1.00 135.50,1.00 Z" fill="#FEFEFE" fill-rule="nonzero"/><path d="M1024.00,136.50 L1024.00,139.50 C1023.23,139.50 1023.00,138.82 1023.00,136.50 L1024.00,136.50 Z" fill="#FEFEFE" fill-rule="nonzero"/></svg>
