<svg version="1.1" xmlns="http://www.w3.org/2000/svg" viewBox="0 0 1024 1024" width="1024" height="1024"><path d="M150.50,1.00 C152.44,1.00 153.00,0.78 153.00,-0.00 L871.50,-0.00 C871.50,0.78 872.06,1.00 874.00,1.00 C903.46,2.99 927.22,13.24 945.75,24.83 C984.41,49.97 1013.41,86.19 1022.14,140.98 C1021.84,141.95 1021.78,144.68 1023.00,144.56 L1023.00,148.00 C1023.00,149.94 1023.23,150.50 1024.00,150.50 L1024.00,876.00 C1023.41,876.00 1022.96,878.46 1021.97,886.95 C1021.22,887.42 1021.00,888.12 1021.00,890.06 C1006.60,961.42 952.02,1014.11 876.01,1023.25 C876.62,1023.30 873.20,1022.14 874.00,1024.00 L151.56,1024.00 C151.08,1023.23 150.28,1023.02 147.99,1023.10 C128.06,1021.63 110.34,1015.46 96.25,1009.08 C66.35,995.33 43.50,974.33 25.85,948.25 C16.28,932.47 6.58,912.74 3.00,890.06 C3.21,888.48 2.74,886.86 2.04,886.25 C1.53,883.43 0.60,878.42 0.93,874.00 L-0.00,874.00 L-0.00,152.00 C0.78,152.00 1.00,151.44 1.00,150.75 C1.00,150.06 0.78,149.50 -0.00,149.50 L-0.00,149.00 C0.68,149.00 1.14,146.42 2.02,137.55 C3.43,137.30 2.96,135.68 2.48,134.75 L3.05,132.04 C3.79,131.58 3.97,131.00 3.88,129.47 C15.11,80.83 42.67,46.89 79.75,23.97 C98.34,12.66 121.41,2.87 150.50,1.00 Z" fill="#2077FA" fill-rule="nonzero"/><g><path d="M299.50,389.75 L299.50,485.25 C301.13,499.24 311.48,509.27 325.16,510.84 C355.78,511.10 389.01,511.11 420.16,510.84 L420.16,864.79 C416.88,878.62 408.35,887.19 393.75,889.49 L106.25,889.47 C90.92,888.05 81.71,878.37 79.00,864.25 L79.00,414.66 C81.14,401.29 88.93,393.79 100.75,389.78 C164.40,389.30 235.34,389.35 299.50,389.75 Z" fill="#384493" fill-rule="nonzero"/><path d="M210.25,570.50 C221.59,568.48 228.66,582.98 218.75,590.50 L178.27,612.52 C177.21,613.45 176.21,614.00 177.77,615.60 C179.47,617.35 212.46,633.75 217.61,637.47 C229.64,646.14 221.31,660.00 210.12,658.00 C209.78,657.94 156.55,628.59 154.25,626.83 C145.74,620.32 145.47,608.39 154.37,601.62 C157.11,599.54 209.08,570.71 210.25,570.50 Z" fill="#FEFEFE" fill-rule="nonzero"/><path d="M284.96,708.33 C285.94,708.58 336.64,736.82 339.25,738.74 C346.67,744.20 350.31,754.85 341.29,763.11 C338.77,765.41 285.74,795.34 282.82,795.56 C274.35,796.20 266.89,785.16 273.10,777.47 C275.40,774.62 317.51,752.96 318.00,752.26 C318.01,752.25 318.00,751.26 317.99,751.25 C317.16,750.06 276.11,729.56 272.87,725.25 C267.14,717.60 274.35,705.65 284.96,708.33 Z" fill="#FEFEFE" fill-rule="nonzero"/><path d="M216.93,761.61 C215.92,775.68 197.78,778.17 193.50,764.82 C191.08,742.09 200.29,747.30 211.80,741.69 C229.69,732.95 222.62,708.82 197.42,716.96 C194.25,717.99 187.91,722.57 185.75,722.99 C170.88,725.92 162.61,702.78 192.25,695.97 C253.54,682.01 266.47,747.25 216.93,761.61 Z" fill="#FEFEFE" fill-rule="nonzero"/><path d="M318.50,594.84 C315.79,619.05 289.71,623.18 288.16,626.01 C287.77,639.33 269.66,640.95 265.25,629.75 C262.33,604.27 273.20,611.81 285.75,603.88 C298.15,596.05 295.94,576.54 273.61,579.50 C267.22,580.35 260.32,586.06 258.29,586.50 C243.32,589.76 234.76,568.38 261.25,560.56 C289.57,552.20 321.98,563.72 318.50,594.84 Z" fill="#FEFEFE" fill-rule="nonzero"/><path d="M218.11,797.25 C216.31,814.19 187.27,811.71 191.02,792.25 C193.83,777.68 220.03,779.15 218.11,797.25 Z" fill="#FEFEFE" fill-rule="nonzero"/><path d="M289.49,655.75 C293.26,675.34 264.72,677.39 262.50,661.37 C259.94,642.95 286.63,640.89 289.49,655.75 Z" fill="#FEFEFE" fill-rule="nonzero"/><path d="M420.16,510.84 C389.01,511.11 355.78,511.10 325.16,510.84 C311.48,509.27 301.13,499.24 299.50,485.25 L299.50,389.75 C298.42,390.13 302.20,390.11 300.90,389.75 L420.16,510.84 Z" fill="#CDCDDA" fill-rule="nonzero"/></g><g><path d="M821.75,389.75 C821.32,421.88 821.37,457.81 821.72,490.50 C822.44,505.25 832.86,515.71 846.45,517.16 C879.62,517.71 916.03,517.76 948.75,517.14 L949.48,517.59 L949.47,864.25 C946.66,878.94 936.70,888.73 920.75,889.54 L632.25,889.25 C619.72,885.69 611.46,878.06 609.00,864.75 L609.00,414.25 C611.17,401.13 619.19,393.78 630.75,389.79 C691.72,389.29 760.81,389.36 821.75,389.75 Z" fill="#F0EFEF" fill-rule="nonzero"/><path d="M668.25,618.56 L885.75,618.75 C896.82,621.63 896.35,641.11 885.53,643.00 L666.97,643.00 C656.05,641.10 654.93,620.70 668.25,618.56 Z" fill="#4A555D" fill-rule="nonzero"/><path d="M666.25,683.50 L842.16,683.50 C851.92,686.40 852.38,704.59 841.84,707.50 L666.47,707.50 C656.31,705.71 655.92,685.60 666.25,683.50 Z" fill="#4A555D" fill-rule="nonzero"/><path d="M666.25,748.02 L778.05,748.00 C787.80,750.16 788.37,767.92 779.43,771.75 L667.25,772.05 C656.05,770.56 655.49,751.23 666.25,748.02 Z" fill="#4A555D" fill-rule="nonzero"/><path d="M948.75,517.14 C916.03,517.76 879.62,517.71 846.45,517.16 C832.86,515.71 822.44,505.25 821.72,490.50 C821.37,457.81 821.32,421.88 821.75,389.75 L948.75,517.14 Z" fill="#CDCDDA" fill-rule="nonzero"/></g><path d="M429.00,106.50 L484.50,106.50 L484.50,189.50 C492.47,189.25 556.28,190.08 557.50,188.86 L557.50,106.50 L613.00,106.50 L613.00,326.50 L557.50,326.50 L557.50,233.00 L484.50,233.00 L484.50,326.50 L429.00,326.50 L429.00,106.50 Z" fill="#FEFEFE" fill-rule="nonzero"/><g><path d="M230.50,106.50 L334.95,106.50 C375.89,109.91 399.17,131.16 403.12,171.75 C405.30,221.62 377.66,249.63 332.29,252.50 L286.50,252.50 L286.50,326.50 L230.50,326.50 L230.50,106.50 Z" fill="#FEFEFE" fill-rule="nonzero"/><path d="M286.50,148.92 C319.27,149.68 342.27,143.44 347.09,174.25 C347.93,214.66 324.68,210.09 286.50,210.07 L286.50,148.92 Z" fill="#2077FA" fill-rule="nonzero"/></g><g><path d="M655.00,106.50 L754.79,106.50 C791.41,109.43 814.80,126.12 823.48,157.00 C834.17,207.13 811.47,241.14 772.25,250.04 C756.10,254.03 730.93,251.97 710.50,252.56 L710.50,326.50 L655.00,326.50 L655.00,106.50 Z" fill="#FEFEFE" fill-rule="nonzero"/><path d="M710.50,148.93 C742.16,149.53 765.28,143.84 770.50,172.66 C772.76,214.40 748.76,210.22 710.50,210.08 L710.50,148.93 Z" fill="#2077FA" fill-rule="nonzero"/></g><path d="M521.50,588.85 L600.50,655.20 L600.50,656.77 L522.13,722.50 L521.50,722.50 L521.50,680.50 L439.00,680.50 L439.00,631.00 L521.50,631.00 L521.50,588.85 Z" fill="#FEFEFE" fill-rule="nonzero"/><path d="M1023.00,144.56 C1021.78,144.68 1021.84,141.95 1022.14,140.98 C1022.81,141.00 1023.00,141.80 1023.00,144.56 Z" fill="#CDCDDA" fill-rule="nonzero"/><path d="M3.00,890.06 C2.23,889.58 2.01,888.72 2.04,886.25 C2.74,886.86 3.21,888.48 3.00,890.06 Z" fill="#CDCDDA" fill-rule="nonzero"/><path d="M1021.97,886.95 C1021.99,888.88 1021.77,889.58 1021.00,890.06 C1021.00,888.12 1021.22,887.42 1021.97,886.95 Z" fill="#CDCDDA" fill-rule="nonzero"/><path d="M3.88,129.47 C3.97,131.00 3.79,131.58 3.05,132.04 C3.01,130.50 3.20,129.93 3.88,129.47 Z" fill="#CDCDDA" fill-rule="nonzero"/><path d="M2.48,134.75 C2.96,135.68 3.43,137.30 2.02,137.55 L2.48,134.75 Z" fill="#CDCDDA" fill-rule="nonzero"/><path d="M151.56,1024.00 L148.00,1024.00 L147.99,1023.10 C150.28,1023.02 151.08,1023.23 151.56,1024.00 Z" fill="#CDCDDA" fill-rule="nonzero"/><path d="M150.50,1.00 L150.50,-0.00 L153.00,-0.00 C153.00,0.78 152.44,1.00 150.50,1.00 Z" fill="#CDCDDA" fill-rule="nonzero"/><path d="M871.50,-0.00 L874.00,-0.00 L874.00,1.00 C872.06,1.00 871.50,0.78 871.50,-0.00 Z" fill="#CDCDDA" fill-rule="nonzero"/><path d="M1024.00,148.00 L1024.00,150.50 C1023.23,150.50 1023.00,149.94 1023.00,148.00 L1024.00,148.00 Z" fill="#CDCDDA" fill-rule="nonzero"/><path d="M-0.00,152.00 L-0.00,149.50 C0.78,149.50 1.00,150.06 1.00,150.75 C1.00,151.44 0.78,152.00 -0.00,152.00 Z" fill="#CDCDDA" fill-rule="nonzero"/><path d="M876.01,1023.25 L876.00,1024.00 L874.00,1024.00 C873.20,1022.14 876.62,1023.30 876.01,1023.25 Z" fill="#CDCDDA" fill-rule="nonzero"/></svg>
