<svg version="1.1" xmlns="http://www.w3.org/2000/svg" viewBox="0 0 1024 1024" width="1024" height="1024"><path d="M172.00,0.96 C174.32,0.99 175.00,0.78 175.00,-0.00 L848.00,-0.00 C848.00,0.79 848.76,1.00 851.56,1.00 C871.25,1.72 889.02,7.58 903.25,12.86 C965.40,39.58 1009.83,86.81 1022.00,163.50 C1022.00,165.39 1022.23,166.08 1023.00,166.56 L1023.00,171.50 C1023.00,174.21 1023.23,175.00 1024.00,175.00 L1024.00,849.50 C1023.23,849.50 1023.01,850.18 1023.04,852.50 C1023.47,858.08 1021.85,859.61 1022.00,864.44 C1021.22,864.92 1021.00,865.50 1021.00,867.00 C1010.35,932.87 965.23,983.23 912.75,1007.11 C896.25,1014.54 874.56,1021.67 851.99,1023.25 C852.45,1023.86 848.27,1021.67 849.00,1024.00 L175.56,1024.00 C175.08,1023.23 174.28,1023.00 172.00,1023.00 C151.97,1021.97 135.79,1016.53 120.50,1011.04 C78.59,994.45 44.35,963.44 23.43,925.75 C12.62,905.82 2.62,881.76 1.00,851.50 L-0.00,851.50 L-0.00,175.00 C0.78,175.00 1.00,174.21 0.98,171.45 C0.30,166.61 2.32,163.49 2.04,159.04 C2.78,158.57 3.00,157.99 3.00,156.44 L3.00,153.56 C3.78,153.08 4.00,152.49 4.00,150.94 C5.05,141.18 9.03,131.41 11.42,123.75 C35.59,61.75 85.62,16.09 157.25,2.48 C157.90,3.82 160.32,2.51 160.75,2.01 C163.58,1.92 167.65,0.40 172.00,0.96 Z" fill="#1F7AFC" fill-rule="nonzero"/><g><path d="M237.25,378.25 C316.85,378.94 402.78,377.75 482.96,379.10 L609.49,507.25 L609.23,891.25 C605.67,907.03 596.39,917.03 580.34,920.00 L234.16,920.00 C218.26,916.94 208.76,907.05 205.25,891.25 C204.57,732.45 205.19,566.79 205.36,407.75 C207.74,392.19 220.50,378.41 237.25,378.25 Z" fill="#FEFEFD" fill-rule="nonzero"/><path d="M467.75,405.40 L577.55,516.14 C581.35,521.88 579.10,527.88 572.97,530.09 L462.75,529.25 C459.68,528.09 457.82,526.36 456.50,523.77 L456.50,408.08 C458.70,403.86 463.98,403.20 467.75,405.40 Z" fill="#1F7AFC" fill-rule="nonzero"/><path d="M446.25,690.50 C480.14,686.45 499.05,722.31 478.93,746.99 C474.99,751.83 463.10,759.95 461.43,766.02 C460.71,768.64 461.40,774.53 460.61,777.03 C457.72,786.22 435.47,789.51 440.41,762.75 C443.58,745.56 464.03,737.40 465.99,727.25 C468.77,712.82 451.38,706.40 442.08,713.99 C435.90,719.04 437.99,731.82 425.75,730.49 C406.59,728.42 420.22,693.61 446.25,690.50 Z" fill="#1F7AFC" fill-rule="nonzero"/><path d="M368.25,606.58 C381.43,609.31 392.85,620.19 394.93,634.38 C399.01,662.30 372.27,670.16 369.46,681.40 C368.85,683.85 369.42,687.41 368.91,690.25 C366.49,703.80 340.47,703.20 349.55,674.48 C353.91,660.68 372.06,652.07 374.19,642.25 C376.29,632.55 366.56,623.96 356.14,626.41 C341.37,629.89 348.93,647.74 333.75,645.99 C312.60,643.56 330.74,598.82 368.25,606.58 Z" fill="#1F7AFC" fill-rule="nonzero"/><path d="M514.92,708.88 C515.44,709.13 567.07,748.61 567.49,749.08 C570.95,752.97 571.44,759.64 568.08,763.93 C567.02,765.29 514.09,805.39 513.63,805.53 C502.91,808.90 496.14,797.21 501.38,789.75 C504.11,785.87 541.70,758.87 542.24,757.75 C542.24,757.75 542.62,756.31 542.56,756.09 C542.10,754.48 502.55,727.11 500.64,722.75 C496.10,712.43 506.38,704.73 514.92,708.88 Z" fill="#1F7AFC" fill-rule="nonzero"/><path d="M308.98,642.96 C305.67,645.56 269.05,672.88 269.00,673.03 C268.97,673.11 269.02,674.24 269.02,674.25 C269.27,674.77 309.49,704.34 310.97,706.98 C316.32,716.54 306.50,727.01 295.25,720.22 C291.74,718.10 244.17,680.87 243.38,679.75 C241.12,676.53 240.70,670.93 243.45,667.00 C243.96,666.27 292.79,628.54 295.75,626.87 C308.05,619.95 317.49,634.17 308.98,642.96 Z" fill="#1F7AFC" fill-rule="nonzero"/><path d="M370.12,720.97 C371.33,737.17 350.28,738.23 347.50,724.85 C346.20,708.78 367.06,707.10 370.12,720.97 Z" fill="#1F7AFC" fill-rule="nonzero"/><path d="M462.00,805.87 C463.57,821.89 441.38,822.22 439.50,810.03 C436.91,793.29 460.65,792.13 462.00,805.87 Z" fill="#1F7AFC" fill-rule="nonzero"/></g><path d="M805.75,564.88 C850.70,607.81 896.00,650.95 940.44,694.03 C944.50,699.67 944.51,708.82 940.45,714.45 L806.23,847.78 C798.26,853.17 788.20,848.43 786.28,840.75 C785.95,819.22 787.13,790.67 786.25,767.75 L656.25,767.25 C651.47,765.43 647.34,761.84 646.50,756.46 C646.32,755.29 646.33,656.39 646.50,655.16 C647.20,650.21 650.71,645.15 655.25,643.75 L786.25,643.25 L786.75,570.75 C790.00,563.24 798.72,560.33 805.75,564.88 Z" fill="#FEFEFD" fill-rule="nonzero"/><path d="M425.00,106.00 L485.50,106.00 L485.50,191.00 L562.50,191.00 L562.50,106.00 L623.50,106.00 L623.50,330.00 L562.50,330.00 L562.50,240.00 L485.66,240.00 C485.37,269.69 484.74,299.55 485.00,330.00 L425.00,330.00 L425.00,106.00 Z" fill="#FEFEFD" fill-rule="nonzero"/><g><path d="M658.50,105.95 L778.25,106.32 C823.48,110.65 851.93,142.53 845.45,194.75 C840.87,231.71 817.19,253.96 777.29,256.50 L717.50,256.50 L717.50,330.00 L658.50,330.00 L658.50,105.95 Z" fill="#FEFEFD" fill-rule="nonzero"/><path d="M717.50,154.94 C755.04,156.94 792.13,144.41 788.49,188.75 C783.16,218.75 749.69,208.66 717.50,210.56 L717.50,154.94 Z" fill="#1F7AFC" fill-rule="nonzero"/></g><g><path d="M209.50,106.00 L321.25,106.03 C369.09,107.46 399.34,135.24 397.13,186.40 C395.30,228.79 369.81,253.85 328.28,256.50 L268.00,256.50 L268.00,330.00 L209.50,330.00 L209.50,106.00 Z" fill="#FEFEFD" fill-rule="nonzero"/><path d="M267.99,155.00 C299.85,156.98 334.60,146.29 339.50,176.21 C342.58,220.35 305.66,209.20 268.25,210.25 L267.99,155.00 Z" fill="#1F7AFC" fill-rule="nonzero"/></g><path d="M1023.00,166.56 C1022.23,166.08 1022.00,165.39 1022.00,163.50 C1022.77,163.50 1023.00,164.19 1023.00,166.56 Z" fill="#FEFEFD" fill-rule="nonzero"/><path d="M160.75,2.01 C160.32,2.51 157.90,3.82 157.25,2.48 L160.75,2.01 Z" fill="#FEFEFD" fill-rule="nonzero"/><path d="M1022.00,864.44 C1022.00,866.42 1021.77,867.00 1021.00,867.00 C1021.00,865.50 1021.22,864.92 1022.00,864.44 Z" fill="#FEFEFD" fill-rule="nonzero"/><path d="M4.00,150.94 C4.00,152.49 3.78,153.08 3.00,153.56 C3.00,152.01 3.23,151.42 4.00,150.94 Z" fill="#FEFEFD" fill-rule="nonzero"/><path d="M3.00,156.44 C3.00,157.99 2.78,158.57 2.04,159.04 C2.01,157.50 2.22,156.92 3.00,156.44 Z" fill="#FEFEFD" fill-rule="nonzero"/><path d="M1024.00,171.50 L1024.00,175.00 C1023.23,175.00 1023.00,174.21 1023.00,171.50 L1024.00,171.50 Z" fill="#FEFEFD" fill-rule="nonzero"/><path d="M848.00,-0.00 L850.94,0.00 L851.56,1.00 C848.76,1.00 848.00,0.79 848.00,-0.00 Z" fill="#FEFEFD" fill-rule="nonzero"/><path d="M0.98,171.45 C1.00,174.21 0.78,175.00 -0.00,175.00 L0.00,172.06 L0.98,171.45 Z" fill="#FEFEFD" fill-rule="nonzero"/><path d="M175.56,1024.00 L172.00,1024.00 L172.00,1023.00 C174.28,1023.00 175.08,1023.23 175.56,1024.00 Z" fill="#FEFEFD" fill-rule="nonzero"/><path d="M172.00,0.96 L172.00,-0.00 L175.00,-0.00 C175.00,0.78 174.32,0.99 172.00,0.96 Z" fill="#FEFEFD" fill-rule="nonzero"/><path d="M1023.04,852.50 C1023.01,850.18 1023.23,849.50 1024.00,849.50 L1024.00,852.50 L1023.04,852.50 Z" fill="#FEFEFD" fill-rule="nonzero"/><path d="M851.99,1023.25 L852.00,1024.00 L849.00,1024.00 C848.27,1021.67 852.45,1023.86 851.99,1023.25 Z" fill="#FEFEFD" fill-rule="nonzero"/></svg>
