<svg version="1.1" xmlns="http://www.w3.org/2000/svg" viewBox="0 0 1024 1024" width="1024" height="1024"><path d="M129.00,1.00 C131.33,1.00 132.00,0.78 132.00,-0.00 L892.00,-0.00 C892.00,0.78 892.68,1.00 895.06,1.00 C951.09,7.01 991.75,42.80 1010.94,84.75 C1016.55,97.75 1022.05,111.26 1023.00,129.00 C1023.00,131.33 1023.22,132.00 1024.00,132.00 L1024.00,893.00 C1022.19,892.60 1023.30,893.92 1023.00,895.00 C1014.62,964.75 964.22,1013.32 895.00,1024.00 L132.00,1024.00 C132.00,1023.22 131.32,1023.00 128.94,1023.00 C106.66,1021.31 87.11,1013.25 72.75,1004.72 C50.82,991.99 32.45,973.69 20.16,952.75 C10.59,936.54 2.65,917.76 1.00,894.06 C1.00,891.68 0.78,891.00 -0.00,891.00 L-0.00,132.50 C0.78,132.50 1.00,131.82 1.00,129.50 L0.97,125.58 C2.54,125.37 1.95,123.16 1.50,122.25 L2.05,118.54 C2.79,118.07 2.97,117.50 2.87,115.98 C10.94,76.04 33.34,47.12 60.30,27.25 C78.85,14.19 100.08,3.60 129.00,1.00 Z" fill="#1E77FC" fill-rule="nonzero"/><g><path d="M119.25,373.60 L324.25,373.51 C328.27,373.88 332.33,374.90 335.10,376.64 L437.19,479.02 C438.52,480.75 441.04,484.80 441.50,487.98 L441.48,832.25 C437.97,852.70 425.51,865.67 404.39,868.50 L119.25,868.49 C99.62,865.61 88.19,854.15 83.25,836.25 C82.83,695.15 82.83,545.85 83.25,404.75 C88.14,387.20 99.55,375.83 119.25,373.60 Z" fill="#FEFEFE" fill-rule="nonzero"/><path d="M137.75,766.02 L311.75,766.01 C320.56,767.11 321.72,778.44 313.75,781.50 L136.73,781.50 C128.80,779.06 129.43,767.68 137.75,766.02 Z" fill="#1E77FC" fill-rule="nonzero"/><path d="M194.25,647.52 L335.25,647.52 C343.72,649.59 344.09,659.85 336.35,663.00 L193.89,663.00 C186.07,660.03 185.88,650.46 194.25,647.52 Z" fill="#1E77FC" fill-rule="nonzero"/><path d="M193.75,592.50 L336.05,592.50 C343.84,595.20 343.96,606.64 334.38,608.00 L195.15,608.00 C186.04,606.30 185.79,595.70 193.75,592.50 Z" fill="#1E77FC" fill-rule="nonzero"/><path d="M137.25,709.51 L231.93,709.75 C238.19,712.99 239.01,720.58 232.92,724.75 L136.67,725.01 C128.98,721.38 129.03,712.55 137.25,709.51 Z" fill="#1E77FC" fill-rule="nonzero"/><path d="M136.75,476.51 L231.77,476.50 C238.80,479.70 238.78,487.64 232.42,491.50 L136.25,491.50 C129.18,488.50 129.39,479.07 136.75,476.51 Z" fill="#1E77FC" fill-rule="nonzero"/><path d="M332.44,381.26 C333.92,401.60 329.88,444.03 334.45,458.75 C338.83,472.87 352.02,484.84 368.75,486.49 C376.62,487.26 432.29,485.76 434.35,486.50 C435.40,486.88 436.88,490.12 435.75,491.25 L361.25,491.51 C340.98,487.43 327.41,473.51 327.52,448.25 L327.50,381.72 C329.10,378.37 331.07,379.21 332.44,381.26 Z" fill="#1E77FC" fill-rule="nonzero"/><path d="M137.25,528.06 C138.19,527.86 179.44,527.77 180.35,528.00 C187.18,529.70 187.74,540.87 180.93,543.25 C180.91,543.26 139.68,543.94 137.52,543.53 C129.41,541.98 128.86,529.86 137.25,528.06 Z" fill="#1E77FC" fill-rule="nonzero"/><path d="M271.61,732.64 C275.98,742.43 261.66,746.16 258.58,738.70 C254.79,729.52 267.87,724.26 271.61,732.64 Z" fill="#1E77FC" fill-rule="nonzero"/><path d="M374.63,598.91 C371.92,606.62 358.66,603.49 361.00,593.75 C363.03,585.33 378.12,588.99 374.63,598.91 Z" fill="#1E77FC" fill-rule="nonzero"/><path d="M374.59,616.46 C378.14,626.80 362.96,629.36 361.00,621.25 C358.59,611.24 371.99,608.89 374.59,616.46 Z" fill="#1E77FC" fill-rule="nonzero"/><path d="M270.16,707.75 C277.99,715.94 263.92,724.69 259.06,716.45 C254.52,708.76 264.56,701.90 270.16,707.75 Z" fill="#1E77FC" fill-rule="nonzero"/><path d="M209.25,548.06 C219.92,545.72 221.50,563.76 209.47,562.00 C201.96,560.90 202.55,549.53 209.25,548.06 Z" fill="#1E77FC" fill-rule="nonzero"/><path d="M216.52,536.90 C210.53,543.62 198.64,534.32 206.25,526.86 C212.69,520.54 222.14,530.60 216.52,536.90 Z" fill="#1E77FC" fill-rule="nonzero"/></g><g><path d="M695.75,427.59 L861.95,427.50 C865.06,427.84 869.04,429.14 871.25,430.57 L956.98,516.75 L959.75,522.25 C960.17,616.85 960.16,719.65 959.75,814.25 C955.63,832.50 944.13,843.85 925.61,847.01 L690.75,846.74 C674.27,842.14 663.97,832.11 659.75,815.25 L659.47,461.75 C662.90,443.13 675.55,430.08 695.75,427.59 Z" fill="#FEFEFE" fill-rule="nonzero"/><path d="M867.50,435.72 C868.20,438.06 866.76,481.79 867.50,489.54 C869.01,505.25 881.82,519.15 896.75,521.71 C904.40,523.01 949.14,520.78 952.40,522.25 C954.37,523.14 955.72,526.78 953.09,527.55 C952.03,527.86 894.77,527.41 893.75,527.23 C878.75,524.56 864.46,510.30 862.86,494.25 C862.48,490.40 862.38,436.76 862.75,435.25 C863.61,431.74 866.96,433.92 867.50,435.72 Z" fill="#1E77FC" fill-rule="nonzero"/></g><path d="M539.50,99.50 L590.85,99.50 C602.11,136.50 614.09,173.99 624.87,211.25 L626.33,211.54 C636.72,173.72 648.55,136.66 659.56,99.50 L710.50,99.50 L710.50,280.51 L674.81,280.25 L675.08,160.00 C675.08,160.00 674.06,160.00 674.06,160.00 C674.01,160.04 654.17,222.21 652.56,227.25 C650.83,232.71 638.85,273.41 637.25,273.99 L611.83,273.75 C599.95,236.03 588.09,197.15 575.25,159.75 L574.75,280.25 L539.50,280.51 L539.50,99.50 Z" fill="#FEFEFE" fill-rule="nonzero"/><g><path d="M409.98,98.99 L459.21,99.25 L518.55,279.52 C519.28,280.53 517.22,279.46 517.94,280.50 C517.94,280.50 478.20,280.66 477.69,280.50 C474.46,279.51 467.20,245.12 465.21,243.75 L404.18,243.49 L392.71,280.25 C388.33,280.51 351.97,281.10 351.34,279.51 C370.57,219.29 390.28,158.73 409.98,98.99 Z" fill="#FEFEFE" fill-rule="nonzero"/><path d="M435.22,143.32 L455.61,210.50 L414.00,210.50 C414.00,210.50 414.00,209.17 414.00,209.17 C413.99,208.87 433.03,144.69 433.63,143.75 C433.70,143.65 434.14,142.34 435.22,143.32 Z" fill="#1E77FC" fill-rule="nonzero"/></g><path d="M566.58,561.01 C591.10,584.87 616.50,610.92 640.41,634.77 C642.64,638.97 642.25,645.05 639.79,648.75 L568.35,720.48 C563.43,724.16 555.73,722.84 553.25,717.25 L552.75,675.75 L472.75,675.25 C469.53,673.77 467.37,671.84 465.75,668.84 C465.69,668.65 464.93,616.86 465.48,614.01 C466.05,611.00 470.70,606.61 473.75,605.75 L552.75,605.25 C553.87,604.13 552.07,569.44 553.25,565.75 C554.76,561.03 561.13,558.20 566.58,561.01 Z" fill="#FEFEFE" fill-rule="nonzero"/><path d="M208.00,99.50 L252.95,99.50 L285.80,172.25 C285.99,171.76 286.31,173.37 286.72,172.10 L319.13,99.50 L363.44,99.50 C363.44,100.77 363.86,99.10 364.10,100.57 L306.00,212.95 L306.00,279.98 C300.63,280.45 266.60,281.75 265.50,278.75 L266.16,214.17 L208.00,101.69 L208.00,99.50 Z" fill="#FEFEFE" fill-rule="nonzero"/><path d="M744.50,99.00 L784.00,99.00 L784.00,248.50 L859.51,248.50 L859.25,280.25 L744.50,280.50 L744.50,99.00 Z" fill="#FEFEFE" fill-rule="nonzero"/><path d="M1.50,122.25 C1.95,123.16 2.54,125.37 0.97,125.58 L1.50,122.25 Z" fill="#FEFEFE" fill-rule="nonzero"/><path d="M2.87,115.98 C2.97,117.50 2.79,118.07 2.05,118.54 C2.01,117.00 2.20,116.43 2.87,115.98 Z" fill="#FEFEFE" fill-rule="nonzero"/><path d="M129.00,1.00 L129.00,-0.00 L132.00,-0.00 C132.00,0.78 131.33,1.00 129.00,1.00 Z" fill="#FEFEFE" fill-rule="nonzero"/><path d="M1024.00,129.00 L1024.00,132.00 C1023.22,132.00 1023.00,131.33 1023.00,129.00 L1024.00,129.00 Z" fill="#FEFEFE" fill-rule="nonzero"/><path d="M1.00,129.50 C1.00,131.82 0.78,132.50 -0.00,132.50 L-0.00,129.50 L1.00,129.50 Z" fill="#FEFEFE" fill-rule="nonzero"/><path d="M892.00,-0.00 L894.44,0.00 L895.06,1.00 C892.68,1.00 892.00,0.78 892.00,-0.00 Z" fill="#FEFEFE" fill-rule="nonzero"/><path d="M0.00,893.44 L-0.00,891.00 C0.78,891.00 1.00,891.68 1.00,894.06 L0.00,893.44 Z" fill="#FEFEFE" fill-rule="nonzero"/><path d="M132.00,1024.00 L129.56,1024.00 L128.94,1023.00 C131.32,1023.00 132.00,1023.22 132.00,1024.00 Z" fill="#FEFEFE" fill-rule="nonzero"/><path d="M1023.00,895.00 C1023.30,893.92 1022.19,892.60 1024.00,893.00 L1024.00,895.00 L1023.00,895.00 Z" fill="#FEFEFE" fill-rule="nonzero"/></svg>
