<svg version="1.1" xmlns="http://www.w3.org/2000/svg" viewBox="0 0 1024 1024" width="1024" height="1024"><path d="M144.50,1.00 C146.44,1.00 147.00,0.78 147.00,-0.00 L877.50,-0.00 C877.50,0.78 878.06,1.00 880.00,1.00 C884.52,1.12 887.64,1.34 890.25,2.42 L892.99,3.06 C941.16,11.68 979.36,43.40 1000.44,78.25 C1011.84,97.93 1020.51,117.98 1023.04,144.50 C1023.01,146.44 1023.23,147.00 1024.00,147.00 L1024.00,877.00 C1023.23,877.00 1023.00,877.56 1023.00,879.50 C1016.22,944.20 971.49,993.06 921.25,1012.91 C908.97,1017.70 894.93,1022.46 880.00,1022.99 C878.06,1023.00 877.50,1023.23 877.50,1024.00 L146.50,1024.00 C146.50,1023.23 145.94,1023.00 144.00,1022.99 C132.80,1022.71 120.52,1018.79 112.25,1016.51 C80.36,1006.03 54.65,986.36 36.25,963.73 C26.74,952.02 19.18,939.96 13.24,926.25 C7.44,911.99 1.93,897.51 1.00,878.50 C1.00,876.56 0.78,876.00 -0.00,876.00 L-0.00,147.50 C0.78,147.50 1.00,146.81 0.98,144.45 C0.39,140.20 1.90,137.06 2.05,133.54 C2.79,133.07 3.00,132.49 2.99,130.94 C2.76,128.19 3.91,127.56 4.05,124.54 C4.79,124.08 5.00,123.49 5.00,121.94 C7.06,112.14 11.16,101.60 14.93,94.25 C29.83,62.77 52.84,37.86 82.25,20.97 C82.39,22.27 83.61,18.95 83.25,20.25 C100.55,10.55 122.39,2.72 144.50,1.00 Z" fill="#1E76FC" fill-rule="nonzero"/><g><path d="M623.02,340.49 L623.02,423.75 C624.94,432.40 630.24,437.36 638.25,440.44 L723.11,440.51 L724.00,440.51 L724.00,881.36 C718.36,908.98 694.80,900.74 664.50,902.00 L664.50,864.63 C663.90,850.27 631.02,849.88 629.53,863.75 L629.50,928.00 L399.00,928.00 L399.00,863.00 C396.57,850.80 366.33,849.18 363.97,865.03 L363.97,902.00 C335.00,900.62 310.91,909.04 305.02,882.75 L305.25,357.25 C308.36,347.20 315.14,341.18 326.25,339.57 L622.42,339.51 C621.71,340.54 623.73,339.46 623.02,340.49 Z" fill="#FEFEFE" fill-rule="nonzero"/><path d="M473.25,733.06 C473.95,732.91 554.87,732.66 556.57,733.00 C558.31,733.35 562.06,736.76 562.75,738.75 L563.25,817.25 C569.51,818.53 595.14,816.29 599.30,817.75 C603.51,819.22 605.70,825.04 603.36,829.68 L517.69,920.00 C517.69,920.00 512.46,920.00 512.45,920.00 C509.40,919.41 474.92,881.23 469.75,875.77 C465.83,871.62 425.99,830.05 425.50,828.31 C424.16,823.50 427.34,818.35 430.75,817.50 L466.50,817.50 L466.50,739.45 C466.99,737.03 470.72,733.60 473.25,733.06 Z" fill="#04A26A" fill-rule="nonzero"/><path d="M429.75,635.12 L657.38,635.00 C668.39,636.57 668.02,651.00 657.10,652.51 L428.75,652.25 C420.45,649.39 420.98,636.82 429.75,635.12 Z" fill="#032A67" fill-rule="nonzero"/><path d="M454.25,464.59 L592.25,464.75 C601.30,468.00 600.34,481.57 589.75,481.96 L453.75,481.99 C443.83,480.37 443.07,466.35 454.25,464.59 Z" fill="#032A67" fill-rule="nonzero"/><path d="M469.15,576.50 L597.35,576.50 C604.92,579.47 605.04,590.61 597.25,593.75 C556.89,593.80 509.50,594.40 469.25,593.75 C461.40,590.68 461.61,579.43 469.15,576.50 Z" fill="#032A67" fill-rule="nonzero"/><path d="M469.75,520.53 L597.93,520.75 C605.15,524.26 604.59,534.62 597.35,537.50 L469.15,537.50 C461.37,534.49 461.41,522.83 469.75,520.53 Z" fill="#032A67" fill-rule="nonzero"/><path d="M469.15,691.00 L596.53,691.00 C604.56,692.89 605.35,704.30 597.93,707.75 C556.99,708.16 509.51,708.16 468.57,707.75 C461.26,704.17 461.85,693.95 469.15,691.00 Z" fill="#032A67" fill-rule="nonzero"/><path d="M415.75,409.04 L535.79,409.00 C544.51,411.05 545.15,422.99 536.75,426.25 L417.75,426.52 C406.80,426.68 404.85,411.14 415.75,409.04 Z" fill="#032A67" fill-rule="nonzero"/><path d="M351.75,410.14 C353.12,409.87 384.72,409.59 387.03,410.00 C394.55,411.83 395.02,420.79 389.07,424.75 C377.65,425.16 360.85,425.16 349.42,424.75 C343.78,420.92 344.11,411.62 351.75,410.14 Z" fill="#8C58C4" fill-rule="nonzero"/><path d="M365.21,635.50 L400.25,635.52 C408.43,637.24 408.62,647.72 401.25,650.50 L363.58,650.50 C357.08,647.08 357.32,637.24 365.21,635.50 Z" fill="#8C58C4" fill-rule="nonzero"/><path d="M389.75,466.09 C392.09,465.64 425.53,465.99 426.25,466.25 C433.18,468.70 431.99,479.73 425.10,481.00 C423.47,481.30 389.07,481.08 388.75,481.00 C381.52,478.37 381.45,467.70 389.75,466.09 Z" fill="#8C58C4" fill-rule="nonzero"/><path d="M422.50,520.50 L445.02,520.50 L444.75,538.25 L422.50,538.52 L422.50,520.50 Z" fill="#8C58C4" fill-rule="nonzero"/><path d="M422.50,576.50 L445.02,576.50 L444.75,594.25 L422.50,594.52 L422.50,576.50 Z" fill="#8C58C4" fill-rule="nonzero"/><path d="M422.50,690.50 L445.02,690.50 L444.75,708.25 L422.50,708.52 L422.50,690.50 Z" fill="#8C58C4" fill-rule="nonzero"/><path d="M664.50,902.00 L664.50,953.27 C661.79,963.82 655.52,971.02 644.75,973.47 L385.39,973.50 C374.35,971.78 368.10,964.85 364.17,955.25 L363.97,902.00 L363.97,865.03 C366.33,849.18 396.57,850.80 399.00,863.00 L399.00,928.00 L629.50,928.00 L629.53,863.75 C631.02,849.88 663.90,850.27 664.50,864.63 L664.50,902.00 Z" fill="#032A67" fill-rule="nonzero"/><path d="M723.11,440.51 L638.25,440.44 C630.24,437.36 624.94,432.40 623.02,423.75 L623.02,340.49 C624.07,340.49 646.45,362.45 673.44,389.30 C701.97,417.68 722.64,438.62 723.11,440.51 Z" fill="#032A67" fill-rule="nonzero"/></g><path d="M524.17,112.49 L580.25,112.75 L619.25,228.44 C619.72,228.35 619.49,230.65 620.10,228.53 C633.09,190.32 645.58,149.95 659.62,112.50 L714.50,112.50 L714.50,293.50 L674.00,293.50 L674.00,176.00 L673.08,176.00 L632.40,293.52 L604.79,293.25 L564.29,176.00 L563.50,176.00 L563.50,293.50 L523.50,293.50 L523.50,113.17 L524.17,112.49 Z" fill="#FEFEFE" fill-rule="nonzero"/><g><path d="M388.63,112.49 L438.21,112.75 L500.50,293.50 L457.66,293.50 L445.14,256.75 L377.63,256.49 C376.06,257.13 365.00,293.07 364.05,293.50 L323.00,293.50 C344.42,232.76 365.79,171.62 388.63,112.49 Z" fill="#FEFEFE" fill-rule="nonzero"/><path d="M411.09,156.95 C411.29,156.86 412.15,157.30 412.15,157.30 L434.00,223.50 L388.50,223.50 C390.19,216.81 410.46,157.24 411.09,156.95 Z" fill="#1E76FC" fill-rule="nonzero"/></g><path d="M170.50,112.49 L217.72,112.75 L256.01,179.75 L257.27,180.03 L295.10,112.50 L341.00,112.50 L341.00,114.12 L277.50,221.96 L277.50,293.50 L235.50,293.50 L235.50,222.67 C213.85,186.20 191.17,150.03 170.50,112.49 Z" fill="#FEFEFE" fill-rule="nonzero"/><path d="M750.68,112.49 L792.25,112.75 L792.50,260.00 L873.00,260.00 L873.00,293.50 L750.00,293.50 L750.00,113.17 L750.68,112.49 Z" fill="#FEFEFE" fill-rule="nonzero"/><path d="M890.25,2.42 C890.32,2.09 893.79,1.19 892.99,3.06 L890.25,2.42 Z" fill="#FEFEFE" fill-rule="nonzero"/><path d="M5.00,121.94 C5.00,123.49 4.79,124.08 4.05,124.54 C4.01,123.00 4.22,122.42 5.00,121.94 Z" fill="#FEFEFE" fill-rule="nonzero"/><path d="M2.99,130.94 C3.00,132.49 2.79,133.07 2.05,133.54 C2.01,132.00 2.22,131.42 2.99,130.94 Z" fill="#FEFEFE" fill-rule="nonzero"/><path d="M0.98,144.45 C1.00,146.81 0.78,147.50 -0.00,147.50 L-0.00,145.06 L0.98,144.45 Z" fill="#FEFEFE" fill-rule="nonzero"/><path d="M144.50,1.00 L144.50,-0.00 L147.00,-0.00 C147.00,0.78 146.44,1.00 144.50,1.00 Z" fill="#FEFEFE" fill-rule="nonzero"/><path d="M877.50,-0.00 L880.00,-0.00 L880.00,1.00 C878.06,1.00 877.50,0.78 877.50,-0.00 Z" fill="#FEFEFE" fill-rule="nonzero"/><path d="M1024.00,144.50 L1024.00,147.00 C1023.23,147.00 1023.01,146.44 1023.04,144.50 L1024.00,144.50 Z" fill="#FEFEFE" fill-rule="nonzero"/><path d="M-0.00,878.50 L-0.00,876.00 C0.78,876.00 1.00,876.56 1.00,878.50 L-0.00,878.50 Z" fill="#FEFEFE" fill-rule="nonzero"/><path d="M1023.00,879.50 C1023.00,877.56 1023.23,877.00 1024.00,877.00 L1024.00,879.50 L1023.00,879.50 Z" fill="#FEFEFE" fill-rule="nonzero"/><path d="M146.50,1024.00 L144.00,1024.00 L144.00,1022.99 C145.94,1023.00 146.50,1023.23 146.50,1024.00 Z" fill="#FEFEFE" fill-rule="nonzero"/><path d="M880.00,1022.99 L880.00,1024.00 L877.50,1024.00 C877.50,1023.23 878.06,1023.00 880.00,1022.99 Z" fill="#FEFEFE" fill-rule="nonzero"/></svg>
