<svg version="1.1" xmlns="http://www.w3.org/2000/svg" viewBox="0 0 1024 1024" width="1024" height="1024"><path d="M1021.00,128.00 C1021.00,129.89 1021.22,130.58 1021.96,131.04 L1022.97,140.50 C1022.99,142.83 1023.23,143.50 1024.00,143.50 L1024.00,881.00 C1023.23,881.00 1023.00,881.58 1023.00,883.56 C1022.54,895.75 1018.71,908.12 1014.84,918.75 C998.44,963.61 964.28,998.53 919.25,1014.95 C912.06,1016.92 905.35,1020.44 897.06,1021.00 C895.12,1021.00 894.42,1021.22 893.94,1022.00 C891.44,1022.88 887.12,1022.98 884.09,1023.33 C884.45,1023.16 881.25,1022.23 882.00,1024.00 L142.50,1024.00 C142.50,1023.23 141.94,1023.00 140.00,1023.00 C67.25,1014.79 8.06,955.88 1.00,882.00 C1.00,879.67 0.78,879.00 -0.00,879.00 L-0.00,145.00 C0.83,145.00 0.99,144.25 0.75,141.50 C9.31,71.20 58.71,19.00 122.93,4.10 L126.25,3.14 C129.40,1.98 134.97,1.14 141.00,1.00 C142.89,1.00 143.58,0.77 144.06,0.00 L881.00,-0.00 C880.12,1.76 884.19,0.89 883.52,0.74 C899.31,2.04 916.74,7.51 930.25,13.62 C965.85,30.23 994.45,58.34 1010.49,94.75 C1014.85,104.74 1019.22,115.27 1021.00,128.00 Z" fill="#1B74FA" fill-rule="nonzero"/><g><path d="M471.92,391.00 L473.73,404.75 L474.04,591.95 C426.92,589.42 384.91,597.03 352.08,610.25 C350.82,578.23 352.85,560.02 345.03,533.55 C337.67,508.66 323.84,490.18 310.34,471.25 C307.74,466.46 305.76,458.81 306.50,449.51 C320.39,442.63 316.02,429.26 316.22,412.25 C309.70,385.73 197.44,387.33 183.00,408.97 C180.81,413.10 180.68,437.94 183.08,442.74 C184.61,444.56 188.10,447.63 190.48,449.52 C190.33,450.43 190.67,455.39 190.48,456.55 C188.15,470.44 176.80,480.91 169.75,491.22 C134.66,542.59 141.49,572.90 140.50,654.65 C126.47,653.84 108.23,656.49 110.50,639.39 C118.59,611.15 126.78,579.92 129.48,546.75 C132.99,506.15 129.58,457.38 134.04,417.75 C137.70,385.14 145.25,352.81 154.12,324.31 C154.93,315.75 150.28,314.91 147.72,310.66 C141.53,300.39 135.58,268.99 140.44,254.01 C147.68,231.76 193.90,221.21 220.75,216.55 L219.69,219.35 C214.83,223.96 209.51,229.23 204.75,233.25 C188.60,236.05 175.97,242.58 173.95,260.16 C174.55,263.31 210.83,271.27 216.75,272.38 C277.44,283.80 364.62,286.43 415.75,264.98 C449.85,250.67 430.91,241.75 407.75,231.99 C405.16,230.14 404.53,225.67 402.99,222.75 C402.14,221.14 399.64,218.58 399.49,215.51 C419.49,218.72 448.27,221.25 457.47,234.48 C466.42,247.33 465.33,275.13 458.93,290.03 C457.43,293.50 451.75,300.25 451.90,304.33 C459.91,331.69 467.73,360.22 471.92,391.00 Z" fill="#E9C78D" fill-rule="nonzero"/><path d="M399.49,215.51 C399.64,218.58 402.14,221.14 402.99,222.75 C404.53,225.67 405.16,230.14 407.75,231.99 C430.91,241.75 449.85,250.67 415.75,264.98 C364.62,286.43 277.44,283.80 216.75,272.38 C210.83,271.27 174.55,263.31 173.95,260.16 C175.97,242.58 188.60,236.05 204.75,233.25 C209.51,229.23 214.83,223.96 219.69,219.35 L220.75,216.55 C225.64,206.45 235.28,199.80 245.72,194.25 C262.41,174.43 291.61,143.86 330.30,159.75 C358.93,172.84 381.11,192.39 399.49,215.51 Z" fill="#F9ECD2" fill-rule="nonzero"/></g><g><path d="M723.38,350.78 L722.89,354.25 L725.05,352.17 C728.02,349.37 731.66,345.83 733.55,342.09 C744.93,303.01 770.64,276.30 820.83,276.50 C847.35,279.59 850.22,284.06 837.80,305.75 C818.93,332.31 791.01,359.03 741.67,352.50 C732.66,354.05 720.70,371.84 717.33,380.01 C702.22,426.94 688.65,478.36 668.34,520.37 C668.42,521.58 669.18,522.24 670.58,522.00 C671.37,521.87 702.61,491.51 705.56,488.25 C731.82,459.23 708.77,454.77 718.65,420.25 C723.37,406.41 733.53,392.67 749.25,389.40 L754.25,389.11 C773.63,396.88 756.71,438.09 749.78,447.92 C748.15,448.77 749.45,450.89 751.24,449.68 C760.13,442.83 770.48,433.61 774.40,422.25 C784.22,380.73 806.23,352.77 849.25,345.56 C868.13,342.39 915.27,342.79 913.61,361.80 C903.24,397.26 871.93,432.50 829.75,435.61 C814.58,436.72 791.96,431.38 781.05,437.55 L744.75,467.67 L744.75,469.20 L748.75,469.20 C765.24,463.92 777.10,453.97 798.00,453.35 L810.50,453.35 C830.82,451.72 881.78,482.31 852.30,497.57 C827.38,511.66 790.40,510.35 767.16,495.51 C757.43,489.30 748.50,473.24 731.07,480.03 C723.88,482.83 712.45,496.11 706.50,501.60 C698.11,500.41 693.65,503.12 697.15,510.37 L669.25,535.85 L667.75,537.57 C661.47,539.54 652.92,542.43 646.48,545.25 L646.28,540.25 L648.09,538.58 C657.91,519.46 667.91,498.17 675.45,477.15 C698.78,415.27 665.90,428.04 647.87,389.43 L646.25,387.75 L646.25,320.25 L647.57,318.61 L648.52,315.94 C650.96,312.02 654.12,308.36 661.00,310.38 C690.37,327.61 706.18,369.96 690.03,412.51 C689.02,414.92 689.86,425.81 692.74,423.74 C695.65,421.64 713.66,352.35 714.50,342.02 C716.90,312.66 702.22,309.20 691.25,295.70 C677.42,278.68 667.16,251.26 671.62,220.09 C675.94,201.57 677.26,182.80 699.25,198.57 C723.93,218.88 734.19,260.83 720.51,301.75 C720.22,304.38 720.53,317.51 723.67,315.25 L740.45,268.75 L740.50,263.08 C723.91,199.49 762.24,158.10 810.02,145.50 C831.97,140.12 828.14,187.03 825.56,201.25 C819.82,232.82 801.81,255.27 774.75,265.71 C770.41,267.39 756.55,269.95 753.25,272.75 C747.55,277.60 734.31,315.01 731.02,324.74 L723.38,350.78 Z" fill="#4E813B" fill-rule="nonzero"/><path d="M668.44,522.00 C669.80,522.63 667.70,525.42 667.48,525.50 C664.30,526.57 667.04,521.35 668.44,522.00 Z" fill="#1F64BD" fill-rule="nonzero"/><path d="M725.05,352.17 L722.89,354.25 L723.38,350.78 L725.05,352.17 Z" fill="#1F64BD" fill-rule="nonzero"/><path d="M749.78,447.92 L751.24,449.68 C749.45,450.89 748.15,448.77 749.78,447.92 Z" fill="#1F64BD" fill-rule="nonzero"/></g><g><path d="M621.09,564.93 C606.35,582.33 595.91,604.00 594.35,634.70 C571.85,612.82 537.70,600.81 499.50,594.57 L499.50,293.45 C500.69,282.33 507.60,275.95 517.25,272.75 C519.42,272.28 599.75,272.25 602.25,272.75 C612.42,275.61 618.66,281.92 620.44,292.75 L620.50,564.33 C620.50,564.91 621.09,563.98 621.09,564.93 Z" fill="#F1BE12" fill-rule="nonzero"/><g><path d="M767.25,528.88 C849.97,533.10 891.58,628.58 843.48,700.62 C829.35,692.37 815.63,683.79 814.00,662.93 C813.27,653.60 815.94,629.88 813.95,624.75 C810.91,616.91 788.17,614.07 784.93,622.25 C778.81,659.23 780.03,673.16 752.25,688.93 C723.07,701.75 696.90,717.93 686.69,749.04 C653.36,740.13 626.93,722.70 611.21,697.08 L611.19,672.75 C610.84,655.74 602.75,643.75 594.35,634.70 C595.91,604.00 606.35,582.33 621.09,564.93 C628.03,557.76 637.81,550.31 646.48,545.25 C652.92,542.43 661.47,539.54 667.75,537.57 L670.49,537.19 L677.91,536.34 C686.23,541.22 700.01,541.26 705.50,549.00 C698.50,550.87 669.09,569.30 679.45,577.50 C685.54,579.26 717.21,557.83 726.75,560.49 C730.40,561.51 751.25,590.86 753.63,591.50 C765.24,594.63 756.21,567.06 755.02,564.25 C750.99,554.76 743.04,554.19 770.75,555.57 C774.28,555.75 793.63,559.05 795.00,554.93 C797.80,546.49 766.36,538.15 754.50,540.00 C755.26,534.90 759.72,532.82 761.68,528.88 L767.25,528.88 Z" fill="#E13C1D" fill-rule="nonzero"/><g><path d="M598.54,115.08 C598.77,131.66 596.90,173.86 599.92,185.25 C604.61,202.97 643.01,217.05 646.11,258.23 L646.11,310.75 L646.25,320.25 L646.25,387.75 L646.15,418.25 L646.13,526.75 L646.28,540.25 L646.48,545.25 C637.81,550.31 628.03,557.76 621.09,564.93 C621.09,563.98 620.50,564.91 620.50,564.33 L620.44,292.75 C618.66,281.92 612.42,275.61 602.25,272.75 C599.75,272.25 519.42,272.28 517.25,272.75 C507.60,275.95 500.69,282.33 499.50,293.45 L499.50,594.57 C491.24,593.70 482.44,592.58 474.04,591.95 L473.73,404.75 L473.86,383.25 L474.00,255.25 C475.81,252.15 475.89,246.16 476.90,243.75 C485.46,215.65 516.32,199.07 520.11,186.51 C523.01,176.91 521.24,129.84 521.42,115.13 L598.54,115.08 Z" fill="#828328" fill-rule="nonzero"/><path d="M598.54,115.08 L521.42,115.13 C518.37,114.04 515.23,111.89 514.25,108.25 C514.00,107.32 513.68,72.39 514.05,69.75 C514.85,64.05 518.41,59.79 523.96,58.96 C527.77,58.39 597.88,59.15 598.25,59.25 C602.11,60.79 604.00,63.11 605.75,66.67 L606.03,107.75 C604.85,111.60 602.30,113.98 598.54,115.08 Z" fill="#38562B" fill-rule="nonzero"/><g><path d="M647.87,389.43 C665.90,428.04 698.78,415.27 675.45,477.15 C667.91,498.17 657.91,519.46 648.09,538.58 C646.66,538.51 646.50,537.50 646.13,526.75 L646.15,418.25 C646.48,392.23 646.64,389.49 647.87,389.43 Z" fill="#1B74FA" fill-rule="nonzero"/><path d="M646.25,387.75 L647.87,389.43 C646.64,389.49 646.48,392.23 646.15,418.25 L646.25,387.75 Z" fill="#1F64BD" fill-rule="nonzero"/><path d="M648.09,538.58 L646.28,540.25 L646.13,526.75 C646.50,537.50 646.66,538.51 648.09,538.58 Z" fill="#1F64BD" fill-rule="nonzero"/></g><path d="M473.86,383.25 L473.73,404.75 L471.92,391.00 C473.30,391.00 473.50,390.20 473.86,383.25 Z" fill="#1F64BD" fill-rule="nonzero"/><path d="M646.53,316.00 C645.94,318.17 647.54,318.54 647.57,318.61 L646.25,320.25 L646.11,310.75 L646.53,316.00 Z" fill="#8767A3" fill-rule="nonzero"/><path d="M648.52,315.94 L647.57,318.61 C647.54,318.54 645.94,318.17 646.53,316.00 L648.52,315.94 Z" fill="#1F64BD" fill-rule="nonzero"/></g><g><path d="M843.48,700.62 C865.75,717.73 887.03,738.78 884.50,780.25 C880.53,811.16 859.94,835.80 822.92,828.49 C844.21,817.44 857.33,793.97 854.12,760.75 C848.13,728.74 829.29,709.40 813.40,687.50 C808.87,685.41 818.19,703.16 818.12,704.25 C834.39,746.32 849.00,786.52 816.42,827.44 L815.31,827.95 C809.27,831.99 801.11,836.13 790.82,836.53 C789.59,822.17 775.63,829.35 770.05,834.59 C760.92,831.76 752.51,826.30 747.25,820.55 C719.41,770.12 759.26,719.16 777.63,685.43 C776.08,681.98 770.45,691.99 769.25,691.89 C752.74,708.30 730.37,731.35 724.12,756.25 C717.07,784.33 725.16,806.79 740.69,820.50 C700.18,820.83 676.92,791.50 686.69,749.04 C696.90,717.93 723.07,701.75 752.25,688.93 C780.03,673.16 778.81,659.23 784.93,622.25 C788.17,614.07 810.91,616.91 813.95,624.75 C815.94,629.88 813.27,653.60 814.00,662.93 C815.63,683.79 829.35,692.37 843.48,700.62 Z" fill="#F9ECD2" fill-rule="nonzero"/><path d="M816.42,827.44 C849.00,786.52 834.39,746.32 818.12,704.25 C818.19,703.16 808.87,685.41 813.40,687.50 C829.29,709.40 848.13,728.74 854.12,760.75 C857.33,793.97 844.21,817.44 822.92,828.49 L819.75,827.87 L816.42,827.44 Z" fill="#F5E0B9" fill-rule="nonzero"/><path d="M740.69,820.50 C725.16,806.79 717.07,784.33 724.12,756.25 C730.37,731.35 752.74,708.30 769.25,691.89 C770.45,691.99 776.08,681.98 777.63,685.43 C759.26,719.16 719.41,770.12 747.25,820.55 L740.69,820.50 Z" fill="#F5E0B9" fill-rule="nonzero"/></g><g><path d="M706.50,501.60 C717.74,506.99 725.80,516.81 731.58,528.01 C731.58,528.01 733.49,529.04 733.51,529.04 C735.40,529.04 752.91,503.71 766.48,507.50 C780.34,516.33 753.67,529.17 767.25,528.88 L761.68,528.88 C759.72,532.82 755.26,534.90 754.50,540.00 C766.36,538.15 797.80,546.49 795.00,554.93 C793.63,559.05 774.28,555.75 770.75,555.57 C743.04,554.19 750.99,554.76 755.02,564.25 C756.21,567.06 765.24,594.63 753.63,591.50 C751.25,590.86 730.40,561.51 726.75,560.49 C717.21,557.83 685.54,579.26 679.45,577.50 C669.09,569.30 698.50,550.87 705.50,549.00 C700.01,541.26 686.23,541.22 677.91,536.34 C682.53,526.41 704.54,530.08 713.25,533.92 C710.90,525.75 702.78,516.71 697.15,510.37 C693.65,503.12 698.11,500.41 706.50,501.60 Z" fill="#38562B" fill-rule="nonzero"/><g><path d="M697.15,510.37 C702.78,516.71 710.90,525.75 713.25,533.92 C704.54,530.08 682.53,526.41 677.91,536.34 L670.49,537.19 L669.25,535.85 L697.15,510.37 Z" fill="#1B74FA" fill-rule="nonzero"/><path d="M669.25,535.85 L670.49,537.19 L667.75,537.57 L669.25,535.85 Z" fill="#1F64BD" fill-rule="nonzero"/></g></g></g></g><g><path d="M337.99,617.19 C318.47,629.31 296.47,643.77 297.00,675.75 C296.38,707.82 303.66,732.57 313.65,754.21 C257.89,732.27 207.29,765.39 191.91,805.56 C174.57,801.06 157.50,797.61 155.50,777.54 L155.50,575.11 C157.98,558.38 189.27,559.83 205.25,562.96 C225.86,566.99 253.91,580.64 276.75,578.99 C292.43,576.87 305.83,571.94 319.75,567.90 C321.57,567.41 331.76,563.60 334.75,565.25 C339.85,568.07 334.77,609.59 337.99,617.19 Z" fill="#F6F6F0" fill-rule="nonzero"/><g><path d="M306.50,449.51 C305.76,458.81 307.74,466.46 310.34,471.25 C323.84,490.18 337.67,508.66 345.03,533.55 C352.85,560.02 350.82,578.23 352.08,610.25 L337.99,617.19 C334.77,609.59 339.85,568.07 334.75,565.25 C331.76,563.60 321.57,567.41 319.75,567.90 C305.83,571.94 292.43,576.87 276.75,578.99 C253.91,580.64 225.86,566.99 205.25,562.96 C189.27,559.83 157.98,558.38 155.50,575.11 L155.50,777.54 C157.50,797.61 174.57,801.06 191.91,805.56 C190.75,809.89 188.79,815.42 187.96,820.48 C163.05,816.31 143.46,806.10 140.50,779.75 L140.50,654.65 C141.49,572.90 134.66,542.59 169.75,491.22 C176.80,480.91 188.15,470.44 190.48,456.55 C190.67,455.39 190.33,450.43 190.48,449.52 C219.51,462.64 277.57,463.29 306.50,449.51 Z" fill="#D0E3F4" fill-rule="nonzero"/><g><path d="M313.65,754.21 C337.48,765.64 356.95,786.56 360.79,817.75 C361.01,830.73 361.22,834.51 361.72,834.53 C357.52,855.14 349.34,872.29 337.82,885.37 C303.05,923.26 232.50,920.67 200.86,881.51 C192.06,877.31 191.04,881.11 192.41,867.75 C188.26,855.86 184.42,836.61 187.96,820.48 C188.79,815.42 190.75,809.89 191.91,805.56 C207.29,765.39 257.89,732.27 313.65,754.21 Z" fill="#B27333" fill-rule="nonzero"/><path d="M325.25,811.93 C321.37,812.44 316.06,812.05 313.25,812.50 C294.59,815.48 295.00,830.64 279.04,834.93 C275.02,836.01 269.79,835.98 265.75,837.05 C255.19,839.86 252.52,849.29 244.75,853.89 C236.68,858.66 230.16,856.85 223.14,859.98 C216.74,862.83 212.51,868.99 206.42,872.10 C187.44,881.80 215.22,856.27 216.82,855.21 C223.27,850.92 230.66,851.47 237.55,848.50 C247.09,844.37 250.22,832.49 261.75,829.15 C266.21,827.86 271.60,828.02 276.17,826.85 C289.16,823.52 290.36,810.67 304.25,806.10 C316.39,802.09 322.65,807.36 335.75,800.57 C352.62,786.82 343.34,809.55 325.25,811.93 Z" fill="#905B2C" fill-rule="nonzero"/><path d="M326.75,776.95 C328.61,777.20 340.19,779.13 335.45,781.75 C333.25,782.96 318.67,779.50 307.21,786.43 C304.96,787.80 303.03,790.21 300.75,791.60 C292.05,796.91 283.26,793.42 274.51,797.94 C266.06,802.31 263.64,810.03 253.25,813.89 C250.55,814.89 247.49,815.13 244.75,816.15 C232.81,820.59 230.46,832.12 221.69,838.75 C210.36,843.90 204.48,854.35 197.93,864.06 C193.41,863.69 205.12,843.65 205.43,843.25 C209.44,838.75 214.66,835.06 219.48,831.49 C227.78,818.75 232.96,808.98 251.72,806.51 C262.47,802.64 264.76,791.54 279.91,788.96 C283.32,788.37 290.24,788.74 292.75,788.10 C301.50,785.86 306.22,774.16 326.75,776.95 Z" fill="#905B2C" fill-rule="nonzero"/><path d="M330.75,840.76 C331.30,852.20 319.84,863.23 311.25,865.88 C307.87,866.93 303.67,867.09 300.25,868.06 C289.17,871.21 285.71,879.69 277.13,882.95 C262.72,888.43 255.25,881.36 246.59,882.93 L235.75,888.23 C225.74,890.64 195.71,882.08 215.25,882.95 C218.87,883.12 228.38,884.09 231.75,883.25 C238.51,880.50 242.44,875.47 252.18,875.88 C254.62,875.98 258.71,877.46 261.45,877.62 C278.88,878.63 281.47,867.90 291.25,863.20 C306.63,855.79 309.66,863.76 322.86,848.75 C323.99,847.47 328.62,838.63 330.75,840.76 Z" fill="#905B2C" fill-rule="nonzero"/><path d="M292.03,766.00 C293.89,771.11 287.95,768.08 285.75,767.92 C257.85,765.85 265.45,774.42 251.25,777.63 C229.20,777.87 231.70,792.03 221.02,799.50 C212.84,802.19 208.71,808.61 205.25,816.08 C204.53,816.13 204.74,817.98 202.87,816.36 C203.45,804.34 211.26,797.40 219.41,793.05 C226.22,782.39 232.30,771.14 250.44,772.00 C260.50,764.38 277.25,756.98 292.03,766.00 Z" fill="#905B2C" fill-rule="nonzero"/><path d="M305.75,883.00 C314.43,887.42 285.71,899.98 279.85,894.85 C288.10,891.17 298.67,888.26 305.75,883.00 Z" fill="#905B2C" fill-rule="nonzero"/><g><path d="M611.19,672.75 L611.21,697.08 L610.05,697.08 C609.97,715.34 603.48,732.99 598.08,747.55 C557.49,750.55 532.17,777.98 534.04,823.54 C518.98,831.21 501.92,838.22 481.45,840.45 C481.92,835.36 486.36,832.89 486.00,826.85 C458.89,803.31 401.75,802.08 372.43,825.15 L360.79,817.75 C356.95,786.56 337.48,765.64 313.65,754.21 C303.66,732.57 296.38,707.82 297.00,675.75 L299.26,676.82 C302.60,690.09 311.22,698.07 318.96,706.57 L320.75,706.57 C374.90,761.92 536.70,762.36 589.06,704.98 L590.90,704.98 C599.41,697.17 606.20,687.38 610.27,674.88 C609.28,674.52 610.50,672.88 611.19,672.75 Z" fill="#905B2C" fill-rule="nonzero"/><path d="M598.08,747.55 C644.91,748.27 682.94,795.54 689.97,835.25 C698.18,881.61 670.62,909.65 624.75,906.48 C576.52,901.08 540.08,870.76 534.04,823.54 C532.17,777.98 557.49,750.55 598.08,747.55 Z" fill="#F5E0B9" fill-rule="nonzero"/><g><path d="M481.45,840.45 C467.46,862.52 450.43,882.31 422.47,890.45 C420.43,890.33 420.74,892.69 422.51,892.69 C435.27,902.37 444.96,917.55 447.11,938.53 C446.10,948.57 410.24,943.66 403.25,942.13 C372.79,935.48 345.37,914.92 337.82,885.37 C349.34,872.29 357.52,855.14 361.72,834.53 C364.67,832.02 369.77,827.97 372.43,825.15 C401.75,802.08 458.89,803.31 486.00,826.85 C486.36,832.89 481.92,835.36 481.45,840.45 Z" fill="#617F30" fill-rule="nonzero"/><path d="M372.43,825.15 C369.77,827.97 364.67,832.02 361.72,834.53 C361.22,834.51 361.01,830.73 360.79,817.75 L372.43,825.15 Z" fill="#1B74FA" fill-rule="nonzero"/><path d="M422.47,890.45 L422.51,892.69 C420.74,892.69 420.43,890.33 422.47,890.45 Z" fill="#1F64BD" fill-rule="nonzero"/></g></g></g><path d="M190.48,449.52 C188.10,447.63 184.61,444.56 183.08,442.74 C180.68,437.94 180.81,413.10 183.00,408.97 C197.44,387.33 309.70,385.73 316.22,412.25 C316.02,429.26 320.39,442.63 306.50,449.51 C277.57,463.29 219.51,462.64 190.48,449.52 Z" fill="#1F64BD" fill-rule="nonzero"/></g></g><g><path d="M756.03,867.90 L762.42,872.20 L760.00,874.85 C759.97,874.91 757.61,876.61 758.49,877.31 C759.07,877.78 763.42,877.39 761.81,877.11 C770.14,875.86 779.83,874.29 788.28,873.76 C791.80,873.00 793.25,870.13 795.25,868.61 L799.92,873.63 L811.75,872.97 L813.98,874.01 C820.25,875.37 826.79,877.91 831.49,880.37 C831.50,881.29 830.67,882.54 827.82,885.93 C824.41,884.78 820.12,882.03 815.33,881.32 L812.25,880.99 C807.87,878.77 797.03,873.58 792.85,880.41 C784.52,879.35 773.37,881.30 766.25,883.53 C757.89,881.83 746.84,881.27 744.51,889.43 C738.60,889.82 732.75,891.58 729.03,893.97 L728.25,894.10 L722.75,894.40 C719.53,893.83 717.84,896.71 717.61,898.75 C689.49,907.88 670.25,926.40 648.75,942.00 C647.29,942.30 644.51,941.68 644.00,940.00 C640.75,929.34 701.72,894.75 713.59,891.09 C716.09,889.35 718.04,885.47 718.81,882.56 C722.16,884.02 728.13,887.54 730.80,883.70 L734.35,883.25 L744.25,879.74 L756.03,867.90 Z" fill="#4E813B" fill-rule="nonzero"/><path d="M766.25,883.53 C778.15,889.07 793.56,899.57 792.50,917.35 C777.88,937.44 746.99,903.36 744.51,889.43 C746.84,881.27 757.89,881.83 766.25,883.53 Z" fill="#8767A3" fill-rule="nonzero"/><g><path d="M732.75,881.69 L730.80,883.70 C728.13,887.54 722.16,884.02 718.81,882.56 C715.73,862.88 730.07,838.09 744.75,834.90 C764.91,839.33 740.90,878.02 733.75,880.86 L732.75,881.69 Z" fill="#8767A3" fill-rule="nonzero"/><path d="M732.75,881.69 L734.35,883.25 L730.80,883.70 L732.75,881.69 Z" fill="#1F64BD" fill-rule="nonzero"/></g><g><path d="M814.01,871.92 L811.75,872.97 L799.92,873.63 L795.25,868.61 C798.17,854.50 818.04,832.01 836.25,838.81 C848.47,851.54 823.86,869.16 814.01,871.92 Z" fill="#8767A3" fill-rule="nonzero"/><path d="M814.01,871.92 L813.98,874.01 L811.75,872.97 L814.01,871.92 Z" fill="#1F64BD" fill-rule="nonzero"/></g><path d="M729.03,893.97 C740.39,895.58 770.44,921.47 753.75,933.49 C736.78,934.74 719.20,913.91 717.61,898.75 C717.84,896.71 719.53,893.83 722.75,894.40 L728.25,894.10 L729.03,893.97 Z" fill="#8767A3" fill-rule="nonzero"/><path d="M790.82,836.53 C788.98,852.45 777.09,868.43 762.42,872.20 L756.03,867.90 C755.50,852.47 763.66,843.26 770.05,834.59 C775.63,829.35 789.59,822.17 790.82,836.53 Z" fill="#8767A3" fill-rule="nonzero"/><path d="M827.82,885.93 C830.67,882.54 831.50,881.29 831.49,880.37 C847.29,876.64 874.52,900.08 856.44,908.63 C840.84,908.73 831.08,898.42 827.82,885.93 Z" fill="#8767A3" fill-rule="nonzero"/><g><path d="M812.25,880.99 L814.27,883.02 C836.43,905.21 813.58,919.06 797.75,896.14 C795.54,892.43 792.75,887.16 792.85,880.41 C797.03,873.58 807.87,878.77 812.25,880.99 Z" fill="#8767A3" fill-rule="nonzero"/><path d="M815.33,881.32 L814.27,883.02 L812.25,880.99 L815.33,881.32 Z" fill="#1F64BD" fill-rule="nonzero"/></g><path d="M760.00,874.85 C759.54,876.67 760.93,877.17 761.81,877.11 C763.42,877.39 759.07,877.78 758.49,877.31 C757.61,876.61 759.97,874.91 760.00,874.85 Z" fill="#1F64BD" fill-rule="nonzero"/></g><g><path d="M846.00,868.77 C851.87,857.08 875.20,847.66 888.43,859.41 C899.71,880.11 856.06,884.47 846.97,872.61 C848.12,871.38 846.96,869.41 846.00,868.77 Z" fill="#8767A3" fill-rule="nonzero"/><g><path d="M846.00,868.77 C846.96,869.41 848.12,871.38 846.97,872.61 L834.00,872.50 L833.99,870.43 L846.00,868.77 Z" fill="#4E813B" fill-rule="nonzero"/><path d="M833.99,870.43 L834.00,872.50 L832.25,872.62 L827.46,872.46 L827.48,871.36 C828.51,870.76 831.91,870.43 833.99,870.43 Z" fill="#38562B" fill-rule="nonzero"/></g></g><path d="M798.00,453.35 L810.50,453.35 L798.00,453.35 Z" fill="#38562B" fill-rule="nonzero"/><g><path d="M827.48,871.36 L827.46,872.46 L826.81,873.03 L825.00,873.00 L824.88,871.38 L827.48,871.36 Z" fill="#8767A3" fill-rule="nonzero"/><path d="M824.88,871.38 L825.00,873.00 C821.85,873.51 824.23,871.10 824.88,871.38 Z" fill="#1F64BD" fill-rule="nonzero"/></g><path d="M1021.96,131.04 C1021.22,130.58 1021.00,129.89 1021.00,128.00 C1021.77,128.00 1021.99,128.68 1021.96,131.04 Z" fill="#D0E3F4" fill-rule="nonzero"/><path d="M827.46,872.46 L832.25,872.62 L826.81,873.03 L827.46,872.46 Z" fill="#1F64BD" fill-rule="nonzero"/><path d="M728.25,894.10 L722.75,894.40 L728.25,894.10 Z" fill="#38562B" fill-rule="nonzero"/><path d="M897.06,1021.00 C896.58,1021.77 895.88,1022.00 893.94,1022.00 C894.42,1021.22 895.12,1021.00 897.06,1021.00 Z" fill="#8767A3" fill-rule="nonzero"/><path d="M126.25,3.14 L122.93,4.10 C122.87,2.84 125.02,2.79 126.25,3.14 Z" fill="#D0E3F4" fill-rule="nonzero"/><path d="M754.25,389.11 L749.25,389.40 L754.25,389.11 Z" fill="#38562B" fill-rule="nonzero"/><path d="M748.75,469.20 L744.75,469.20 L748.75,469.20 Z" fill="#38562B" fill-rule="nonzero"/><path d="M816.42,827.44 L819.75,827.87 L815.31,827.95 L816.42,827.44 Z" fill="#1F64BD" fill-rule="nonzero"/><path d="M733.75,880.86 L732.75,881.69 L733.75,880.86 Z" fill="#1F64BD" fill-rule="nonzero"/><path d="M0.75,141.50 C0.99,144.25 0.83,145.00 -0.00,145.00 L-0.00,141.50 L0.75,141.50 Z" fill="#D0E3F4" fill-rule="nonzero"/><path d="M1024.00,140.50 L1024.00,143.50 C1023.23,143.50 1022.99,142.83 1022.97,140.50 L1024.00,140.50 Z" fill="#D0E3F4" fill-rule="nonzero"/><path d="M-0.00,882.00 L-0.00,879.00 C0.78,879.00 1.00,879.67 1.00,882.00 L-0.00,882.00 Z" fill="#D0E3F4" fill-rule="nonzero"/><path d="M141.00,1.00 L141.00,-0.00 L144.06,0.00 C143.58,0.77 142.89,1.00 141.00,1.00 Z" fill="#D0E3F4" fill-rule="nonzero"/><path d="M883.52,0.74 C884.19,0.89 880.12,1.76 881.00,-0.00 L883.50,-0.00 L883.52,0.74 Z" fill="#D0E3F4" fill-rule="nonzero"/><path d="M142.50,1024.00 L140.00,1024.00 L140.00,1023.00 C141.94,1023.00 142.50,1023.23 142.50,1024.00 Z" fill="#D0E3F4" fill-rule="nonzero"/><path d="M1023.00,883.56 C1023.00,881.58 1023.23,881.00 1024.00,881.00 L1024.00,882.94 L1023.00,883.56 Z" fill="#D0E3F4" fill-rule="nonzero"/><path d="M884.09,1023.33 L884.00,1024.00 L882.00,1024.00 C881.25,1022.23 884.45,1023.16 884.09,1023.33 Z" fill="#D0E3F4" fill-rule="nonzero"/><path d="M589.06,704.98 C536.70,762.36 374.90,761.92 320.75,706.57 C335.44,681.09 358.66,664.01 380.25,645.41 C395.47,633.13 427.30,606.32 453.98,606.32 C488.41,606.32 531.36,647.14 551.25,664.59 C568.26,672.17 583.44,685.03 589.06,704.98 Z" fill="#FAD998" fill-rule="nonzero"/><path d="M474.04,591.95 C482.44,592.58 491.24,593.70 499.50,594.57 C537.70,600.81 571.85,612.82 594.35,634.70 C602.75,643.75 610.84,655.74 611.19,672.75 C610.50,672.88 609.28,674.52 610.27,674.88 C606.20,687.38 599.41,697.17 590.90,704.98 L589.06,704.98 C583.44,685.03 568.26,672.17 551.25,664.59 C531.36,647.14 488.41,606.32 453.98,606.32 C427.30,606.32 395.47,633.13 380.25,645.41 C358.66,664.01 335.44,681.09 320.75,706.57 L318.96,706.57 C311.22,698.07 302.60,690.09 299.26,676.82 L297.00,675.75 C296.47,643.77 318.47,629.31 337.99,617.19 L352.08,610.25 C384.91,597.03 426.92,589.42 474.04,591.95 Z" fill="#764C24" fill-rule="nonzero"/></svg>
