<svg version="1.1" xmlns="http://www.w3.org/2000/svg" viewBox="0 0 1024 1024" width="1024" height="1024"><path d="M164.00,1.05 C166.33,1.01 167.00,0.78 167.00,-0.00 L854.44,0.00 C854.75,1.79 858.55,0.71 860.50,1.00 C867.07,1.20 872.50,1.83 876.75,3.09 L879.97,4.10 L880.75,4.07 L883.98,5.07 C895.26,6.83 905.48,10.97 914.75,15.04 C963.61,37.61 1000.42,76.39 1017.00,131.94 C1017.00,133.49 1017.22,134.08 1017.98,134.56 L1019.35,139.19 C1018.63,139.31 1020.96,142.31 1019.91,143.92 L1020.90,147.75 L1021.61,149.75 L1021.89,153.75 L1023.00,162.44 C1023.00,164.81 1023.23,165.50 1024.00,165.50 L1024.00,859.50 C1023.23,859.50 1023.00,860.06 1023.00,862.00 L1022.85,867.00 C1013.54,924.14 983.08,966.28 943.75,992.94 C927.04,1004.24 907.82,1014.06 885.06,1019.00 C883.12,1019.00 882.42,1019.21 881.95,1019.95 L876.02,1021.10 C874.65,1020.67 872.80,1021.29 872.25,1021.99 L870.58,1021.97 L867.25,1022.49 L861.49,1022.99 L855.25,1023.91 L166.00,1024.00 C166.00,1023.22 165.33,1023.00 163.00,1023.00 C107.97,1017.51 71.04,991.01 43.19,959.75 C31.57,946.09 21.20,929.71 14.07,912.75 C9.44,901.36 4.69,889.00 3.08,874.98 L2.15,871.25 C1.56,868.02 0.57,865.54 1.00,860.00 C1.00,857.26 0.78,856.50 -0.00,856.50 L-0.00,168.50 C0.78,168.50 0.97,167.37 0.88,163.49 L2.11,153.25 L3.10,148.91 L3.09,147.25 L4.10,143.93 C4.35,138.44 6.64,132.65 7.98,127.75 C21.27,85.99 47.30,54.11 80.04,31.00 C98.12,19.23 118.94,8.78 143.94,4.00 C145.51,4.18 147.14,3.80 147.75,2.99 C152.79,2.34 158.07,0.92 164.00,1.05 Z" fill="#1E74FC" fill-rule="nonzero"/><g><path d="M581.00,538.50 L615.10,538.44 L766.75,539.19 C783.90,541.19 794.32,552.49 799.58,568.25 C799.53,583.62 799.25,606.33 799.75,622.75 C799.31,701.12 799.39,788.20 799.71,866.25 C794.34,881.57 785.72,890.97 769.75,895.25 L327.75,895.50 C309.48,892.79 299.94,882.33 294.32,866.25 C294.78,822.52 294.44,771.11 294.25,726.29 L294.50,690.75 L294.53,569.25 C298.94,553.05 308.60,544.48 323.75,539.00 L395.25,538.83 L420.25,538.65 L581.00,538.50 Z" fill="#022B70" fill-rule="nonzero"/><path d="M489.75,611.85 C537.19,639.34 583.72,667.77 630.25,696.08 C637.69,702.10 638.18,713.47 630.61,719.78 L493.53,804.54 C484.32,810.09 473.89,804.06 472.50,795.32 L472.50,622.16 C474.48,615.47 481.11,609.54 489.75,611.85 Z" fill="#FEFEFD" fill-rule="nonzero"/><path d="M745.52,700.16 C770.90,700.28 769.09,698.87 768.89,718.34 L768.75,731.42 L767.50,732.78 C765.04,735.44 764.54,735.50 744.53,735.50 C718.51,735.50 720.36,736.76 720.09,718.77 C719.79,698.89 718.21,700.04 745.52,700.16 Z" fill="#1E74FC" fill-rule="nonzero"/><path d="M349.00,700.07 C368.78,700.00 370.20,700.15 372.22,702.55 L373.50,704.08 L373.50,717.72 C373.50,737.06 375.61,735.50 349.48,735.50 C323.33,735.50 325.32,736.83 325.09,719.28 C324.82,698.70 323.00,700.16 349.00,700.07 Z" fill="#1E74FC" fill-rule="nonzero"/><path d="M744.81,764.50 C771.05,764.50 769.00,763.01 769.00,782.00 C769.00,800.90 770.97,799.50 744.50,799.50 C718.11,799.50 720.33,801.03 720.08,782.71 C719.82,763.04 717.83,764.50 744.81,764.50 Z" fill="#1E74FC" fill-rule="nonzero"/><path d="M744.49,636.00 C771.01,636.00 769.10,634.56 768.89,654.41 L768.75,667.58 L766.88,669.29 L765.01,671.00 L744.88,670.99 C718.02,670.98 720.31,672.55 720.10,654.09 C719.88,634.64 718.05,636.00 744.49,636.00 Z" fill="#1E74FC" fill-rule="nonzero"/><path d="M744.36,572.00 C771.02,572.00 769.00,570.55 769.00,589.76 C769.00,608.42 771.02,607.00 744.45,607.00 C717.92,607.00 719.84,608.48 720.10,588.34 L720.25,575.93 L722.36,573.96 L724.46,572.00 L744.36,572.00 Z" fill="#1E74FC" fill-rule="nonzero"/><path d="M744.44,828.50 C770.89,828.50 769.00,827.16 769.00,845.97 C769.00,864.91 770.97,863.50 744.50,863.50 C718.10,863.50 720.32,865.03 720.09,846.65 C719.83,827.09 717.94,828.50 744.44,828.50 Z" fill="#1E74FC" fill-rule="nonzero"/><path d="M349.46,764.50 C375.94,764.50 373.50,762.70 373.50,782.28 L373.50,795.62 L371.56,797.56 L369.62,799.50 L349.68,799.50 C323.00,799.50 325.00,800.91 325.00,782.00 C325.00,763.00 322.90,764.50 349.46,764.50 Z" fill="#1E74FC" fill-rule="nonzero"/><path d="M330.25,635.98 C331.56,635.69 369.83,636.15 370.08,636.25 L373.50,639.99 L373.50,667.60 L370.10,671.00 C369.65,671.13 329.14,671.00 329.13,671.00 C327.51,670.55 325.32,667.33 325.00,665.53 C326.34,655.75 321.24,637.98 330.25,635.98 Z" fill="#1E74FC" fill-rule="nonzero"/><path d="M349.40,828.50 C375.78,828.50 373.50,826.84 373.50,846.00 C373.50,865.16 375.78,863.50 349.40,863.50 C323.04,863.50 325.00,864.90 325.00,845.97 C325.00,827.14 323.09,828.50 349.40,828.50 Z" fill="#1E74FC" fill-rule="nonzero"/><path d="M349.50,572.01 C375.75,572.01 373.46,570.34 373.48,589.40 C373.51,608.67 375.80,607.00 349.40,607.00 C323.04,607.00 325.00,608.40 325.00,589.47 C325.00,570.63 323.07,572.00 349.50,572.01 Z" fill="#1E74FC" fill-rule="nonzero"/><g><path d="M799.75,622.75 C799.25,606.33 799.53,583.62 799.58,568.25 C794.32,552.49 783.90,541.19 766.75,539.19 L615.10,538.44 C598.85,463.18 582.66,387.48 566.44,312.37 C566.35,311.95 566.97,311.35 566.92,311.11 C578.30,294.93 590.85,279.63 605.52,266.75 C694.77,188.42 826.88,204.27 898.78,286.25 C1002.67,409.82 937.49,585.40 799.75,622.75 Z" fill="#FD523D" fill-rule="nonzero"/><path d="M820.75,302.61 C828.45,301.05 833.14,305.47 834.51,310.87 L834.25,481.25 C825.11,520.56 760.45,517.96 757.40,475.36 C758.64,448.37 789.25,432.98 816.21,445.97 C817.31,439.93 817.42,366.38 816.75,364.91 C815.31,363.50 814.94,362.98 811.96,363.00 L711.75,385.61 C710.07,386.24 707.01,388.79 706.50,391.46 L706.47,501.25 C704.85,526.60 675.13,541.81 649.25,529.95 C605.45,506.21 641.19,448.79 688.50,471.00 L688.50,341.01 C689.81,335.80 693.00,331.67 697.39,329.97 L820.75,302.61 Z" fill="#FEFEFD" fill-rule="nonzero"/></g></g><g><path d="M182.86,596.62 L120.84,310.75 C120.98,292.54 132.14,283.42 149.25,281.41 L483.25,208.37 C500.61,206.17 509.20,213.87 513.98,225.75 L564.03,456.69 L563.10,457.62 C523.98,429.59 485.18,399.32 447.14,371.16 C437.42,366.89 431.14,370.50 427.04,376.25 L364.44,487.00 L362.75,486.99 L294.75,438.02 C283.72,432.72 273.52,437.27 268.19,444.75 C239.74,495.43 212.22,547.00 182.86,596.62 Z" fill="#70C0FB" fill-rule="nonzero"/><path d="M238.93,306.99 C268.48,314.04 289.16,350.07 270.37,382.75 C247.56,422.43 185.00,412.92 176.02,366.36 C169.02,330.07 202.30,298.26 238.93,306.99 Z" fill="#FCC802" fill-rule="nonzero"/><g><path d="M563.10,457.62 C564.56,459.93 564.98,460.89 564.99,461.25 L581.00,538.50 L420.25,538.65 L395.25,538.83 L323.75,539.00 C308.60,544.48 298.94,553.05 294.53,569.25 L294.50,690.75 L230.75,704.50 C212.56,706.19 202.31,693.48 200.55,678.75 C194.87,651.37 188.29,623.87 182.86,596.62 C212.22,547.00 239.74,495.43 268.19,444.75 C273.52,437.27 283.72,432.72 294.75,438.02 L362.75,486.99 L364.44,487.00 L427.04,376.25 C431.14,370.50 437.42,366.89 447.14,371.16 C485.18,399.32 523.98,429.59 563.10,457.62 Z" fill="#21AC4F" fill-rule="nonzero"/><path d="M566.92,311.11 C566.97,311.35 566.35,311.95 566.44,312.37 C582.66,387.48 598.85,463.18 615.10,538.44 L581.00,538.50 L564.99,461.25 C564.98,460.89 564.56,459.93 563.10,457.62 L564.03,456.69 L513.98,225.75 C509.20,213.87 500.61,206.17 483.25,208.37 L149.25,281.41 C132.14,283.42 120.98,292.54 120.84,310.75 L182.86,596.62 C188.29,623.87 194.87,651.37 200.55,678.75 C202.31,693.48 212.56,706.19 230.75,704.50 L294.50,690.75 L294.25,726.29 L210.65,744.50 C191.83,746.19 181.33,735.43 176.51,723.66 L81.50,286.91 C81.57,267.33 92.68,256.47 109.75,253.42 L506.79,167.00 C522.44,165.84 534.12,175.17 538.51,185.14 C541.14,191.10 551.60,243.41 553.87,253.75 C558.25,272.75 561.58,293.48 566.92,311.11 Z" fill="#FEFEFD" fill-rule="nonzero"/></g></g><path d="M420.25,538.65 L395.25,538.83 L420.25,538.65 Z" fill="#101010" fill-rule="nonzero"/><path d="M3.10,148.91 L2.11,153.25 C1.97,151.82 1.55,148.92 3.10,148.91 Z" fill="#70C0FB" fill-rule="nonzero"/><path d="M876.02,1021.10 C876.00,1021.80 875.16,1022.00 872.25,1021.99 C872.80,1021.29 874.65,1020.67 876.02,1021.10 Z" fill="#70C0FB" fill-rule="nonzero"/><path d="M147.75,2.99 C147.14,3.80 145.51,4.18 143.94,4.00 C144.42,3.23 145.28,3.00 147.75,2.99 Z" fill="#70C0FB" fill-rule="nonzero"/><path d="M3.08,874.98 C1.23,875.88 2.15,872.10 2.15,871.25 L3.08,874.98 Z" fill="#70C0FB" fill-rule="nonzero"/><path d="M879.97,4.10 L876.75,3.09 C879.27,3.02 879.99,3.25 879.97,4.10 Z" fill="#70C0FB" fill-rule="nonzero"/><path d="M1020.90,147.75 L1019.91,143.92 C1021.33,143.90 1021.08,146.41 1020.90,147.75 Z" fill="#70C0FB" fill-rule="nonzero"/><path d="M885.06,1019.00 C884.58,1019.77 883.88,1019.99 881.95,1019.95 C882.42,1019.21 883.12,1019.00 885.06,1019.00 Z" fill="#70C0FB" fill-rule="nonzero"/><path d="M870.58,1021.97 C870.37,1023.53 868.16,1022.97 867.25,1022.49 L870.58,1021.97 Z" fill="#70C0FB" fill-rule="nonzero"/><path d="M883.98,5.07 L880.75,4.07 C883.27,4.02 884.00,4.24 883.98,5.07 Z" fill="#70C0FB" fill-rule="nonzero"/><path d="M4.10,143.93 L3.09,147.25 C3.02,145.16 3.25,144.42 4.10,143.93 Z" fill="#70C0FB" fill-rule="nonzero"/><path d="M1021.89,153.75 L1021.61,149.75 L1021.89,153.75 Z" fill="#70C0FB" fill-rule="nonzero"/><path d="M1017.98,134.56 C1017.22,134.08 1017.00,133.49 1017.00,131.94 C1017.77,132.42 1018.00,133.01 1017.98,134.56 Z" fill="#70C0FB" fill-rule="nonzero"/><path d="M854.44,0.00 L860.50,-0.00 L860.50,1.00 C858.55,0.71 854.75,1.79 854.44,0.00 Z" fill="#70C0FB" fill-rule="nonzero"/><path d="M0.88,163.49 C0.97,167.37 0.78,168.50 -0.00,168.50 L-0.00,164.06 L0.88,163.49 Z" fill="#70C0FB" fill-rule="nonzero"/><path d="M861.49,1022.99 L861.50,1024.00 L855.25,1023.91 L861.49,1022.99 Z" fill="#70C0FB" fill-rule="nonzero"/><path d="M-0.00,860.00 L-0.00,856.50 C0.78,856.50 1.00,857.26 1.00,860.00 L-0.00,860.00 Z" fill="#70C0FB" fill-rule="nonzero"/><path d="M164.00,1.05 L164.00,-0.00 L167.00,-0.00 C167.00,0.78 166.33,1.01 164.00,1.05 Z" fill="#70C0FB" fill-rule="nonzero"/><path d="M166.00,1024.00 L163.00,1024.00 L163.00,1023.00 C165.33,1023.00 166.00,1023.22 166.00,1024.00 Z" fill="#70C0FB" fill-rule="nonzero"/><path d="M1024.00,163.06 L1024.00,165.50 C1023.23,165.50 1023.00,164.81 1023.00,162.44 L1024.00,163.06 Z" fill="#70C0FB" fill-rule="nonzero"/><path d="M1023.00,862.00 C1023.00,860.06 1023.23,859.50 1024.00,859.50 L1024.00,862.00 L1023.00,862.00 Z" fill="#70C0FB" fill-rule="nonzero"/></svg>
