<svg version="1.1" xmlns="http://www.w3.org/2000/svg" viewBox="0 0 1024 1024" width="1024" height="1024"><path d="M160.00,1.00 C162.33,1.00 163.00,0.78 163.00,-0.00 L861.50,-0.00 C861.50,0.78 862.06,1.00 864.00,1.00 C882.46,1.84 898.05,7.47 911.25,12.44 C927.28,18.77 942.25,28.11 954.25,37.46 C976.89,55.25 995.42,77.41 1008.11,105.25 C1014.81,120.27 1021.66,138.64 1023.06,160.00 C1023.01,161.94 1023.23,162.50 1024.00,162.50 L1024.00,861.50 C1023.23,861.50 1023.00,862.06 1023.00,864.00 C1022.17,882.42 1017.00,896.62 1011.87,910.75 C993.47,957.24 955.23,994.88 908.25,1012.93 C895.15,1017.47 882.14,1022.43 865.00,1023.00 L865.00,1024.00 L160.06,1024.00 C132.12,1019.98 106.60,1011.14 87.75,999.17 C41.83,970.51 9.08,928.20 0.00,862.94 L-0.00,163.50 C0.78,163.50 1.00,162.82 0.98,160.50 C0.32,155.62 2.21,152.76 2.05,148.54 C2.79,148.07 2.99,147.50 2.95,145.96 C8.26,115.24 21.11,90.52 36.95,70.36 C64.96,35.41 102.46,7.04 160.00,1.00 Z" fill="#1C7CFC" fill-rule="nonzero"/><g><path d="M614.56,844.50 L302.75,844.50 C276.81,842.12 255.29,820.73 253.02,794.75 L253.25,210.75 C259.34,185.75 274.70,170.29 300.75,165.29 L536.75,165.00 C543.38,165.72 547.50,168.36 549.75,173.75 L550.26,354.25 C556.62,382.23 574.45,399.27 608.25,399.48 L778.39,399.50 C782.06,401.26 784.82,404.26 785.99,408.48 L785.99,537.62 C655.53,485.18 526.60,590.26 542.97,723.41 C551.23,779.10 578.18,816.95 614.56,844.50 Z" fill="#FEFEFD" fill-rule="nonzero"/><g><path d="M785.99,537.62 L786.25,537.88 C838.20,561.56 873.97,602.07 888.51,662.98 C919.95,827.16 743.93,936.14 614.56,844.50 C578.18,816.95 551.23,779.10 542.97,723.41 C526.60,590.26 655.53,485.18 785.99,537.62 Z" fill="#0FB961" fill-rule="nonzero"/><path d="M740.25,610.70 C741.15,630.29 739.69,655.92 741.00,676.50 L803.25,676.51 C831.07,680.46 832.29,717.48 805.75,724.23 L741.00,724.55 C741.15,746.21 740.92,770.51 740.25,790.33 C732.23,814.87 698.95,813.38 693.50,787.89 L693.50,724.50 L630.75,724.49 C601.72,720.59 602.17,681.09 630.21,676.50 L693.50,676.50 L693.50,613.68 C698.23,588.14 732.38,586.39 740.25,610.70 Z" fill="#FEFEFD" fill-rule="nonzero"/></g></g><path d="M585.17,163.00 L585.75,163.00 L787.00,364.25 L787.00,365.01 L594.75,364.75 C589.33,362.44 585.96,358.93 584.50,352.96 L584.50,163.67 L585.17,163.00 Z" fill="#FEFEFD" fill-rule="nonzero"/><path d="M2.95,145.96 C2.99,147.50 2.79,148.07 2.05,148.54 C2.01,147.00 2.21,146.43 2.95,145.96 Z" fill="#FEFEFD" fill-rule="nonzero"/><path d="M160.00,1.00 L160.00,-0.00 L163.00,-0.00 C163.00,0.78 162.33,1.00 160.00,1.00 Z" fill="#FEFEFD" fill-rule="nonzero"/><path d="M0.98,160.50 C1.00,162.82 0.78,163.50 -0.00,163.50 L-0.00,160.50 L0.98,160.50 Z" fill="#FEFEFD" fill-rule="nonzero"/><path d="M861.50,-0.00 L864.00,-0.00 L864.00,1.00 C862.06,1.00 861.50,0.78 861.50,-0.00 Z" fill="#FEFEFD" fill-rule="nonzero"/><path d="M1024.00,160.00 L1024.00,162.50 C1023.23,162.50 1023.01,161.94 1023.06,160.00 L1024.00,160.00 Z" fill="#FEFEFD" fill-rule="nonzero"/><path d="M1023.00,864.00 C1023.00,862.06 1023.23,861.50 1024.00,861.50 L1024.00,864.00 L1023.00,864.00 Z" fill="#FEFEFD" fill-rule="nonzero"/></svg>
