<svg version="1.1" xmlns="http://www.w3.org/2000/svg" viewBox="0 0 1024 1024" width="1024" height="1024"><path d="M169.50,0.98 C171.44,1.00 172.00,0.78 172.00,-0.00 L851.44,0.00 C851.92,0.78 852.61,0.99 854.50,0.97 C911.79,6.74 955.30,37.39 983.17,72.57 C1002.29,97.12 1019.23,129.72 1022.98,168.43 C1023.00,171.22 1023.22,172.00 1024.00,172.00 L1024.00,852.00 C1022.13,851.30 1023.22,854.91 1023.31,854.63 C1015.99,915.62 982.94,961.46 942.25,990.21 C925.90,1001.67 905.24,1012.35 881.75,1018.22 C875.00,1021.65 862.06,1021.81 852.00,1023.25 C851.75,1023.29 852.25,1023.96 852.00,1024.00 L172.00,1024.00 C84.07,1012.79 18.11,950.89 2.50,868.00 C1.81,863.50 0.56,859.64 1.00,854.00 L-0.00,854.00 L-0.00,172.50 C0.78,172.50 1.01,171.81 1.03,169.42 C2.41,147.02 9.68,127.10 16.87,111.25 C35.04,72.20 65.74,40.40 102.25,21.24 C121.47,11.20 142.84,3.32 169.50,0.98 Z" fill="#2279FB" fill-rule="nonzero"/><g><path d="M765.67,466.75 C771.97,469.03 802.94,476.72 804.99,481.32 C805.36,482.17 809.00,503.93 809.63,507.00 L868.06,836.19 C765.65,797.88 586.42,783.34 522.25,866.48 L517.50,866.50 C517.50,866.50 517.50,865.10 517.50,865.10 C511.66,861.30 505.83,856.62 499.87,852.75 C416.16,798.32 276.21,793.92 165.75,826.94 C156.77,829.62 148.69,833.62 138.98,835.49 L220.54,506.50 C221.48,503.04 226.47,481.18 227.57,479.99 C253.55,469.08 284.63,461.86 316.00,456.01 C362.27,448.01 426.52,446.61 467.00,460.57 C487.70,467.53 507.26,477.62 520.89,491.50 L522.38,491.50 C551.47,464.41 595.46,450.65 650.25,449.74 C691.88,450.43 731.10,457.44 765.67,466.75 Z" fill="#FDF0D1" fill-rule="nonzero"/><g><path d="M367.75,528.93 C369.19,539.16 375.52,536.73 386.43,537.00 C391.96,536.02 391.40,532.19 393.25,528.84 C426.09,530.13 475.83,536.60 479.86,564.25 C480.91,565.30 491.60,563.14 494.50,566.03 C500.34,574.52 492.60,581.07 483.75,579.37 C483.38,584.43 482.29,591.40 482.54,597.63 L481.34,614.93 C477.95,652.99 484.11,682.08 445.29,688.03 L311.25,687.75 C275.31,678.21 283.00,652.80 279.07,615.25 L277.97,597.50 C277.74,595.16 277.29,579.46 276.44,579.00 C263.50,581.67 259.47,569.69 267.90,564.50 L280.44,564.50 C286.28,536.19 333.38,530.34 367.75,528.93 Z" fill="#F16D00" fill-rule="nonzero"/><path d="M367.75,528.93 L366.54,525.07 C356.53,524.54 354.57,512.17 365.25,510.51 L395.06,510.50 C406.36,511.89 404.31,524.46 394.07,525.26 L393.25,528.84 C391.40,532.19 391.96,536.02 386.43,537.00 C375.52,536.73 369.19,539.16 367.75,528.93 Z" fill="#623E1C" fill-rule="nonzero"/><path d="M277.97,597.50 L279.07,615.25 C274.17,613.72 252.07,608.26 249.89,606.42 C245.58,602.77 247.27,593.15 253.10,592.00 C257.96,591.04 272.45,597.44 277.97,597.50 Z" fill="#623E1C" fill-rule="nonzero"/><path d="M481.34,614.93 L482.54,597.63 C486.03,596.76 500.46,592.04 502.24,591.96 C512.68,591.52 513.59,603.88 506.55,607.49 C503.16,609.23 486.29,613.31 481.34,614.93 Z" fill="#623E1C" fill-rule="nonzero"/></g><g><path d="M774.14,570.75 C762.00,599.18 733.93,609.30 699.75,614.45 C694.89,615.19 660.75,618.46 660.13,619.42 C658.89,628.24 653.13,633.30 643.82,634.14 C641.31,635.11 588.79,681.66 581.58,684.89 C556.40,696.19 536.85,666.09 558.19,645.94 L616.75,601.20 C619.76,594.39 625.13,587.48 635.65,588.25 C651.35,550.44 665.41,501.53 709.25,491.85 C757.49,481.19 793.11,526.33 774.14,570.75 Z" fill="#679B4E" fill-rule="nonzero"/><path d="M760.63,516.50 C756.40,537.62 722.48,560.05 706.75,570.36 C702.07,573.43 654.63,602.17 653.41,602.07 C653.09,602.05 651.37,600.37 651.50,599.54 C672.25,578.65 721.91,526.63 750.75,517.92 C750.75,517.92 759.66,515.53 760.63,516.50 Z" fill="#FDF0D1" fill-rule="nonzero"/><path d="M755.05,510.61 C709.41,528.20 680.41,564.43 647.91,595.57 C646.74,595.69 646.25,594.55 646.50,592.98 C665.45,564.62 704.00,492.92 755.05,510.61 Z" fill="#FDF0D1" fill-rule="nonzero"/><path d="M764.69,523.51 C770.96,577.15 698.35,596.16 656.50,608.00 L656.50,606.11 C688.33,588.05 739.05,560.88 758.96,533.15 C759.72,532.10 764.27,523.57 764.69,523.51 Z" fill="#FDF0D1" fill-rule="nonzero"/><path d="M749.49,502.89 C694.59,496.73 663.71,558.45 642.25,590.00 L641.00,590.00 C654.80,553.66 670.59,505.68 710.25,496.98 C724.07,493.54 741.25,496.73 749.49,502.89 Z" fill="#FDF0D1" fill-rule="nonzero"/><path d="M771.18,530.48 C774.22,534.86 773.42,545.72 773.50,553.43 C765.63,603.60 714.00,608.90 660.50,613.50 L660.50,612.62 C704.48,599.05 761.52,584.55 770.50,536.87 C770.73,535.65 769.92,531.08 771.18,530.48 Z" fill="#FDF0D1" fill-rule="nonzero"/></g><path d="M799.49,754.15 C806.57,757.28 806.21,767.06 797.57,768.61 C731.18,752.29 635.94,754.72 572.78,772.07 C564.59,771.49 562.95,761.98 569.25,757.98 C633.50,739.87 731.40,737.95 799.49,754.15 Z" fill="#DCC5A3" fill-rule="nonzero"/><path d="M463.54,768.91 C470.57,771.90 469.42,782.90 460.42,783.13 C397.21,767.92 312.72,766.13 237.15,771.18 C230.21,768.52 229.58,760.92 235.38,756.93 C311.87,751.00 399.73,753.39 463.54,768.91 Z" fill="#DCC5A3" fill-rule="nonzero"/><path d="M798.00,713.62 C803.27,717.58 802.15,725.15 795.32,727.19 C730.89,712.39 637.61,712.96 575.25,729.61 C564.70,733.34 560.37,720.23 568.99,715.98 C633.46,698.89 731.38,696.90 798.00,713.62 Z" fill="#DCC5A3" fill-rule="nonzero"/><path d="M470.25,730.00 C477.29,733.23 475.76,745.90 464.46,744.00 C402.54,730.59 318.33,731.06 248.03,735.21 C241.15,731.48 241.38,721.80 249.75,720.57 C323.50,715.98 407.13,716.45 470.25,730.00 Z" fill="#DCC5A3" fill-rule="nonzero"/><g><path d="M220.54,506.50 L138.98,835.49 C140.08,840.43 145.38,871.05 146.82,871.52 C246.65,861.39 369.23,860.79 466.47,873.55 L470.46,876.14 C482.72,905.74 557.40,906.03 569.55,876.16 C576.12,872.73 586.79,872.34 595.50,870.94 L595.50,853.62 C612.49,845.04 634.55,840.85 661.00,841.50 L661.00,864.00 C727.62,859.06 803.17,860.79 861.51,871.55 C863.23,871.15 861.08,871.03 862.50,870.94 L862.51,868.25 L868.06,836.19 L809.63,507.00 C845.16,506.76 852.08,506.97 856.00,539.25 L865.03,587.25 C866.46,591.07 866.36,599.59 869.03,603.03 C868.24,603.82 868.49,605.07 868.63,605.77 L921.50,883.89 C922.95,893.56 917.41,897.69 910.73,898.54 C874.10,896.25 835.40,894.44 797.75,893.85 L791.75,893.60 C749.42,893.02 704.53,892.43 661.00,892.39 L661.00,939.07 C655.54,936.85 629.76,910.77 627.71,911.75 C627.71,911.75 599.23,936.70 596.25,939.25 L595.86,935.25 L595.87,907.25 L595.63,895.25 L595.50,893.82 L588.25,893.62 L583.36,893.62 C557.27,924.27 483.21,924.70 457.14,893.55 L423.75,892.82 L417.50,892.48 L407.25,892.68 L365.25,892.21 L360.00,892.14 L288.75,892.12 L281.25,892.38 L247.75,892.62 L240.75,892.83 C195.01,893.72 150.04,895.34 106.25,898.08 C95.34,899.74 86.28,898.25 87.50,885.01 L161.00,541.25 C164.87,526.18 163.26,514.17 178.01,508.65 C190.63,506.69 205.97,506.57 220.54,506.50 Z" fill="#DA2C30" fill-rule="nonzero"/><g><path d="M364.08,154.00 C370.51,153.29 379.05,142.90 385.39,151.02 L385.50,189.74 C376.25,198.38 317.70,229.22 316.00,238.82 L316.00,456.01 C284.63,461.86 253.55,469.08 227.57,479.99 C226.47,481.18 221.48,503.04 220.54,506.50 C205.97,506.57 190.63,506.69 178.01,508.65 L178.00,347.98 C204.16,360.47 251.22,363.28 282.50,353.34 L282.50,339.38 C251.32,349.58 204.58,346.05 178.00,334.41 L178.00,300.86 C203.95,312.41 251.88,315.32 282.75,306.25 C282.94,306.06 283.63,292.16 282.21,292.51 C250.08,301.79 205.99,297.81 178.00,287.50 L178.00,205.57 L179.12,203.66 C179.99,202.20 181.83,200.77 187.00,197.58 L287.36,142.99 C287.81,142.99 288.96,145.03 292.63,153.57 L193.83,207.00 C232.29,215.52 279.93,206.91 301.75,190.14 C322.43,178.41 343.05,166.54 363.77,154.93 C364.37,154.60 363.65,154.25 364.08,154.00 Z" fill="#054B86" fill-rule="nonzero"/><g><path d="M517.16,176.25 L517.12,232.61 C511.23,240.70 468.48,266.59 467.00,274.04 L467.00,460.57 C426.52,446.61 362.27,448.01 316.00,456.01 L316.00,238.82 C317.70,229.22 376.25,198.38 385.50,189.74 C394.79,184.72 403.29,178.42 412.17,172.84 C414.60,172.62 417.50,180.58 418.00,183.50 C418.00,183.50 416.93,183.50 416.93,183.50 C396.04,196.95 373.15,211.11 352.75,224.48 C350.89,225.87 332.07,237.71 332.00,237.92 C331.95,238.06 332.00,238.87 332.00,238.87 C361.11,242.90 397.79,241.02 420.43,232.46 C442.43,216.26 465.53,200.07 487.25,183.52 C494.83,179.95 503.95,167.11 517.16,173.62 C516.90,172.30 516.93,177.98 517.16,176.25 Z" fill="#F1AB0C" fill-rule="nonzero"/><path d="M332.40,314.50 L402.98,314.50 L406.25,317.42 L406.52,401.45 L403.40,405.00 L332.10,405.00 L329.00,401.47 L329.00,317.90 L332.40,314.50 Z" fill="#DE8600" fill-rule="nonzero"/><g><path d="M659.24,216.21 L659.16,240.00 L659.13,241.75 L659.25,269.25 C645.59,285.14 628.11,301.44 614.75,319.02 L614.45,321.89 L629.94,376.50 L633.91,390.50 L642.04,419.65 L645.85,433.00 L650.25,449.74 C595.46,450.65 551.47,464.41 522.38,491.50 L520.89,491.50 C507.26,477.62 487.70,467.53 467.00,460.57 L467.00,274.04 C468.48,266.59 511.23,240.70 517.12,232.61 L517.51,232.50 C517.52,232.49 518.60,232.50 518.60,232.50 C525.83,227.32 533.66,221.25 541.25,215.86 C549.29,210.24 550.10,206.00 554.75,220.75 L485.54,272.40 C485.21,273.39 484.31,273.74 485.53,274.69 C510.48,278.57 561.48,279.64 577.75,268.09 L631.75,221.16 C638.28,216.94 645.22,206.03 658.18,211.04 L659.24,216.21 Z" fill="#679B4E" fill-rule="nonzero"/><path d="M488.75,318.53 C489.01,318.46 557.41,318.17 558.95,318.50 C560.84,318.91 562.63,320.72 563.00,322.45 C563.15,323.14 563.00,408.39 563.00,408.39 L560.10,411.50 L487.92,411.50 L485.00,408.58 L485.02,321.75 C485.82,320.57 487.22,318.93 488.75,318.53 Z" fill="#457831" fill-rule="nonzero"/><g><path d="M869.03,603.03 C866.36,599.59 866.46,591.07 865.03,587.25 L856.00,539.25 C852.08,506.97 845.16,506.76 809.63,507.00 C809.00,503.93 805.36,482.17 804.99,481.32 C802.94,476.72 771.97,469.03 765.67,466.75 L766.08,463.25 L754.56,422.75 C748.09,400.61 753.21,404.43 738.19,412.41 C713.69,425.43 685.15,434.92 645.85,433.00 L642.04,419.65 C686.39,420.63 718.98,409.10 745.00,391.50 C745.16,386.21 742.72,381.65 742.06,378.25 C736.61,357.54 739.10,364.12 724.35,371.48 C700.56,383.35 671.17,391.67 633.91,390.50 L629.94,376.50 C674.67,377.71 708.23,366.44 733.75,348.58 C729.29,329.54 722.65,312.23 718.98,292.51 L717.34,291.88 L757.25,239.42 C763.60,233.79 771.05,215.77 781.02,231.75 L880.63,579.25 C883.20,590.85 874.37,597.12 869.03,603.03 Z" fill="#C22328" fill-rule="nonzero"/><g><path d="M717.34,291.88 L718.98,292.51 C722.65,312.23 729.29,329.54 733.75,348.58 C708.23,366.44 674.67,377.71 629.94,376.50 L614.45,321.89 L614.75,319.02 L630.75,318.96 C664.30,315.20 695.45,306.92 717.34,291.88 Z" fill="#DA2C30" fill-rule="nonzero"/><g><path d="M757.25,239.42 L717.34,291.88 C695.45,306.92 664.30,315.20 630.75,318.96 C649.42,297.38 670.09,276.62 689.20,255.58 C711.89,251.11 734.37,244.40 757.25,239.42 Z" fill="#FDF0D1" fill-rule="nonzero"/><g><path d="M689.20,255.58 C670.09,276.62 649.42,297.38 630.75,318.96 L614.75,319.02 C628.11,301.44 645.59,285.14 659.25,269.25 L660.73,268.00 C662.28,266.43 677.65,249.74 677.94,249.58 C683.55,246.27 686.98,252.12 689.20,255.58 Z" fill="#C22328" fill-rule="nonzero"/><path d="M660.73,268.00 L659.25,269.25 L659.13,241.75 C659.63,262.95 659.94,268.00 660.73,268.00 Z" fill="#054B86" fill-rule="nonzero"/></g></g></g><path d="M765.67,466.75 C731.10,457.44 691.88,450.43 650.25,449.74 L645.85,433.00 C685.15,434.92 713.69,425.43 738.19,412.41 C753.21,404.43 748.09,400.61 754.56,422.75 L766.08,463.25 L765.67,466.75 Z" fill="#DA2C30" fill-rule="nonzero"/><path d="M642.04,419.65 L633.91,390.50 C671.17,391.67 700.56,383.35 724.35,371.48 C739.10,364.12 736.61,357.54 742.06,378.25 C742.72,381.65 745.16,386.21 745.00,391.50 C718.98,409.10 686.39,420.63 642.04,419.65 Z" fill="#DA2C30" fill-rule="nonzero"/></g><path d="M631.75,221.16 L577.75,268.09 C561.48,279.64 510.48,278.57 485.53,274.69 C484.31,273.74 485.21,273.39 485.54,272.40 L554.75,220.75 L631.75,221.16 Z" fill="#FDF0D1" fill-rule="nonzero"/></g><path d="M418.00,183.50 L487.25,183.52 C465.53,200.07 442.43,216.26 420.43,232.46 C397.79,241.02 361.11,242.90 332.00,238.87 C332.00,238.87 331.95,238.06 332.00,237.92 C332.07,237.71 350.89,225.87 352.75,224.48 C373.15,211.11 396.04,196.95 416.93,183.50 C416.93,183.50 418.00,183.50 418.00,183.50 Z" fill="#FDF0D1" fill-rule="nonzero"/></g><path d="M292.63,153.57 L297.25,153.65 L318.25,153.85 L364.08,154.00 C363.65,154.25 364.37,154.60 363.77,154.93 C343.05,166.54 322.43,178.41 301.75,190.14 C279.93,206.91 232.29,215.52 193.83,207.00 L292.63,153.57 Z" fill="#FDF0D1" fill-rule="nonzero"/><path d="M178.00,300.86 L177.85,300.50 L177.85,290.00 L178.00,287.50 C205.99,297.81 250.08,301.79 282.21,292.51 C283.63,292.16 282.94,306.06 282.75,306.25 C251.88,315.32 203.95,312.41 178.00,300.86 Z" fill="#DCC5A3" fill-rule="nonzero"/><path d="M178.00,347.98 L177.85,347.00 L177.85,336.50 L178.00,334.41 C204.58,346.05 251.32,349.58 282.50,339.38 L282.50,353.34 C251.22,363.28 204.16,360.47 178.00,347.98 Z" fill="#DCC5A3" fill-rule="nonzero"/></g><path d="M517.50,866.50 C499.07,866.92 483.28,870.26 470.46,876.14 L466.47,873.55 C369.23,860.79 246.65,861.39 146.82,871.52 C145.38,871.05 140.08,840.43 138.98,835.49 C148.69,833.62 156.77,829.62 165.75,826.94 C276.21,793.92 416.16,798.32 499.87,852.75 C505.83,856.62 511.66,861.30 517.50,865.10 C517.50,865.10 517.50,866.50 517.50,866.50 Z" fill="#DCC5A3" fill-rule="nonzero"/><g><path d="M868.06,836.19 L862.51,868.25 L862.50,870.94 C861.08,871.03 863.23,871.15 861.51,871.55 C803.17,860.79 727.62,859.06 661.00,864.00 L661.00,841.50 C634.55,840.85 612.49,845.04 595.50,853.62 L595.50,870.94 C586.79,872.34 576.12,872.73 569.55,876.16 C556.65,870.29 540.67,866.82 522.25,866.48 C586.42,783.34 765.65,797.88 868.06,836.19 Z" fill="#DCC5A3" fill-rule="nonzero"/><path d="M517.50,866.50 L522.25,866.48 C540.67,866.82 556.65,870.29 569.55,876.16 C557.40,906.03 482.72,905.74 470.46,876.14 C483.28,870.26 499.07,866.92 517.50,866.50 Z" fill="#C22328" fill-rule="nonzero"/></g></g></g><path d="M517.51,232.50 L517.12,232.61 L517.16,176.25 L517.51,232.50 Z" fill="#054B86" fill-rule="nonzero"/><path d="M659.16,240.00 L659.24,216.21 L659.16,240.00 Z" fill="#054B86" fill-rule="nonzero"/><path d="M318.25,153.85 L297.25,153.65 L318.25,153.85 Z" fill="#054B86" fill-rule="nonzero"/><path d="M595.87,907.25 L595.63,895.25 L595.87,907.25 Z" fill="#054B86" fill-rule="nonzero"/><path d="M177.85,290.00 L177.85,300.50 L177.85,290.00 Z" fill="#054B86" fill-rule="nonzero"/><path d="M177.85,336.50 L177.85,347.00 L177.85,336.50 Z" fill="#054B86" fill-rule="nonzero"/><path d="M417.50,892.48 L417.50,893.02 L407.25,892.68 L417.50,892.48 Z" fill="#054B86" fill-rule="nonzero"/><path d="M288.75,892.12 L281.25,892.38 L288.75,892.12 Z" fill="#054B86" fill-rule="nonzero"/><path d="M247.75,892.62 L240.75,892.83 L247.75,892.62 Z" fill="#054B86" fill-rule="nonzero"/><path d="M595.50,893.82 L588.25,893.62 L595.50,893.82 Z" fill="#054B86" fill-rule="nonzero"/><path d="M423.75,892.82 L417.50,893.02 L417.50,892.48 L423.75,892.82 Z" fill="#623E1C" fill-rule="nonzero"/><path d="M797.75,893.85 L791.75,893.60 L797.75,893.85 Z" fill="#054B86" fill-rule="nonzero"/><path d="M365.25,892.21 L360.00,892.14 L365.25,892.21 Z" fill="#054B86" fill-rule="nonzero"/><path d="M595.86,935.25 L596.25,939.25 C595.62,939.52 595.53,938.62 595.86,935.25 Z" fill="#054B86" fill-rule="nonzero"/><path d="M1024.00,169.06 L1024.00,172.00 C1023.22,172.00 1023.00,171.22 1022.98,168.43 L1024.00,169.06 Z" fill="#FDF0D1" fill-rule="nonzero"/><path d="M851.44,0.00 L854.50,-0.00 L854.50,0.97 C852.61,0.99 851.92,0.78 851.44,0.00 Z" fill="#FDF0D1" fill-rule="nonzero"/><path d="M1.03,169.42 C1.01,171.81 0.78,172.50 -0.00,172.50 L-0.00,170.06 L1.03,169.42 Z" fill="#FDF0D1" fill-rule="nonzero"/><path d="M169.50,0.98 L169.50,-0.00 L172.00,-0.00 C172.00,0.78 171.44,1.00 169.50,0.98 Z" fill="#FDF0D1" fill-rule="nonzero"/><path d="M1024.00,852.00 L1024.00,854.50 L1023.31,854.63 C1023.22,854.91 1022.13,851.30 1024.00,852.00 Z" fill="#FDF0D1" fill-rule="nonzero"/></svg>
