<svg version="1.1" xmlns="http://www.w3.org/2000/svg" viewBox="0 0 1024 1024" width="1024" height="1024"><path d="M111.50,1.00 C113.39,1.00 114.08,0.77 114.56,-0.00 L911.50,-0.00 C911.50,0.78 911.96,1.00 913.56,1.00 C923.68,1.50 932.72,4.18 940.75,7.06 C941.16,6.40 942.49,8.82 943.25,7.99 C966.41,16.93 984.68,31.45 998.68,49.75 C1010.03,64.91 1020.27,85.18 1023.11,109.98 C1023.24,110.47 1022.20,113.17 1024.00,112.50 L1024.00,911.50 C1022.19,911.10 1023.30,912.42 1023.00,913.50 C1022.61,924.86 1018.51,936.66 1015.08,945.25 C997.21,986.22 965.34,1015.76 914.02,1023.10 C912.07,1023.02 911.50,1023.23 911.50,1024.00 L113.56,1024.00 C113.08,1023.23 112.39,1023.01 110.50,1023.03 C54.75,1016.85 13.79,975.24 2.46,924.75 C2.03,922.04 0.52,917.73 1.00,913.00 L-0.00,913.00 L-0.00,111.00 C0.06,110.71 0.83,111.29 0.89,111.00 C1.73,106.82 1.63,100.28 2.84,96.95 C16.07,48.51 47.83,15.81 96.75,3.08 C100.06,1.83 106.61,1.56 111.50,1.00 Z" fill="#1873F8" fill-rule="nonzero"/><g><path d="M573.75,594.60 L850.75,594.75 C863.05,597.89 874.38,603.44 878.45,613.86 L949.50,901.63 C950.60,926.40 935.36,936.89 915.75,941.70 C785.17,942.43 647.98,941.37 517.25,941.16 C498.25,936.60 482.32,925.55 484.50,900.64 L544.95,613.98 C549.62,602.89 560.62,597.08 573.75,594.60 Z" fill="#122D65" fill-rule="nonzero"/><g><path d="M575.25,606.08 C664.48,606.12 759.39,605.60 847.75,606.34 C855.87,607.72 863.33,612.94 865.46,619.31 C882.56,695.92 901.75,772.72 919.43,847.75 C921.31,855.71 932.71,899.86 932.08,904.88 C930.91,914.16 920.96,920.04 911.32,921.00 C780.95,921.16 646.73,920.85 517.75,920.18 C506.75,917.29 499.60,911.42 500.76,898.75 C514.38,831.77 527.81,764.91 541.53,698.25 C543.27,689.78 557.32,618.73 558.66,616.26 C560.87,612.20 568.81,606.98 575.25,606.08 Z" fill="#092557" fill-rule="nonzero"/><g><path d="M705.12,856.13 C702.73,924.01 540.50,924.96 534.88,858.75 C537.80,791.05 698.43,790.16 705.12,856.13 Z" fill="#385691" fill-rule="nonzero"/><path d="M688.10,852.25 C694.00,909.11 549.40,910.13 551.39,854.22 C563.19,808.51 674.21,807.82 688.10,852.25 Z" fill="#FDBF22" fill-rule="nonzero"/></g><g><path d="M893.13,861.38 C882.86,924.24 735.26,922.73 723.87,861.75 C719.62,789.51 894.68,789.79 893.13,861.38 Z" fill="#385691" fill-rule="nonzero"/><path d="M876.25,864.25 C860.03,907.29 753.31,906.61 740.41,861.47 C736.44,804.69 885.06,806.66 876.25,864.25 Z" fill="#FDBF22" fill-rule="nonzero"/></g><g><path d="M704.49,750.25 C710.01,816.04 546.87,815.82 554.32,749.75 C567.65,698.33 692.39,697.22 704.49,750.25 Z" fill="#385691" fill-rule="nonzero"/><path d="M689.15,750.00 C695.43,800.53 566.77,801.24 569.43,752.25 C580.19,712.94 676.07,712.30 689.15,750.00 Z" fill="#FDBF22" fill-rule="nonzero"/></g><g><path d="M873.12,756.88 C868.69,815.25 719.71,814.13 722.50,750.89 C732.66,696.26 869.67,697.30 873.12,756.88 Z" fill="#385691" fill-rule="nonzero"/><path d="M857.25,750.75 C863.62,801.95 731.16,800.60 738.28,749.75 C752.44,712.64 843.98,713.44 857.25,750.75 Z" fill="#FDBF22" fill-rule="nonzero"/></g><g><path d="M706.07,662.25 C704.43,717.60 575.66,719.65 567.38,667.75 C566.07,609.05 700.32,607.54 706.07,662.25 Z" fill="#385691" fill-rule="nonzero"/><path d="M691.07,659.44 C696.75,704.87 578.98,706.96 582.40,660.40 C594.50,626.14 678.21,624.74 691.07,659.44 Z" fill="#FDBF22" fill-rule="nonzero"/></g><g><path d="M857.50,669.11 C847.65,719.61 727.01,716.52 719.50,665.84 C718.43,606.80 861.51,608.56 857.50,669.11 Z" fill="#385691" fill-rule="nonzero"/><path d="M842.75,660.23 C848.51,706.98 728.41,705.28 734.53,659.25 C746.38,625.27 830.54,626.29 842.75,660.23 Z" fill="#FDBF22" fill-rule="nonzero"/></g></g></g><g><path d="M476.64,894.00 L474.65,894.00 C468.12,905.91 458.75,915.10 443.62,918.00 L128.75,917.98 C115.33,916.66 110.57,909.79 109.38,909.50 C106.03,908.68 104.84,911.64 102.75,912.75 C101.80,910.58 100.68,906.72 99.95,903.70 C97.93,896.02 102.19,884.89 101.40,877.97 C104.03,876.54 103.62,867.87 100.83,867.00 C99.36,866.48 72.15,867.30 68.25,866.99 C49.82,865.54 40.06,857.19 33.45,843.90 L33.76,825.75 L59.08,728.25 C69.44,701.10 100.50,709.99 135.44,708.50 C137.77,698.26 141.75,689.63 150.50,685.75 L149.31,695.21 C149.69,740.11 186.03,746.76 218.25,758.92 L298.25,788.53 C312.32,792.19 322.92,783.37 329.97,776.64 C336.93,793.75 346.46,805.96 371.90,802.96 C371.95,848.94 461.07,846.12 467.50,807.86 C471.79,777.23 447.30,767.22 421.42,765.76 C426.74,716.11 374.29,714.55 346.48,738.37 C348.02,720.43 343.49,702.37 332.94,694.61 C325.51,689.84 314.24,687.88 306.25,683.44 L352.25,682.65 L461.25,681.89 C473.74,684.51 483.01,691.80 484.19,705.58 C483.49,769.64 482.99,835.91 476.64,894.00 Z" fill="#122D65" fill-rule="nonzero"/><g><path d="M341.11,834.43 C336.55,844.39 330.51,853.69 327.51,865.09 C325.60,865.02 323.71,863.92 323.02,863.89 C307.39,863.27 310.71,882.53 302.70,881.55 C302.45,881.52 274.13,869.62 271.45,868.46 C233.47,852.09 169.90,821.93 143.12,796.48 C131.96,785.88 130.52,784.38 149.80,783.50 C202.91,781.06 297.95,820.26 341.11,834.43 Z" fill="#FDFDFD" fill-rule="nonzero"/><g><path d="M327.51,865.09 C330.51,853.69 336.55,844.39 341.11,834.43 L345.50,834.43 L438.96,866.00 C462.05,872.60 452.01,906.91 429.68,905.50 L342.25,871.87 C338.39,870.17 331.08,867.81 327.51,865.09 Z" fill="#092557" fill-rule="nonzero"/><path d="M398.25,863.50 C408.55,861.11 408.49,876.90 398.15,874.50 C392.72,873.24 392.91,864.74 398.25,863.50 Z" fill="#385691" fill-rule="nonzero"/><path d="M364.50,852.22 C366.65,860.23 354.12,862.13 353.00,855.55 C351.56,847.09 363.04,846.80 364.50,852.22 Z" fill="#385691" fill-rule="nonzero"/></g></g><g><path d="M108.06,760.48 C105.59,779.11 100.36,795.46 96.86,813.25 C94.56,822.19 81.77,828.62 71.73,821.75 L71.47,819.00 C71.60,818.46 71.41,816.32 71.47,816.08 C75.72,798.44 79.83,780.09 84.01,762.42 C87.74,753.00 103.01,749.99 108.06,760.48 Z" fill="#1873F8" fill-rule="nonzero"/><path d="M108.06,760.48 C103.01,749.99 87.74,753.00 84.01,762.42 C79.83,780.09 75.72,798.44 71.47,816.08 C71.41,816.32 71.60,818.46 71.47,819.00 C64.03,817.17 70.37,803.29 70.85,799.75 L81.00,754.94 C86.00,740.23 113.98,738.69 108.06,760.48 Z" fill="#092557" fill-rule="nonzero"/></g><g><path d="M306.25,683.44 C314.24,687.88 325.51,689.84 332.94,694.61 C343.49,702.37 348.02,720.43 346.48,738.37 C374.29,714.55 426.74,716.11 421.42,765.76 C447.30,767.22 471.79,777.23 467.50,807.86 C461.07,846.12 371.95,848.94 371.90,802.96 C346.46,805.96 336.93,793.75 329.97,776.64 C322.92,783.37 312.32,792.19 298.25,788.53 L218.25,758.92 C186.03,746.76 149.69,740.11 149.31,695.21 L150.50,685.75 C154.82,669.47 165.82,657.50 184.16,654.58 C213.37,650.08 280.80,678.06 306.25,683.44 Z" fill="#708F2D" fill-rule="nonzero"/><path d="M339.47,745.31 C334.58,751.15 330.24,758.67 329.09,768.04 C302.27,802.04 273.76,770.73 284.91,730.75 C298.18,685.33 349.67,683.07 339.47,745.31 Z" fill="#D8DF8D" fill-rule="nonzero"/><path d="M409.96,742.25 C420.27,774.62 360.37,805.30 338.60,778.58 C323.41,743.64 392.55,710.60 409.96,742.25 Z" fill="#D8DF8D" fill-rule="nonzero"/><path d="M419.17,771.40 C482.34,774.20 466.69,829.77 408.75,823.15 C395.19,820.01 382.50,814.75 379.50,801.58 C397.12,796.14 411.34,786.76 419.17,771.40 Z" fill="#D8DF8D" fill-rule="nonzero"/></g><path d="M476.64,894.00 C473.19,914.25 460.28,926.90 440.63,930.50 L128.25,930.43 C116.24,928.49 107.18,921.87 102.75,912.75 C104.84,911.64 106.03,908.68 109.38,909.50 C110.57,909.79 115.33,916.66 128.75,917.98 L443.62,918.00 C458.75,915.10 468.12,905.91 474.65,894.00 L476.64,894.00 Z" fill="#092557" fill-rule="nonzero"/><path d="M101.40,877.97 C63.10,878.74 36.70,880.05 33.45,843.90 C40.06,857.19 49.82,865.54 68.25,866.99 C72.15,867.30 99.36,866.48 100.83,867.00 C103.62,867.87 104.03,876.54 101.40,877.97 Z" fill="#092557" fill-rule="nonzero"/></g><g><path d="M544.91,385.50 C544.91,385.50 545.88,385.50 545.88,385.50 C546.93,387.68 547.65,392.10 548.47,393.80 C575.23,449.43 697.21,463.83 775.46,444.98 C819.66,434.33 889.89,400.72 848.45,347.75 C871.24,333.76 943.24,286.36 971.01,283.50 C1000.70,280.45 1010.54,302.19 993.91,317.00 C947.15,346.37 880.27,357.97 861.66,414.75 C860.58,444.01 860.76,477.78 861.55,506.25 C844.04,610.35 570.01,609.20 544.99,511.25 L544.91,385.50 Z" fill="#122D65" fill-rule="nonzero"/><path d="M982.50,299.67 C986.17,309.92 960.65,314.97 959.00,306.92 C956.96,296.98 980.20,293.27 982.50,299.67 Z" fill="#1873F8" fill-rule="nonzero"/><g><path d="M848.45,347.75 C889.89,400.72 819.66,434.33 775.46,444.98 C697.21,463.83 575.23,449.43 548.47,393.80 C547.65,392.10 546.93,387.68 545.88,385.50 C545.88,385.50 544.91,385.50 544.91,385.50 C543.52,366.33 551.29,355.15 559.44,346.15 C618.27,289.14 791.55,289.29 848.45,347.75 Z" fill="#385691" fill-rule="nonzero"/><g><path d="M841.75,400.70 C792.88,459.32 613.73,459.91 564.94,400.55 C607.58,339.78 798.96,340.18 841.75,400.70 Z" fill="#E34918" fill-rule="nonzero"/><path d="M841.75,400.70 C798.96,340.18 607.58,339.78 564.94,400.55 C562.22,399.83 557.94,391.65 556.93,388.89 C544.61,355.16 589.58,333.17 612.17,325.43 C674.24,304.15 770.59,307.98 820.75,337.35 C838.01,347.47 862.41,368.52 846.02,395.49 C845.02,397.29 843.24,400.01 841.75,400.70 Z" fill="#122D65" fill-rule="nonzero"/></g></g></g><path d="M536.00,469.52 L537.59,469.51 C532.06,578.16 450.65,645.60 340.25,649.14 L331.50,649.00 L326.75,649.12 C221.46,644.70 135.87,572.12 133.36,466.28 L138.05,477.84 C199.09,570.51 459.01,570.37 527.75,485.65 C530.96,480.74 533.97,475.37 536.00,469.52 Z" fill="#FCB313" fill-rule="nonzero"/><g><path d="M248.29,256.01 C299.98,293.93 363.36,320.47 398.49,375.04 C398.51,378.09 400.92,380.85 401.82,382.51 C409.11,396.71 415.53,414.05 413.96,436.25 L413.54,438.25 L413.58,438.79 C406.10,496.85 338.01,518.39 294.75,477.75 C284.25,468.01 275.67,454.37 269.00,440.29 C261.81,424.54 256.14,404.87 251.89,385.39 L251.54,384.95 C251.34,382.66 251.74,378.57 249.05,378.80 C251.35,378.68 248.99,372.45 249.07,371.75 C242.89,336.95 237.04,301.26 225.04,272.50 C233.43,268.23 242.31,262.06 248.29,256.01 Z" fill="#FDFDFD" fill-rule="nonzero"/><g><path d="M350.70,377.75 C363.06,393.74 375.34,411.08 382.25,433.23 L382.50,433.50 L382.52,434.49 C374.66,433.18 364.77,433.27 355.95,432.91 L319.25,378.38 C327.54,376.54 341.69,377.82 350.70,377.75 Z" fill="#FCB313" fill-rule="nonzero"/><path d="M382.52,434.49 C384.69,439.46 385.26,446.82 386.50,452.71 C386.86,457.67 385.93,475.80 382.04,474.75 L355.95,432.91 C364.77,433.27 374.66,433.18 382.52,434.49 Z" fill="#FDEAA2" fill-rule="nonzero"/></g><g><path d="M270.54,282.91 C311.76,309.38 356.96,333.51 384.57,373.40 C378.30,372.95 369.59,371.92 363.25,371.89 C362.75,371.77 357.77,370.99 357.98,371.56 C331.82,338.97 299.78,311.44 269.40,283.63 L270.54,282.91 Z" fill="#1873F8" fill-rule="nonzero"/><path d="M269.40,283.63 C268.51,283.78 267.67,282.12 267.06,281.87 C265.89,279.26 270.54,282.91 270.54,282.91 L269.40,283.63 Z" fill="#385691" fill-rule="nonzero"/></g><g><path d="M315.41,371.68 C314.75,371.77 312.89,369.70 313.12,369.74 L257.00,287.49 L257.00,286.00 L258.01,286.00 C287.52,313.50 318.63,340.17 344.75,370.96 L343.00,371.16 L326.75,371.12 L315.41,371.68 Z" fill="#1873F8" fill-rule="nonzero"/><path d="M326.75,371.12 L343.00,371.16 L344.75,370.96 L350.70,377.75 C341.69,377.82 327.54,376.54 319.25,378.38 C318.25,377.62 315.54,373.87 315.41,371.68 L326.75,371.12 Z" fill="#FDEAA2" fill-rule="nonzero"/></g><g><path d="M279.47,438.49 L304.75,435.08 C317.58,455.23 332.45,476.88 355.46,487.75 L355.50,488.36 C314.03,493.02 293.22,465.29 279.47,440.04 L279.47,438.49 Z" fill="#FDEAA2" fill-rule="nonzero"/><path d="M277.67,381.06 L277.90,381.40 C285.95,400.06 294.96,418.10 304.75,435.08 L279.47,438.49 C271.02,423.07 265.80,403.45 261.25,383.94 C265.26,381.96 272.67,382.03 277.67,381.06 Z" fill="#FCB313" fill-rule="nonzero"/></g><g><path d="M307.25,378.39 C319.04,395.36 331.69,414.19 343.25,431.92 C335.23,433.64 324.58,433.15 315.80,434.03 C305.54,418.38 296.12,398.39 287.91,380.75 C287.98,380.05 292.33,379.52 307.25,378.39 Z" fill="#FCB313" fill-rule="nonzero"/><path d="M315.80,434.03 C324.58,433.15 335.23,433.64 343.25,431.92 C345.84,436.04 374.17,479.67 374.08,480.46 C373.01,483.23 359.65,479.07 358.55,478.63 C339.78,468.55 327.07,451.49 315.80,434.03 Z" fill="#FDEAA2" fill-rule="nonzero"/></g><g><path d="M388.99,380.37 C398.64,393.96 406.14,413.49 404.24,437.04 L393.34,435.80 L393.02,435.52 C386.90,413.06 375.83,394.95 363.75,378.52 C372.63,378.48 381.19,379.71 388.99,380.37 Z" fill="#FCB313" fill-rule="nonzero"/><path d="M363.25,371.89 C369.59,371.92 378.30,372.95 384.57,373.40 C385.69,375.49 388.62,377.83 388.99,380.37 C381.19,379.71 372.63,378.48 363.75,378.52 C363.57,377.09 353.83,370.71 363.25,371.89 Z" fill="#FDEAA2" fill-rule="nonzero"/><path d="M404.24,437.04 C403.23,445.63 400.45,453.28 396.97,459.50 L396.00,459.50 C396.14,450.56 394.28,443.66 393.34,435.80 L404.24,437.04 Z" fill="#FDEAA2" fill-rule="nonzero"/></g><g><path d="M285.49,373.69 C274.70,351.56 265.94,326.50 255.00,304.52 C254.80,302.72 254.93,301.91 255.95,302.75 L303.20,372.47 C296.78,372.16 290.94,373.07 285.49,373.69 Z" fill="#1873F8" fill-rule="nonzero"/><path d="M303.20,372.47 L307.25,378.39 C292.33,379.52 287.98,380.05 287.91,380.75 C286.96,379.15 285.48,375.77 285.49,373.69 C290.94,373.07 296.78,372.16 303.20,372.47 Z" fill="#FDEAA2" fill-rule="nonzero"/></g><g><path d="M261.67,376.53 L259.63,376.53 L247.62,313.25 C246.86,304.86 258.25,336.04 258.96,336.25 C263.95,349.10 270.18,361.97 274.68,374.82 C270.52,375.45 264.91,375.71 261.67,376.53 Z" fill="#1873F8" fill-rule="nonzero"/><path d="M274.68,374.82 L277.67,381.06 C272.67,382.03 265.26,381.96 261.25,383.94 L259.88,377.83 L261.67,376.53 C264.91,375.71 270.52,375.45 274.68,374.82 Z" fill="#FDEAA2" fill-rule="nonzero"/></g><g><path d="M253.04,297.91 C256.99,303.05 253.78,303.21 251.80,298.69 L253.04,297.91 Z" fill="#1873F8" fill-rule="nonzero"/><path d="M251.80,298.69 C250.09,296.11 251.42,294.37 253.04,297.91 L251.80,298.69 Z" fill="#385691" fill-rule="nonzero"/></g><path d="M253.50,281.92 C254.00,281.27 256.83,284.20 255.02,284.64 C254.78,284.70 252.77,282.86 253.50,281.92 Z" fill="#1873F8" fill-rule="nonzero"/><g><path d="M537.67,467.00 C536.22,466.50 536.02,468.44 536.00,469.52 C533.97,475.37 530.96,480.74 527.75,485.65 C459.01,570.37 199.09,570.51 138.05,477.84 L133.36,466.28 C126.89,412.90 204.43,386.94 249.05,378.80 C251.74,378.57 251.34,382.66 251.54,384.95 C196.33,393.43 97.43,437.63 165.15,496.00 L166.80,496.00 C179.64,461.20 227.63,447.41 269.00,440.29 C275.67,454.37 284.25,468.01 294.75,477.75 C338.01,518.39 406.10,496.85 413.58,438.79 C452.43,447.56 492.75,459.97 503.96,496.25 L505.61,496.59 C577.39,433.36 463.75,387.57 401.82,382.51 C400.92,380.85 398.51,378.09 398.49,375.04 C452.25,381.38 543.93,406.57 537.67,467.00 Z" fill="#FDEAA2" fill-rule="nonzero"/><path d="M251.54,384.95 L251.89,385.39 C256.14,404.87 261.81,424.54 269.00,440.29 C227.63,447.41 179.64,461.20 166.80,496.00 L165.15,496.00 C97.43,437.63 196.33,393.43 251.54,384.95 Z" fill="#FCB313" fill-rule="nonzero"/><path d="M413.58,438.79 L413.54,438.25 L413.96,436.25 C415.53,414.05 409.11,396.71 401.82,382.51 C463.75,387.57 577.39,433.36 505.61,496.59 L503.96,496.25 C492.75,459.97 452.43,447.56 413.58,438.79 Z" fill="#FCB313" fill-rule="nonzero"/><path d="M537.67,467.00 L537.59,469.51 L536.00,469.52 C536.02,468.44 536.22,466.50 537.67,467.00 Z" fill="#FDBF22" fill-rule="nonzero"/></g><g><path d="M225.04,272.50 L220.20,272.50 L214.94,269.88 C183.28,231.48 150.66,192.26 118.30,153.75 C95.24,121.23 140.16,91.29 164.36,118.96 L247.68,243.75 C249.12,246.62 250.70,251.58 248.29,256.01 C242.31,262.06 233.43,268.23 225.04,272.50 Z" fill="#FCB313" fill-rule="nonzero"/><path d="M143.10,125.97 C153.80,129.02 151.53,147.26 137.64,145.11 C125.17,143.18 128.93,121.92 143.10,125.97 Z" fill="#1873F8" fill-rule="nonzero"/></g></g><path d="M343.00,371.16 L326.75,371.12 L343.00,371.16 Z" fill="#FDFDFD" fill-rule="nonzero"/><path d="M277.90,381.40 L277.67,381.06 L277.90,381.40 Z" fill="#FDEAA2" fill-rule="nonzero"/><path d="M382.50,433.50 L382.25,433.23 L382.50,433.50 Z" fill="#FDEAA2" fill-rule="nonzero"/><path d="M393.34,435.80 L393.02,435.52 L393.34,435.80 Z" fill="#FDEAA2" fill-rule="nonzero"/><path d="M717.03,118.50 C724.94,146.13 702.56,160.42 706.62,184.25 C710.17,205.12 745.49,225.46 721.34,268.61 C721.04,269.14 702.91,297.74 703.95,282.63 C704.07,280.83 710.88,263.38 711.75,256.75 C716.79,218.53 678.23,211.96 684.25,170.25 C687.90,146.49 706.88,138.19 709.97,114.36 C713.97,109.18 715.96,114.78 717.03,118.50 Z" fill="#FDFDFD" fill-rule="nonzero"/><path d="M759.89,149.50 C761.97,150.73 758.64,161.04 758.43,162.75 C755.07,191.07 786.71,199.79 779.53,234.48 C776.82,247.57 754.18,280.21 755.95,262.70 C756.12,261.09 761.36,247.35 761.97,244.75 C771.97,211.58 734.99,200.74 745.50,167.44 C746.49,164.30 755.74,147.03 759.89,149.50 Z" fill="#FDFDFD" fill-rule="nonzero"/><path d="M654.96,176.50 C657.21,177.50 653.62,189.47 653.33,192.25 C650.00,224.26 677.46,229.10 670.42,261.05 C669.40,265.69 660.57,285.49 655.99,284.61 C652.10,283.87 657.31,271.10 657.65,268.75 C662.33,236.30 629.16,229.39 641.60,194.25 C642.47,191.77 650.81,174.65 654.96,176.50 Z" fill="#FDFDFD" fill-rule="nonzero"/><path d="M340.25,649.14 L331.50,649.55 L331.50,649.00 L340.25,649.14 Z" fill="#FDFDFD" fill-rule="nonzero"/><path d="M331.50,649.00 L331.50,649.55 L326.75,649.12 L331.50,649.00 Z" fill="#385691" fill-rule="nonzero"/><path d="M413.96,436.25 L413.54,438.25 L413.96,436.25 Z" fill="#FDEAA2" fill-rule="nonzero"/><path d="M251.89,385.39 L251.54,384.95 L251.89,385.39 Z" fill="#FDEAA2" fill-rule="nonzero"/><path d="M111.50,1.00 L111.50,-0.00 L114.56,-0.00 C114.08,0.77 113.39,1.00 111.50,1.00 Z" fill="#FDFDFD" fill-rule="nonzero"/><path d="M113.56,1024.00 L110.50,1024.00 L110.50,1023.03 C112.39,1023.01 113.08,1023.23 113.56,1024.00 Z" fill="#FDFDFD" fill-rule="nonzero"/><path d="M1024.00,110.00 L1024.00,112.50 C1022.20,113.17 1023.24,110.47 1023.11,109.98 L1024.00,110.00 Z" fill="#FDFDFD" fill-rule="nonzero"/><path d="M914.02,1023.10 L914.00,1024.00 L911.50,1024.00 C911.50,1023.23 912.07,1023.02 914.02,1023.10 Z" fill="#FDFDFD" fill-rule="nonzero"/><path d="M1023.00,913.50 C1023.30,912.42 1022.19,911.10 1024.00,911.50 L1024.00,913.50 L1023.00,913.50 Z" fill="#FDFDFD" fill-rule="nonzero"/><path d="M911.50,-0.00 L912.94,0.00 L913.56,1.00 C911.96,1.00 911.50,0.78 911.50,-0.00 Z" fill="#FDFDFD" fill-rule="nonzero"/></svg>
