<svg version="1.1" xmlns="http://www.w3.org/2000/svg" viewBox="0 0 1024 1024" width="1024" height="1024"><path d="M212.46,0.96 C214.13,1.20 216.12,0.89 216.75,0.01 L807.25,0.05 C808.19,0.72 809.95,1.16 812.00,1.00 L819.25,1.00 C820.53,2.12 827.63,1.87 829.75,3.15 L833.07,4.10 C848.37,6.11 862.78,11.09 875.75,16.07 C944.54,45.27 994.11,98.12 1016.12,174.95 C1016.03,176.49 1016.23,177.08 1017.00,177.56 L1017.00,178.94 C1017.00,180.49 1017.21,181.08 1017.95,181.55 L1018.47,183.25 C1017.37,183.84 1018.13,186.03 1019.04,186.23 L1019.00,187.94 C1019.00,189.49 1019.23,190.08 1020.00,190.56 L1020.00,192.94 C1020.00,194.49 1020.23,195.08 1021.00,195.56 L1021.00,198.94 C1020.81,200.51 1021.22,202.14 1021.99,202.75 C1022.31,206.28 1023.38,209.35 1023.01,214.45 C1023.00,217.23 1023.22,218.00 1024.00,218.00 L1024.00,306.88 C871.15,394.47 720.45,484.68 572.75,577.68 C546.98,593.78 521.49,617.38 481.86,595.47 C339.82,505.33 191.79,417.25 45.25,332.13 C30.76,323.58 15.85,315.48 1.47,307.00 C1.45,306.99 0.07,307.04 -0.00,307.00 L-0.00,216.50 C0.78,216.50 0.99,215.63 0.96,212.46 C0.44,207.92 1.83,204.32 2.05,200.54 C3.16,200.71 3.18,197.94 2.87,196.98 C8.57,160.05 23.08,129.04 39.75,104.16 C72.21,56.27 123.27,16.30 190.94,4.00 C192.51,4.19 194.14,3.78 194.75,3.01 L195.94,3.00 C198.65,3.00 199.58,2.78 200.04,2.03 C204.05,1.90 207.71,0.40 212.46,0.96 Z" fill="#1874FC" fill-rule="nonzero"/><g><path d="M738.61,171.25 C743.13,270.76 709.38,286.40 665.75,334.77 C624.34,380.68 600.47,430.08 533.52,451.50 C416.11,488.16 293.06,414.82 284.50,312.59 L284.50,251.71 C286.91,215.52 309.40,188.58 331.82,173.08 C369.74,146.87 407.35,148.55 451.75,132.39 C494.03,117.00 525.43,86.71 569.96,72.53 C658.58,44.32 734.79,87.17 738.61,171.25 Z" fill="#FBF4E3" fill-rule="nonzero"/><g><path d="M642.75,93.06 C698.19,102.49 727.65,163.89 691.86,216.25 C674.83,241.17 637.58,266.74 612.75,286.70 C592.73,302.80 571.22,323.61 547.75,336.37 C479.45,373.48 377.53,358.34 334.42,309.25 C303.84,274.43 309.11,227.05 342.25,199.74 C371.28,175.81 409.99,174.61 448.25,162.56 C457.64,159.60 468.43,155.56 476.25,152.11 C522.25,131.77 572.70,81.14 642.75,93.06 Z" fill="#DD3D3F" fill-rule="nonzero"/><g><path d="M449.75,216.63 C517.47,215.35 523.49,288.53 456.81,294.50 C390.76,294.36 384.94,223.56 449.75,216.63 Z" fill="#FBF4E3" fill-rule="nonzero"/><path d="M456.93,234.50 C488.92,239.25 488.52,271.70 456.78,276.63 C417.61,276.61 417.02,234.21 456.93,234.50 Z" fill="#FD96A9" fill-rule="nonzero"/></g></g><path d="M632.31,325.25 C622.55,351.08 589.07,387.36 567.59,402.98 C498.93,454.53 382.55,437.55 344.88,370.48 C331.63,337.29 371.47,361.11 381.75,365.12 C445.40,389.95 517.13,382.60 566.75,350.12 C579.80,341.57 617.43,308.27 625.32,305.10 C640.99,298.81 635.28,317.40 632.31,325.25 Z" fill="#DD3D3F" fill-rule="nonzero"/></g><path d="M200.04,2.03 C199.58,2.78 198.65,3.00 195.94,3.00 C196.42,2.22 197.34,2.01 200.04,2.03 Z" fill="#FEFEFE" fill-rule="nonzero"/><path d="M2.87,196.98 C3.18,197.94 3.16,200.71 2.05,200.54 C2.01,197.80 2.20,196.99 2.87,196.98 Z" fill="#FEFEFE" fill-rule="nonzero"/><path d="M194.75,3.01 C194.14,3.78 192.51,4.19 190.94,4.00 C191.42,3.22 192.28,3.00 194.75,3.01 Z" fill="#FEFEFE" fill-rule="nonzero"/><path d="M1021.99,202.75 C1021.22,202.14 1020.81,200.51 1021.00,198.94 C1021.77,199.42 1022.00,200.28 1021.99,202.75 Z" fill="#FEFEFE" fill-rule="nonzero"/><path d="M833.07,4.10 L829.75,3.15 C830.97,2.77 833.14,2.86 833.07,4.10 Z" fill="#FEFEFE" fill-rule="nonzero"/><path d="M1018.47,183.25 L1019.04,186.23 C1018.13,186.03 1017.37,183.84 1018.47,183.25 Z" fill="#FEFEFE" fill-rule="nonzero"/><path d="M1017.00,177.56 C1016.23,177.08 1016.03,176.49 1016.12,174.95 C1016.80,175.42 1017.00,176.01 1017.00,177.56 Z" fill="#FEFEFE" fill-rule="nonzero"/><path d="M1017.95,181.55 C1017.21,181.08 1017.00,180.49 1017.00,178.94 C1017.77,179.42 1017.99,180.01 1017.95,181.55 Z" fill="#FEFEFE" fill-rule="nonzero"/><path d="M1020.00,190.56 C1019.23,190.08 1019.00,189.49 1019.00,187.94 C1019.77,188.42 1020.00,189.01 1020.00,190.56 Z" fill="#FEFEFE" fill-rule="nonzero"/><path d="M1021.00,195.56 C1020.23,195.08 1020.00,194.49 1020.00,192.94 C1020.77,193.42 1021.00,194.01 1021.00,195.56 Z" fill="#FEFEFE" fill-rule="nonzero"/><g><path d="M-0.00,807.00 L-0.00,338.28 C147.48,422.13 292.34,509.02 434.75,598.17 C465.15,617.51 494.84,628.57 500.00,675.25 L500.00,1024.00 L216.50,1024.00 C216.50,1023.23 215.82,1023.00 213.50,1023.00 C186.12,1021.48 164.45,1014.08 143.75,1005.87 C86.13,981.55 39.29,933.63 16.08,874.75 C8.82,855.48 2.01,834.74 1.00,809.56 C1.00,807.58 0.78,807.00 -0.00,807.00 Z" fill="#1874FC" fill-rule="nonzero"/><g><path d="M176.00,625.47 C167.97,701.50 283.89,706.00 282.57,630.96 C308.40,644.08 333.96,658.06 359.25,672.25 C371.26,678.98 442.51,719.18 447.74,725.25 C455.75,734.02 456.57,763.85 444.94,769.43 C433.47,770.72 427.57,762.91 420.25,760.54 C398.27,753.41 388.87,769.43 376.39,772.58 C347.36,779.93 342.34,746.34 314.25,748.45 C285.93,750.58 285.93,786.37 255.25,781.46 C233.99,778.05 232.61,741.74 200.75,739.38 C180.64,737.90 171.61,751.90 157.61,753.50 C133.29,756.27 128.33,737.15 109.17,740.50 C89.41,746.40 95.26,769.38 94.75,791.50 L94.49,825.96 L94.50,909.38 C80.16,908.85 71.77,900.79 69.53,887.75 L69.55,703.75 C73.18,668.38 140.92,633.87 176.00,625.47 Z" fill="#FD96A9" fill-rule="nonzero"/><path d="M445.00,872.57 L445.00,940.34 C440.57,960.58 417.46,952.70 399.25,950.95 L94.50,909.38 L94.49,825.96 L445.00,872.57 Z" fill="#FDCD55" fill-rule="nonzero"/><g><path d="M444.94,769.43 L445.00,839.52 L94.75,791.50 C95.26,769.38 89.41,746.40 109.17,740.50 C128.33,737.15 133.29,756.27 157.61,753.50 C171.61,751.90 180.64,737.90 200.75,739.38 C232.61,741.74 233.99,778.05 255.25,781.46 C285.93,786.37 285.93,750.58 314.25,748.45 C342.34,746.34 347.36,779.93 376.39,772.58 C388.87,769.43 398.27,753.41 420.25,760.54 C427.57,762.91 433.47,770.72 444.94,769.43 Z" fill="#FDCD55" fill-rule="nonzero"/><path d="M94.75,791.50 L445.00,839.52 L445.00,872.57 L94.49,825.96 L94.75,791.50 Z" fill="#FD5679" fill-rule="nonzero"/></g><g><path d="M227.71,585.37 C227.24,594.44 219.46,612.98 235.42,610.50 C242.66,607.27 239.05,592.41 243.98,586.85 C265.74,592.37 279.29,607.07 282.57,630.96 C283.89,706.00 167.97,701.50 176.00,625.47 C182.99,602.35 199.04,587.05 227.71,585.37 Z" fill="#F22D31" fill-rule="nonzero"/><path d="M243.98,586.85 C239.05,592.41 242.66,607.27 235.42,610.50 C219.46,612.98 227.24,594.44 227.71,585.37 C232.87,569.99 241.23,551.80 254.44,544.10 C270.51,534.74 277.03,549.29 270.02,554.87 C256.52,560.27 247.86,572.33 243.98,586.85 Z" fill="#DD3D3F" fill-rule="nonzero"/></g></g><path d="M216.50,1024.00 L213.50,1024.00 L213.50,1023.00 C215.82,1023.00 216.50,1023.23 216.50,1024.00 Z" fill="#FEFEFE" fill-rule="nonzero"/><path d="M0.00,808.94 L-0.00,807.00 C0.78,807.00 1.00,807.58 1.00,809.56 L0.00,808.94 Z" fill="#FEFEFE" fill-rule="nonzero"/></g><g><path d="M1023.00,809.00 L1023.00,814.94 C1022.23,815.42 1022.00,816.12 1022.00,818.06 L1021.99,821.25 C1021.22,821.86 1020.81,823.49 1021.00,825.06 C1016.13,860.30 1002.62,889.99 987.61,914.25 C960.43,956.85 922.43,989.66 872.41,1008.86 C872.52,1007.76 869.97,1009.52 869.75,1010.00 C855.85,1015.08 838.98,1020.22 821.00,1021.97 L818.25,1022.54 L811.00,1023.04 C809.06,1023.01 808.50,1023.23 808.50,1024.00 L527.00,1024.00 L527.00,678.75 C528.37,651.54 540.85,633.23 555.88,620.75 C670.24,547.03 788.19,476.91 906.25,406.85 C943.80,384.23 984.61,361.32 1022.95,338.50 C1022.95,338.50 1024.00,338.50 1024.00,338.50 L1024.00,806.50 C1023.23,806.50 1023.00,807.06 1023.00,809.00 Z" fill="#1874FC" fill-rule="nonzero"/><g><path d="M797.75,780.73 C799.92,780.96 802.40,778.33 803.83,778.95 C814.60,797.20 843.22,801.21 859.00,784.52 C864.52,789.90 871.40,794.35 880.66,796.00 C882.15,796.39 887.70,795.06 888.15,797.05 L815.94,964.25 C793.13,1009.84 733.98,1005.95 716.00,959.63 L658.88,784.38 C671.42,792.81 690.09,792.98 700.52,782.50 L701.10,782.50 C714.48,798.24 736.89,797.79 749.98,781.89 C763.99,795.66 785.94,794.65 797.75,780.73 Z" fill="#EDA639" fill-rule="nonzero"/><g><path d="M692.87,617.50 C733.49,608.81 764.49,627.31 782.35,647.64 C801.43,669.69 811.01,709.72 796.55,744.47 C805.31,753.63 806.73,770.24 797.75,780.73 C785.94,794.65 763.99,795.66 749.98,781.89 C736.89,797.79 714.48,798.24 701.10,782.50 L700.52,782.50 C690.09,792.98 671.42,792.81 658.88,784.38 C658.56,785.08 658.04,782.21 658.07,781.95 C630.11,790.54 610.50,763.08 627.62,741.25 C607.84,680.17 644.40,628.94 692.87,617.50 Z" fill="#F8839E" fill-rule="nonzero"/><g><path d="M875.49,626.07 C921.10,642.46 949.01,703.94 914.92,753.70 C924.15,776.51 906.98,793.72 888.15,797.05 C887.70,795.06 882.15,796.39 880.66,796.00 C871.40,794.35 864.52,789.90 859.00,784.52 C843.22,801.21 814.60,797.20 803.83,778.95 C802.40,778.33 799.92,780.96 797.75,780.73 C806.73,770.24 805.31,753.63 796.55,744.47 C811.01,709.72 801.43,669.69 782.35,647.64 C801.36,626.90 838.91,611.72 875.49,626.07 Z" fill="#894F2C" fill-rule="nonzero"/><path d="M692.87,617.50 C702.11,498.50 875.48,500.39 875.49,626.07 C838.91,611.72 801.36,626.90 782.35,647.64 C764.49,627.31 733.49,608.81 692.87,617.50 Z" fill="#FDEFC4" fill-rule="nonzero"/></g></g></g><path d="M1021.99,821.25 C1022.00,823.72 1021.77,824.58 1021.00,825.06 C1020.81,823.49 1021.22,821.86 1021.99,821.25 Z" fill="#FEFEFE" fill-rule="nonzero"/><path d="M1023.00,814.94 C1023.00,816.88 1022.77,817.58 1022.00,818.06 C1022.00,816.12 1022.23,815.42 1023.00,814.94 Z" fill="#FEFEFE" fill-rule="nonzero"/><path d="M869.75,1010.00 C869.97,1009.52 872.52,1007.76 872.41,1008.86 C871.62,1010.29 872.10,1010.04 869.75,1010.00 Z" fill="#FEFEFE" fill-rule="nonzero"/><path d="M821.00,1021.97 C821.58,1024.11 818.65,1022.52 818.25,1022.54 L821.00,1021.97 Z" fill="#FEFEFE" fill-rule="nonzero"/><path d="M-0.00,338.28 L-0.00,307.00 C0.07,307.04 1.45,306.99 1.47,307.00 C15.85,315.48 30.76,323.58 45.25,332.13 C191.79,417.25 339.82,505.33 481.86,595.47 C521.49,617.38 546.98,593.78 572.75,577.68 C720.45,484.68 871.15,394.47 1024.00,306.88 L1024.00,338.50 C1024.00,338.50 1022.95,338.50 1022.95,338.50 C984.61,361.32 943.80,384.23 906.25,406.85 C788.19,476.91 670.24,547.03 555.88,620.75 C540.85,633.23 528.37,651.54 527.00,678.75 L527.00,1024.00 L500.00,1024.00 L500.00,675.25 C494.84,628.57 465.15,617.51 434.75,598.17 C292.34,509.02 147.48,422.13 -0.00,338.28 Z" fill="#FEFEFE" fill-rule="nonzero"/><path d="M1023.00,809.00 C1023.00,807.06 1023.23,806.50 1024.00,806.50 L1024.00,809.00 L1023.00,809.00 Z" fill="#FEFEFE" fill-rule="nonzero"/><path d="M811.00,1023.04 L811.00,1024.00 L808.50,1024.00 C808.50,1023.23 809.06,1023.01 811.00,1023.04 Z" fill="#FEFEFE" fill-rule="nonzero"/></g><path d="M807.25,0.05 L812.00,-0.00 L812.00,1.00 C809.95,1.16 808.19,0.72 807.25,0.05 Z" fill="#FEFEFE" fill-rule="nonzero"/><path d="M0.96,212.46 C0.99,215.63 0.78,216.50 -0.00,216.50 L0.00,213.06 L0.96,212.46 Z" fill="#FEFEFE" fill-rule="nonzero"/><path d="M212.46,0.96 L213.06,0.00 L216.75,0.01 C216.12,0.89 214.13,1.20 212.46,0.96 Z" fill="#FEFEFE" fill-rule="nonzero"/><path d="M1024.00,215.06 L1024.00,218.00 C1023.22,218.00 1023.00,217.23 1023.01,214.45 L1024.00,215.06 Z" fill="#FEFEFE" fill-rule="nonzero"/></svg>
