<svg version="1.1" xmlns="http://www.w3.org/2000/svg" viewBox="0 0 1024 1024" width="1024" height="1024"><path d="M170.00,1.02 C172.33,1.00 173.00,0.78 173.00,-0.00 L848.75,0.10 L853.99,1.02 C859.07,1.52 865.98,1.96 869.75,3.13 L873.07,4.10 C935.25,16.54 983.66,61.49 1007.15,113.25 C1011.40,123.00 1016.60,135.92 1019.00,148.44 C1019.00,150.38 1019.22,151.08 1019.99,151.56 C1021.76,157.30 1022.04,165.98 1022.91,172.51 C1023.48,172.99 1022.06,175.65 1024.00,175.00 L1024.00,848.50 C1023.23,848.50 1023.00,849.06 1023.00,851.00 L1022.98,854.75 C1022.60,855.33 1021.21,858.10 1022.53,858.75 C1017.40,893.21 1004.03,921.88 986.93,945.25 C962.05,978.46 928.09,1006.17 881.02,1018.09 C879.50,1018.02 878.92,1018.22 878.45,1018.98 L873.04,1020.10 C871.50,1020.02 870.92,1020.23 870.44,1021.00 L868.06,1021.00 C866.49,1020.81 864.86,1021.22 864.25,1021.99 L863.08,1021.97 L859.75,1022.40 L854.01,1023.05 C851.68,1023.01 851.00,1023.23 851.00,1024.00 L173.00,1024.00 C173.00,1023.23 172.43,1023.02 170.49,1023.10 L154.25,1021.03 C153.81,1020.56 151.80,1019.24 151.25,1020.47 C76.32,1002.55 20.96,947.64 4.00,871.06 C4.13,869.36 3.95,867.38 2.98,866.75 L1.02,854.75 L1.00,849.50 C1.00,847.56 0.78,847.00 -0.00,847.00 L0.00,178.06 C1.59,177.99 0.90,174.36 0.91,172.99 L2.03,162.25 C2.87,161.62 3.20,159.64 2.97,157.96 C2.70,153.62 4.63,150.19 5.03,146.55 C5.78,146.08 5.98,145.49 5.91,143.95 C7.92,134.66 11.87,124.64 14.91,117.25 C35.35,69.49 75.82,29.14 125.75,10.96 C134.33,8.27 145.12,4.07 156.02,3.08 L160.75,2.09 L163.00,2.00 L163.34,1.66 L170.00,1.02 Z" fill="#1F76FA" fill-rule="nonzero"/><g><path d="M286.25,340.51 L599.25,340.52 C609.43,342.07 616.44,349.10 614.65,361.06 C604.06,384.40 588.88,405.95 582.06,432.25 L554.50,639.25 C550.85,660.85 537.61,676.99 516.20,681.02 L384.25,680.75 C364.07,674.74 353.07,660.72 349.03,639.75 L310.49,374.25 C308.50,361.76 290.79,361.91 282.05,355.45 C277.31,349.46 280.04,343.05 286.25,340.51 Z" fill="#FDFDFE" fill-rule="nonzero"/><g><path d="M554.58,502.00 L535.51,642.25 C532.50,652.61 525.78,661.21 513.89,663.50 L390.09,663.50 C367.91,658.63 367.20,640.43 364.50,616.50 L402.60,616.50 C420.13,597.43 375.91,605.87 362.47,604.00 C360.88,593.76 359.03,583.06 358.00,572.00 L390.92,572.00 C396.08,569.20 396.15,562.75 390.92,560.00 L356.48,560.00 C354.28,549.70 352.44,537.18 351.50,526.17 L352.17,525.50 L402.42,525.50 C407.46,522.91 407.75,516.07 402.47,513.50 L349.24,513.49 L347.51,502.00 L554.58,502.00 Z" fill="#448EF8" fill-rule="nonzero"/><path d="M347.51,502.00 L344.50,480.00 L385.25,479.97 C392.53,478.56 392.09,468.73 386.05,467.50 L342.50,467.50 L337.98,434.47 C352.95,433.29 372.37,434.53 387.08,433.75 C391.83,430.52 392.02,423.52 386.05,421.50 L336.00,421.50 C336.53,413.59 328.14,392.35 336.58,390.00 L568.94,390.00 L554.58,502.00 L347.51,502.00 Z" fill="#B1CDF9" fill-rule="nonzero"/></g></g><g><path d="M850.00,456.00 L850.00,456.51 L850.00,475.00 L832.48,475.00 L832.75,498.25 C890.17,494.17 915.08,526.16 918.96,575.25 L943.03,730.75 C943.59,742.58 936.80,749.98 927.25,752.49 L660.68,752.50 C651.91,751.25 644.40,742.59 644.49,732.25 L671.91,555.35 C679.48,519.08 706.51,493.91 754.83,498.50 L755.50,497.83 L755.50,475.00 L737.88,475.00 C738.02,469.41 738.21,460.58 737.75,456.00 L850.00,456.00 Z" fill="#1C3658" fill-rule="nonzero"/><g><path d="M799.25,529.52 C865.18,533.81 905.67,611.68 864.35,670.25 C824.23,727.11 739.90,715.13 713.58,654.25 C686.49,591.61 735.34,525.36 799.25,529.52 Z" fill="#FDFDFE" fill-rule="nonzero"/><path d="M828.75,562.51 C834.41,561.12 838.99,566.58 837.10,571.97 C836.47,573.75 807.48,609.99 807.37,610.58 C815.59,630.99 790.03,642.16 779.59,625.99 C774.12,613.10 782.38,600.32 796.88,602.50 C801.03,597.36 825.07,563.41 828.75,562.51 Z" fill="#1C3658" fill-rule="nonzero"/></g><g><path d="M909.75,456.22 L850.00,456.00 L737.75,456.00 L734.50,456.16 L677.00,456.16 C649.83,454.97 627.31,431.72 629.50,400.99 L632.92,397.25 C738.48,396.83 849.52,396.83 955.08,397.25 L958.50,400.99 C960.27,432.38 938.29,454.96 909.75,456.22 Z" fill="#FDC919" fill-rule="nonzero"/><path d="M909.75,456.22 L850.00,456.51 L850.00,456.00 L909.75,456.22 Z" fill="#B1CDF9" fill-rule="nonzero"/></g></g><g><path d="M224.75,751.25 L134.50,751.16 C121.08,748.48 117.70,739.45 118.84,722.50 L118.84,671.00 L119.00,656.50 L173.62,656.50 C178.58,654.13 179.05,645.66 173.67,643.53 L119.00,643.25 L118.84,642.50 L118.84,603.50 L119.00,600.50 L149.62,600.50 C154.48,599.14 155.30,588.77 149.05,587.50 C147.50,587.19 123.26,587.60 119.00,587.50 L118.84,586.50 L118.84,547.00 L119.00,545.00 C137.34,544.72 158.25,545.74 174.64,544.21 C178.93,541.01 178.45,534.60 173.85,531.55 L119.00,531.48 L118.84,530.50 L118.84,493.50 L119.00,489.04 L150.08,488.91 C164.84,470.63 132.71,476.41 119.00,475.50 L118.84,474.50 L118.84,439.50 L119.00,433.50 L172.10,433.50 C178.38,431.88 179.50,424.58 174.25,420.07 L119.00,419.97 L118.84,419.00 L118.84,379.50 L119.00,377.50 C123.85,377.38 145.58,377.93 148.03,377.50 C155.73,376.14 155.28,365.01 147.75,364.00 L119.00,364.00 L118.84,361.50 L118.84,331.00 L118.85,329.00 L118.85,322.00 L119.00,321.50 L173.62,321.50 C178.46,319.43 179.36,309.99 173.05,308.50 L119.00,308.50 L118.84,306.00 L118.84,265.50 C119.90,256.80 125.57,251.71 133.13,249.50 L227.57,249.50 C234.49,251.63 239.37,256.44 241.50,263.60 L241.50,736.98 C238.98,744.64 233.59,750.49 224.75,751.25 Z" fill="#FDC919" fill-rule="nonzero"/><path d="M119.00,433.50 L119.00,419.97 L174.25,420.07 C179.50,424.58 178.38,431.88 172.10,433.50 L119.00,433.50 Z" fill="#1C3658" fill-rule="nonzero"/><path d="M119.00,545.00 L119.00,531.48 L173.85,531.55 C178.45,534.60 178.93,541.01 174.64,544.21 C158.25,545.74 137.34,544.72 119.00,545.00 Z" fill="#1C3658" fill-rule="nonzero"/><path d="M119.00,656.50 L119.00,643.25 L173.67,643.53 C179.05,645.66 178.58,654.13 173.62,656.50 L119.00,656.50 Z" fill="#1C3658" fill-rule="nonzero"/><path d="M119.00,321.50 L119.00,308.50 L173.05,308.50 C179.36,309.99 178.46,319.43 173.62,321.50 L119.00,321.50 Z" fill="#1C3658" fill-rule="nonzero"/><path d="M119.00,377.50 L119.00,364.00 L147.75,364.00 C155.28,365.01 155.73,376.14 148.03,377.50 C145.58,377.93 123.85,377.38 119.00,377.50 Z" fill="#1C3658" fill-rule="nonzero"/><path d="M119.00,489.04 L119.00,475.50 C132.71,476.41 164.84,470.63 150.08,488.91 L119.00,489.04 Z" fill="#1C3658" fill-rule="nonzero"/><path d="M119.00,600.50 L119.00,587.50 C123.26,587.60 147.50,587.19 149.05,587.50 C155.30,588.77 154.48,599.14 149.62,600.50 L119.00,600.50 Z" fill="#1C3658" fill-rule="nonzero"/></g><g><path d="M458.46,750.59 C462.22,760.77 465.73,771.75 468.42,783.75 L468.75,814.25 L468.86,836.00 L468.48,886.49 C465.61,893.38 460.63,898.60 452.75,900.51 L307.25,900.25 C280.98,893.82 263.81,877.15 261.41,847.68 L261.86,785.25 C277.12,677.58 410.56,658.51 458.46,750.59 Z" fill="#1C3658" fill-rule="nonzero"/><path d="M358.25,744.13 C428.69,741.71 431.99,842.48 364.28,847.11 C296.49,845.95 294.20,751.60 358.25,744.13 Z" fill="#FDC919" fill-rule="nonzero"/><g><path d="M482.94,836.00 L483.14,860.32 C486.68,862.91 488.81,863.07 491.50,859.83 L491.50,836.00 L492.00,835.85 L498.50,835.85 L526.00,836.00 L526.00,860.05 C527.84,863.90 534.43,862.79 534.12,858.25 L534.38,849.75 L534.50,836.00 L544.00,835.84 L558.50,835.84 L569.45,836.00 L569.60,860.90 C582.53,868.40 576.67,845.32 578.00,836.00 L579.00,835.86 L584.00,835.86 L612.25,836.00 C614.10,843.20 607.83,871.25 620.50,859.83 L620.50,835.85 L627.50,835.85 L630.00,835.85 L641.00,835.85 L654.95,836.00 L655.10,860.85 C668.24,869.05 660.98,843.01 663.25,836.00 L672.00,835.85 L682.00,835.85 L697.50,836.00 L697.50,860.43 C700.54,863.72 702.88,862.72 705.50,859.91 L705.50,836.00 L708.50,835.84 L729.00,835.84 L739.25,836.00 L739.47,886.50 L468.48,886.49 L468.86,836.00 L482.94,836.00 Z" fill="#FDC919" fill-rule="nonzero"/><path d="M739.25,836.00 C736.82,817.48 756.92,811.76 762.49,827.75 L762.50,896.47 C760.17,908.58 745.51,910.15 740.37,899.60 L739.47,886.50 L739.25,836.00 Z" fill="#1C3658" fill-rule="nonzero"/><path d="M578.00,836.00 C576.67,845.32 582.53,868.40 569.60,860.90 L569.45,836.00 L578.00,836.00 Z" fill="#1C3658" fill-rule="nonzero"/><path d="M491.50,836.00 L491.50,859.83 C488.81,863.07 486.68,862.91 483.14,860.32 L482.94,836.00 L491.50,836.00 Z" fill="#1C3658" fill-rule="nonzero"/><path d="M534.50,836.00 L534.38,849.75 L534.12,858.25 C534.43,862.79 527.84,863.90 526.00,860.05 L526.00,836.00 L534.50,836.00 Z" fill="#1C3658" fill-rule="nonzero"/><path d="M620.50,835.85 L620.50,859.83 C607.83,871.25 614.10,843.20 612.25,836.00 L620.50,835.85 Z" fill="#1C3658" fill-rule="nonzero"/><path d="M663.25,836.00 C660.98,843.01 668.24,869.05 655.10,860.85 L654.95,836.00 L663.25,836.00 Z" fill="#1C3658" fill-rule="nonzero"/><path d="M705.50,836.00 L705.50,859.91 C702.88,862.72 700.54,863.72 697.50,860.43 L697.50,836.00 L705.50,836.00 Z" fill="#1C3658" fill-rule="nonzero"/></g><path d="M463.43,748.79 L468.32,748.79 C472.10,749.30 474.98,752.03 476.48,753.75 C496.51,783.80 514.30,794.44 468.75,814.25 L468.42,783.75 C465.73,771.75 462.22,760.77 458.46,750.59 L463.43,748.79 Z" fill="#FDC919" fill-rule="nonzero"/></g><path d="M224.75,751.25 L134.50,751.16 L224.75,751.25 Z" fill="#B1CDF9" fill-rule="nonzero"/><path d="M734.50,456.16 L677.00,456.16 L734.50,456.16 Z" fill="#B1CDF9" fill-rule="nonzero"/><path d="M118.84,671.00 L118.84,722.50 L118.84,671.00 Z" fill="#B1CDF9" fill-rule="nonzero"/><path d="M118.84,265.50 L118.84,306.00 L118.84,265.50 Z" fill="#B1CDF9" fill-rule="nonzero"/><path d="M118.84,379.50 L118.84,419.00 L118.84,379.50 Z" fill="#B1CDF9" fill-rule="nonzero"/><path d="M118.84,547.00 L118.84,586.50 L118.84,547.00 Z" fill="#B1CDF9" fill-rule="nonzero"/><path d="M118.84,603.50 L118.84,642.50 L118.84,603.50 Z" fill="#B1CDF9" fill-rule="nonzero"/><path d="M118.84,493.50 L118.84,530.50 L118.84,493.50 Z" fill="#B1CDF9" fill-rule="nonzero"/><path d="M118.84,439.50 L118.84,474.50 L118.84,439.50 Z" fill="#B1CDF9" fill-rule="nonzero"/><path d="M118.84,331.00 L118.84,361.50 L118.84,331.00 Z" fill="#B1CDF9" fill-rule="nonzero"/><path d="M708.50,835.84 L729.00,835.84 L708.50,835.84 Z" fill="#B1CDF9" fill-rule="nonzero"/><path d="M544.00,835.84 L558.50,835.84 L544.00,835.84 Z" fill="#B1CDF9" fill-rule="nonzero"/><path d="M630.00,835.85 L641.00,835.85 L630.00,835.85 Z" fill="#B1CDF9" fill-rule="nonzero"/><path d="M672.00,835.85 L682.00,835.85 L672.00,835.85 Z" fill="#B1CDF9" fill-rule="nonzero"/><path d="M534.38,849.75 L534.12,858.25 L534.38,849.75 Z" fill="#101010" fill-rule="nonzero"/><path d="M160.75,2.09 L156.02,3.08 C156.00,2.22 156.97,2.02 160.75,2.09 Z" fill="#B1CDF9" fill-rule="nonzero"/><path d="M118.85,322.00 L118.85,329.00 L118.85,322.00 Z" fill="#B1CDF9" fill-rule="nonzero"/><path d="M620.50,835.85 L627.50,835.85 L620.50,835.85 Z" fill="#B1CDF9" fill-rule="nonzero"/><path d="M2.97,157.96 C3.20,159.64 2.87,161.62 2.03,162.25 C2.01,159.39 2.22,158.42 2.97,157.96 Z" fill="#B1CDF9" fill-rule="nonzero"/><path d="M492.00,835.85 L498.50,835.85 L492.00,835.85 Z" fill="#B1CDF9" fill-rule="nonzero"/><path d="M4.00,871.06 C3.23,870.58 3.00,869.61 2.98,866.75 C3.95,867.38 4.13,869.36 4.00,871.06 Z" fill="#B1CDF9" fill-rule="nonzero"/><path d="M1022.98,854.75 L1022.53,858.75 C1021.21,858.10 1022.60,855.33 1022.98,854.75 Z" fill="#B1CDF9" fill-rule="nonzero"/><path d="M868.06,1021.00 C867.58,1021.77 866.72,1022.00 864.25,1021.99 C864.86,1021.22 866.49,1020.81 868.06,1021.00 Z" fill="#B1CDF9" fill-rule="nonzero"/><path d="M1019.99,151.56 C1019.22,151.08 1019.00,150.38 1019.00,148.44 C1019.77,148.92 1020.00,149.62 1019.99,151.56 Z" fill="#B1CDF9" fill-rule="nonzero"/><path d="M463.43,748.79 L468.32,748.79 L463.43,748.79 Z" fill="#FDFDFE" fill-rule="nonzero"/><path d="M579.00,835.86 L584.00,835.86 L579.00,835.86 Z" fill="#B1CDF9" fill-rule="nonzero"/><path d="M863.08,1021.97 C862.89,1023.46 860.64,1023.09 859.75,1022.40 L863.08,1021.97 Z" fill="#B1CDF9" fill-rule="nonzero"/><path d="M873.07,4.10 L869.75,3.13 C870.99,2.81 873.12,2.84 873.07,4.10 Z" fill="#B1CDF9" fill-rule="nonzero"/><path d="M881.02,1018.09 C881.01,1018.79 880.43,1019.00 878.45,1018.98 C878.92,1018.22 879.50,1018.02 881.02,1018.09 Z" fill="#B1CDF9" fill-rule="nonzero"/><path d="M5.91,143.95 C5.98,145.49 5.78,146.08 5.03,146.55 C5.01,145.01 5.21,144.42 5.91,143.95 Z" fill="#B1CDF9" fill-rule="nonzero"/><path d="M154.25,1021.03 L151.25,1020.47 C151.80,1019.24 153.81,1020.56 154.25,1021.03 Z" fill="#B1CDF9" fill-rule="nonzero"/><path d="M873.04,1020.10 C872.57,1020.80 871.99,1021.00 870.44,1021.00 C870.92,1020.23 871.50,1020.02 873.04,1020.10 Z" fill="#B1CDF9" fill-rule="nonzero"/><path d="M163.34,1.66 L163.00,2.00 L163.34,1.66 Z" fill="#1C3658" fill-rule="nonzero"/><path d="M0.91,172.99 C0.90,174.36 1.59,177.99 0.00,178.06 L-0.00,173.00 L0.91,172.99 Z" fill="#B1CDF9" fill-rule="nonzero"/><path d="M848.75,0.10 L854.00,-0.00 L853.99,1.02 L848.75,0.10 Z" fill="#B1CDF9" fill-rule="nonzero"/><path d="M170.00,1.02 L170.00,-0.00 L173.00,-0.00 C173.00,0.78 172.33,1.00 170.00,1.02 Z" fill="#B1CDF9" fill-rule="nonzero"/><path d="M854.01,1023.05 L854.00,1024.00 L851.00,1024.00 C851.00,1023.23 851.68,1023.01 854.01,1023.05 Z" fill="#B1CDF9" fill-rule="nonzero"/><path d="M1024.00,172.50 L1024.00,175.00 C1022.06,175.65 1023.48,172.99 1022.91,172.51 L1024.00,172.50 Z" fill="#B1CDF9" fill-rule="nonzero"/><path d="M-0.00,849.50 L-0.00,847.00 C0.78,847.00 1.00,847.56 1.00,849.50 L-0.00,849.50 Z" fill="#B1CDF9" fill-rule="nonzero"/><path d="M1023.00,851.00 C1023.00,849.06 1023.23,848.50 1024.00,848.50 L1024.00,851.00 L1023.00,851.00 Z" fill="#B1CDF9" fill-rule="nonzero"/><path d="M173.00,1024.00 L170.50,1024.00 L170.49,1023.10 C172.43,1023.02 173.00,1023.23 173.00,1024.00 Z" fill="#B1CDF9" fill-rule="nonzero"/></svg>
